<?xml version="1.0" encoding="utf-8"?>
<!-- Generator: Adobe Illustrator 18.1.1, SVG Export Plug-In . SVG Version: 6.00 Build 0)  -->
<svg version="1.1" id="Layer_1" xmlns="http://www.w3.org/2000/svg" xmlns:xlink="http://www.w3.org/1999/xlink" x="0px" y="0px"
	 viewBox="0 0 32.9 35.7" enable-background="new 0 0 32.9 35.7" xml:space="preserve">
<g id="XMLID_1355_">
	<g id="XMLID_1391_">
		<path id="XMLID_1432_" fill="#04649F" d="M9.9,9.8C9.9,9.8,9.9,9.8,9.9,9.8c0,0,0.1-0.1,0.1-0.1C10,9.7,9.9,9.8,9.9,9.8z"/>
		<path id="XMLID_1431_" fill="#04649F" d="M12.6,8C12.5,8,12.5,8,12.4,8C12.5,8,12.6,8,12.6,8C12.6,7.9,12.6,7.9,12.6,8z"/>
		<path id="XMLID_1430_" fill="#04649F" d="M22.1,8.7c0.1,0,0.3,0,0.4,0C22.4,8.7,22.3,8.7,22.1,8.7z"/>
		<path id="XMLID_1429_" fill="#04649F" d="M25.6,5.9C25.6,5.9,25.6,5.9,25.6,5.9L25.6,5.9L25.6,5.9C25.6,5.9,25.6,5.9,25.6,5.9
			C25.7,5.9,25.7,5.9,25.6,5.9c0,0,0,0.1-0.1,0.2c0,0,0,0,0,0C25.6,6.1,25.6,6,25.6,5.9z"/>
		<path id="XMLID_1428_" fill="#04649F" d="M8.1,12.5c0,0,0,0.1,0,0.1c0-0.1,0.1-0.1,0.1-0.2C8.2,12.4,8.1,12.4,8.1,12.5z"/>
		<path id="XMLID_1427_" fill="#04649F" d="M22.9,8.6c-0.1,0-0.2,0-0.3,0.1C22.7,8.6,22.8,8.6,22.9,8.6C22.9,8.6,22.9,8.6,22.9,8.6z
			"/>
		<path id="XMLID_1426_" fill="#04649F" d="M23.7,8.3c-0.1,0-0.1,0.1-0.2,0.1C23.5,8.4,23.6,8.4,23.7,8.3
			C23.7,8.3,23.7,8.3,23.7,8.3z"/>
		<path id="XMLID_1425_" fill="#04649F" d="M24.9,7.4C24.9,7.4,24.9,7.4,24.9,7.4C24.9,7.3,24.9,7.3,24.9,7.4
			C24.9,7.3,25,7.3,24.9,7.4c0,0-0.1,0.1-0.1,0.1C24.8,7.5,24.9,7.4,24.9,7.4C24.9,7.4,24.9,7.4,24.9,7.4z"/>
		<path id="XMLID_1424_" fill="#04649F" d="M25.3,6.8C25.3,6.7,25.3,6.7,25.3,6.8C25.3,6.7,25.4,6.7,25.3,6.8
			c0.1-0.1,0.1-0.1,0.1-0.2c0,0,0,0,0,0c0,0,0,0,0,0C25.4,6.6,25.3,6.7,25.3,6.8C25.3,6.8,25.3,6.8,25.3,6.8
			C25.3,6.8,25.3,6.8,25.3,6.8z"/>
		<path id="XMLID_1423_" fill="#04649F" d="M25.5,6.3C25.5,6.3,25.5,6.3,25.5,6.3C25.5,6.3,25.5,6.3,25.5,6.3
			C25.5,6.2,25.5,6.2,25.5,6.3L25.5,6.3c0,0,0,0.1-0.1,0.2c0,0,0,0,0,0C25.5,6.4,25.5,6.4,25.5,6.3z"/>
		<path id="XMLID_1422_" fill="#04649F" d="M24.4,7.9c-0.1,0-0.1,0.1-0.2,0.1C24.2,8,24.3,8,24.4,7.9C24.3,7.9,24.3,7.9,24.4,7.9z"
			/>
		<path id="XMLID_1421_" fill="#04649F" d="M27.8,24.1C27.8,24,27.8,24,27.8,24.1c0,0,0,0.1,0,0.1C27.8,24.1,27.8,24.1,27.8,24.1z"
			/>
		<path id="XMLID_1420_" fill="#04649F" d="M23.8,16.5c0,0,0-0.1,0-0.1c0,0,0,0,0,0C23.8,16.4,23.8,16.5,23.8,16.5z"/>
		<g id="XMLID_1408_">
			<polygon id="XMLID_1419_" fill="#005C99" points="10.6,18.3 16.1,10.6 16.1,21.4 			"/>
			<g id="XMLID_1409_">
				<polygon id="XMLID_1418_" fill="#158CCC" points="16.1,14.9 18.3,13.6 17.9,13.1 16.1,14.1 				"/>
				<polygon id="XMLID_1417_" fill="#158CCC" points="16.1,17.5 19.7,15.5 19.3,14.9 16.1,16.7 				"/>
				<polygon id="XMLID_1416_" fill="#158CCC" points="16.1,13.6 17.7,12.7 17.3,12.1 16.1,12.8 				"/>
				<polygon id="XMLID_1415_" fill="#158CCC" points="16.1,20.1 21,17.3 20.6,16.7 16.1,19.3 				"/>
				<polygon id="XMLID_1414_" fill="#158CCC" points="16.1,16.2 19,14.6 18.6,14 16.1,15.4 				"/>
				<polygon id="XMLID_1413_" fill="#158CCC" points="16.1,18.8 20.3,16.4 19.9,15.8 16.1,18 				"/>
				<polygon id="XMLID_1412_" fill="#158CCC" points="16.1,21.4 21.7,18.2 21.3,17.7 16.1,20.6 				"/>
				<polygon id="XMLID_1411_" fill="#04649F" points="16.1,10.6 16.1,11 16.3,10.9 				"/>
				<polygon id="XMLID_1410_" fill="#158CCC" points="16.6,11.2 16.1,11.5 16.1,12.3 17,11.8 				"/>
			</g>
		</g>
		<g id="XMLID_1393_">
			<path id="XMLID_1407_" fill="#158CCC" d="M12.8,23.3c-1-0.4-1.9-1-2.7-1.7C9.4,20.9,8.7,20,8.3,19c-0.1-0.2-0.1-0.3-0.2-0.5
				c-0.1-0.3-0.2-0.7-0.3-1c0-0.1,0-0.2-0.1-0.2c0-0.1,0-0.1,0-0.2c0-0.1,0-0.2,0-0.3c0-0.1,0-0.1,0-0.2c0-0.1,0-0.2,0-0.3
				c0,0,0-0.1,0-0.1c0-0.1,0-0.3,0-0.4c0,0,0-0.1,0-0.1c0,0,0-0.1,0-0.1c0-0.1,0-0.2,0-0.3c0-0.1,0-0.1,0-0.2c0-0.1,0-0.2,0-0.3
				c0,0,0-0.1,0-0.1c0-0.2,0-0.3,0.1-0.5c0,0,0,0,0-0.1c0-0.1,0.1-0.3,0.1-0.4c0,0,0,0,0,0c0,0,0-0.1,0-0.1c0-0.1,0-0.2,0.1-0.2
				c0-0.1,0-0.1,0.1-0.2C8,12.9,8,12.8,8,12.8c0-0.1,0-0.1,0.1-0.2c0,0,0-0.1,0-0.1c0,0,0-0.1,0.1-0.1c0-0.1,0-0.1,0.1-0.2
				c0-0.1,0.1-0.2,0.1-0.2c0,0,0-0.1,0.1-0.1c0,0,0,0,0-0.1c0.1-0.1,0.1-0.2,0.2-0.3c0,0,0-0.1,0-0.1c0.1-0.1,0.2-0.3,0.2-0.4
				c0,0,0-0.1,0.1-0.1c0.1-0.1,0.1-0.2,0.2-0.3c0,0,0.1-0.1,0.1-0.1c0.1-0.1,0.1-0.2,0.2-0.2c0,0,0,0,0.1-0.1c0,0,0,0,0.1-0.1
				c0.1-0.1,0.1-0.1,0.2-0.2c0,0,0.1-0.1,0.1-0.1c0,0,0,0,0.1-0.1c0,0,0.1-0.1,0.1-0.1c0,0,0.1-0.1,0.1-0.1c0.1-0.1,0.1-0.1,0.2-0.2
				c0,0,0.1-0.1,0.1-0.1c0.1-0.1,0.1-0.1,0.2-0.2c0,0,0.1-0.1,0.1-0.1c0.1-0.1,0.2-0.2,0.3-0.2c0,0,0,0,0,0c0.1-0.1,0.2-0.2,0.4-0.2
				c0,0,0.1,0,0.1-0.1c0.1-0.1,0.2-0.1,0.3-0.2c0,0,0.1,0,0.1-0.1c0.1,0,0.2-0.1,0.2-0.1c0.1,0,0.1,0,0.2-0.1C12.5,8,12.5,8,12.6,8
				c0,0,0,0,0.1,0c0.1,0,0.1,0,0.2-0.1c0.1,0,0.2-0.1,0.2-0.1c0.1,0,0.1,0,0.2-0.1c0.1,0,0.2-0.1,0.2-0.1c0.1,0,0.1,0,0.2-0.1
				c0.1,0,0.2,0,0.2-0.1c0.1,0,0.1,0,0.2,0c0.1,0,0.2,0,0.3-0.1c0.1,0,0.1,0,0.2,0c0.1,0,0.2,0,0.3,0c0.1,0,0.1,0,0.2,0
				c0.1,0,0.2,0,0.3,0c0,0,0.1,0,0.1,0c0.2,0,0.3,0,0.5,0c0.4,0,0.8,0,1.1,0c0.4,0,0.7,0.1,1.1,0.2c0.4,0.1,0.7,0.2,1.1,0.3
				c0.4,0.1,0.7,0.3,1,0.5c0.1,0.1,0.3,0.1,0.5,0.2c0.2,0.1,0.3,0.1,0.5,0.1c0.2,0,0.3,0.1,0.5,0.1c0.2,0,0.3,0,0.5,0
				c0.1,0,0.3,0,0.4,0c0,0,0.1,0,0.1,0c0.1,0,0.2,0,0.3-0.1c0,0,0,0,0,0c0,0,0.1,0,0.1,0c0.1,0,0.2,0,0.2-0.1c0.1,0,0.1,0,0.2-0.1
				c0.1,0,0.1-0.1,0.2-0.1c0,0,0,0,0,0c0,0,0.1-0.1,0.1-0.1c0.1,0,0.1-0.1,0.2-0.1c0.1,0,0.1-0.1,0.1-0.1c0.1,0,0.1-0.1,0.2-0.1
				c0,0,0,0,0,0c0,0,0.1-0.1,0.1-0.1c0.1,0,0.1-0.1,0.2-0.1c0,0,0.1-0.1,0.1-0.1c0.1-0.1,0.1-0.1,0.2-0.2c0,0,0.1-0.1,0.1-0.1
				c0,0,0.1-0.1,0.1-0.1c0,0,0.1-0.1,0.1-0.1c0,0,0-0.1,0.1-0.1c0.1-0.1,0.1-0.2,0.2-0.3c0,0,0,0,0,0c0-0.1,0.1-0.2,0.1-0.3
				c0,0,0,0,0,0c0,0,0,0,0,0c0-0.1,0.1-0.2,0.1-0.3c0,0,0,0,0,0c0-0.1,0-0.2,0.1-0.3c0-0.2,0-0.5,0-0.7c0-0.2-0.1-0.5-0.1-0.7
				c-0.1-0.2-0.2-0.5-0.3-0.7c-0.1-0.2-0.2-0.4-0.4-0.6c-0.2-0.2-0.3-0.4-0.5-0.5C24.2,2.2,24,2,23.8,1.9c-0.6-0.3-1.3-0.6-1.9-0.9
				c-0.7-0.2-1.3-0.5-2-0.6c-0.7-0.2-1.4-0.3-2.1-0.4C17.1,0,16.4,0,15.7,0c-2.2,0.1-4.3,0.5-6.1,1.4c-1.9,0.8-3.6,2-5,3.4
				c-1,1-1.8,2.1-2.5,3.2C4.6,18.4,9.3,22.1,12.8,23.3z"/>
			<path id="XMLID_1406_" fill="#005C99" d="M19.5,33.1c-0.5,0.1-1,0.1-1.5,0.2c-0.5,0-1,0.1-1.5,0.1v2.3l0.1,0l5.7-3.1
				c-0.5,0.1-0.9,0.2-1.4,0.3C20.4,33,20,33.1,19.5,33.1z"/>
			<path id="XMLID_1405_" fill="#037AB3" d="M29.7,6c-0.1-0.2-0.3-0.3-0.4-0.5c-0.7-0.9-1.5-1.7-2.4-2.4c0,0,0,0.1,0.1,0.1
				c0,0,0,0.1,0.1,0.1c0,0,0,0.1,0.1,0.1c0,0,0,0.1,0,0.1c0,0.1,0.1,0.2,0.1,0.3c0,0,0,0.1,0,0.1c0,0.1,0,0.1,0,0.2c0,0,0,0.1,0,0.1
				c0,0.1,0,0.1,0,0.2c0,0,0,0.1,0,0.1c0,0,0,0,0,0.1c0,0,0,0.1,0,0.1c0,0,0,0.1,0,0.1c0,0.1,0,0.1,0,0.2c0,0,0,0.1,0,0.1
				c0,0.1,0,0.2,0,0.2c0,0,0,0,0,0c0,0.1,0,0.2,0,0.3c0,0,0,0,0,0c0,0,0,0.1,0,0.1c0,0.1,0,0.1,0,0.2c0,0.2-0.1,0.5-0.2,0.7
				C27,6.9,27,7,26.9,7.2c-0.1,0.1-0.1,0.3-0.2,0.4c0,0.1-0.1,0.2-0.1,0.2c-0.1,0.1-0.1,0.2-0.2,0.2c-0.1,0.1-0.1,0.2-0.2,0.2
				c-0.1,0.1-0.1,0.1-0.2,0.2c-0.2,0.3-0.5,0.5-0.8,0.7c-0.2,0.1-0.3,0.2-0.5,0.3c0,0-0.1,0.1-0.1,0.1c-0.1,0.1-0.2,0.1-0.3,0.2
				c-0.3,0.1-0.7,0.3-1,0.4c-0.4,0.1-0.7,0.1-1.1,0.1c0,0-0.1,0-0.1,0c0,0-0.1,0-0.1,0c0,0-0.1,0-0.1,0c0,0-0.1,0-0.1,0
				c0.3,0.3,0.6,0.7,0.9,1.1c0.3,0.4,0.5,0.8,0.7,1.2c0.2,0.4,0.3,0.9,0.4,1.3c0.1,0.5,0.2,0.9,0.2,1.4c0,0.1,0,0.2,0,0.3
				c0,0,0,0.1,0,0.1c0,0.1,0,0.2,0,0.2c0,0,0,0.1,0,0.1c0,0.1,0,0.1,0,0.2c0,0,0,0.1,0,0.1c0,0.1,0,0.2,0,0.3c0,0.3-0.1,0.6-0.2,0.8
				c-0.1,0.2-0.1,0.4-0.2,0.5c-0.2,0.4-0.4,0.9-0.6,1.3c-0.1,0.2-0.2,0.4-0.4,0.6C24.4,18.6,29.6,14.3,29.7,6z"/>
			<path id="XMLID_1404_" fill="#005C99" d="M32.9,15.1c0-1.2-0.2-2.4-0.5-3.5c-0.3-1.1-0.7-2.2-1.2-3.2c-0.4-0.8-0.9-1.6-1.5-2.3
				c-0.1,8.3-5.3,12.6-7.3,14c-0.1,0.2-0.3,0.4-0.4,0.5c0,0,0.1,0,0.1,0c0,0,0.1,0,0.1,0c0,0,0.1,0,0.1,0c0,0,0.1,0,0.1,0
				c0.4,0,0.7,0,1.1,0.1c0.4,0.1,0.7,0.2,1.1,0.3c0.3,0.1,0.7,0.3,1,0.5c0.3,0.2,0.6,0.4,0.9,0.7c0.1,0.1,0.1,0.1,0.2,0.2
				c0.1,0.1,0.1,0.1,0.2,0.2c0.1,0.1,0.1,0.2,0.2,0.2c0.1,0.1,0.1,0.2,0.2,0.2c0.1,0.1,0.1,0.2,0.2,0.3c0,0,0,0.1,0,0.1
				c0,0.1,0.1,0.1,0.1,0.2c0,0,0,0.1,0,0.1c0,0.1,0.1,0.1,0.1,0.2c0,0,0,0.1,0,0.1c0,0.1,0,0.1,0.1,0.2c0,0,0,0,0,0c0,0,0,0.1,0,0.1
				c0,0.1,0,0.1,0.1,0.2c0,0,0,0.1,0,0.1c0,0.1,0,0.1,0,0.2c0,0,0,0.1,0,0.1c0,0.1,0,0.1,0,0.2c0,0,0,0.1,0,0.1c0,0.1,0,0.1,0,0.2
				c0,0,0,0,0,0c0,0,0,0.1,0,0.1c0,0.1,0,0.1,0,0.2c0,0,0,0.1,0,0.1c0,0.1,0,0.1,0,0.2c0,0,0,0.1,0,0.1c0,0.1,0,0.1,0,0.2
				c0,0,0,0.1,0,0.1c0,0,0,0.1,0,0.1c0,0,0,0,0,0c0,0,0,0.1,0,0.1c0,0.1,0,0.1,0,0.2c0,0,0,0.1,0,0.1c0,0.1,0,0.1,0,0.2
				c0,0,0,0.1,0,0.1c0,0.1,0,0.1,0,0.2c0,0,0,0.1,0,0.1c0,0.1,0,0.1-0.1,0.2c0,0,0,0,0,0c0,0,0,0,0,0c0.2-0.2,0.4-0.4,0.5-0.5
				c0,0,0.1-0.1,0.1-0.1c0.2-0.2,0.3-0.4,0.5-0.6c0,0,0.1-0.1,0.1-0.1c0.1-0.1,0.2-0.2,0.3-0.4c0.1-0.1,0.2-0.2,0.3-0.3
				c0.1-0.1,0.2-0.3,0.3-0.4c0-0.1,0.1-0.1,0.1-0.2c0,0,0-0.1,0.1-0.1c0.1-0.2,0.2-0.4,0.4-0.6c0,0,0-0.1,0.1-0.1
				c0.1-0.2,0.3-0.4,0.4-0.6c0,0,0-0.1,0.1-0.1c0.1-0.2,0.2-0.4,0.3-0.7c0,0,0,0,0-0.1c0.1-0.2,0.2-0.5,0.3-0.7c0,0,0,0,0,0
				c0,0,0,0,0,0c0.4-1.1,0.8-2.2,1-3.3C32.9,17.5,33,16.3,32.9,15.1z"/>
			<path id="XMLID_1403_" fill="#32B24A" d="M26.2,27.3c0-0.1,0-0.1,0.1-0.2c0,0,0,0,0,0c0,0,0,0,0,0c0,0,0-0.1,0-0.1
				C26.3,27.1,26.2,27.2,26.2,27.3C26.2,27.3,26.2,27.3,26.2,27.3z"/>
			<path id="XMLID_1400_" fill="#32B24A" d="M26.1,27.5C26.1,27.5,26.1,27.4,26.1,27.5C26.1,27.4,26.1,27.4,26.1,27.5
				C26.1,27.4,26.1,27.4,26.1,27.5c0-0.1,0.1-0.1,0.1-0.2c0,0.1-0.1,0.2-0.1,0.3C26.1,27.6,26.1,27.5,26.1,27.5z"/>
			<path id="XMLID_1399_" fill="#32B24A" d="M11.6,30.9c0.2,0.1,0.5,0.1,0.7,0.2C12.1,31,11.8,30.9,11.6,30.9
				C11.6,30.9,11.6,30.9,11.6,30.9z"/>
			<path id="XMLID_1398_" fill="#39ACE2" d="M0,15.9c0,2.2,0.5,4.2,1.3,6.1c0.1,0.2,0.2,0.4,0.3,0.6c0,0.1,0.1,0.1,0.1,0.2
				C1.8,23,1.9,23.2,2,23.3c0,0.1,0.1,0.1,0.1,0.2c0.1,0.2,0.2,0.4,0.3,0.5c0,0,0,0,0,0.1c0.1,0.2,0.3,0.4,0.4,0.6
				c0,0.1,0.1,0.1,0.1,0.2C3,25,3.2,25.1,3.3,25.2c0,0.1,0.1,0.1,0.1,0.2c0.1,0.2,0.3,0.3,0.4,0.5c0,0,0,0,0,0
				c0.2,0.2,0.3,0.3,0.5,0.5c0,0,0.1,0.1,0.1,0.1c0.1,0.1,0.2,0.2,0.4,0.4c0,0,0.1,0.1,0.1,0.1c0.2,0.2,0.3,0.3,0.5,0.4c0,0,0,0,0,0
				C5.6,27.7,5.8,27.9,6,28c0.1,0,0.1,0.1,0.2,0.1c0.1,0.1,0.3,0.2,0.4,0.3c0.1,0,0.1,0.1,0.2,0.1c0.2,0.1,0.4,0.2,0.5,0.4
				c0,0,0,0,0,0c0.2,0.1,0.4,0.2,0.6,0.4c0.1,0,0.1,0.1,0.2,0.1c0.2,0.1,0.3,0.2,0.5,0.2c0.1,0,0.1,0.1,0.2,0.1
				C9,29.9,9.2,30,9.4,30.1c0,0,0,0,0,0c0.2,0.1,0.4,0.2,0.7,0.3c0.1,0,0.1,0,0.2,0.1c0.2,0.1,0.3,0.1,0.5,0.2c0.1,0,0.1,0,0.2,0.1
				c0.2,0.1,0.4,0.1,0.7,0.2c0,0,0,0,0,0c0.2,0.1,0.5,0.1,0.7,0.2c0.1,0,0.1,0,0.2,0c0.2,0,0.3,0.1,0.5,0.1c0.1,0,0.1,0,0.2,0
				c0.2,0,0.5,0.1,0.7,0.1c0,0,0,0,0,0c0.2,0,0.5,0.1,0.7,0.1c0.1,0,0.2,0,0.2,0c0.2,0,0.4,0,0.5,0c0.1,0,0.2,0,0.2,0
				c0.2,0,0.5,0,0.8,0c0.7,0,1.5-0.1,2.2-0.2c0.7-0.1,1.4-0.3,2.1-0.5c0.7-0.2,1.4-0.5,2-0.8c0.7-0.3,1.3-0.6,1.9-1
				c0.1-0.1,0.2-0.1,0.3-0.2c0,0,0,0,0.1,0c0,0,0,0,0,0c0.1-0.1,0.1-0.1,0.2-0.2c0,0,0,0,0,0c0,0,0,0,0,0c0.1-0.1,0.1-0.1,0.2-0.2
				c0,0,0,0,0,0c0,0,0,0,0,0c0.1-0.1,0.1-0.2,0.2-0.3c0,0,0,0,0-0.1c0.1-0.1,0.1-0.2,0.2-0.3c0,0,0,0,0,0c0.1-0.1,0.1-0.2,0.1-0.3
				c0,0,0,0,0,0c0-0.1,0.1-0.2,0.1-0.3c0,0,0,0,0,0l0,0c0,0,0,0,0,0c0-0.1,0.1-0.2,0.1-0.3c0.1-0.5,0.1-1,0-1.4
				c-0.1-0.5-0.3-1-0.5-1.4c0,0-0.1-0.1-0.1-0.1c0,0-0.1-0.1-0.1-0.1c0,0-0.1-0.1-0.1-0.1c0,0-0.1-0.1-0.1-0.1
				c-0.1-0.1-0.1-0.1-0.2-0.2c-0.1-0.1-0.3-0.3-0.5-0.4c-0.2-0.2-0.5-0.3-0.7-0.4c-0.3-0.1-0.5-0.2-0.8-0.2
				c-0.3-0.1-0.6-0.1-0.8-0.1c-0.2,0-0.3,0-0.5,0c-0.1,0-0.2,0-0.3,0.1c-0.1,0-0.1,0-0.2,0.1c-0.2,0-0.3,0.1-0.5,0.2
				c-0.2,0.1-0.3,0.2-0.4,0.2c-0.3,0.2-0.7,0.4-1,0.5c-0.3,0.2-0.7,0.3-1.1,0.4c-0.4,0.1-0.7,0.2-1.1,0.3c0,0-0.2,0-0.5,0.1
				c-0.2,0-0.4,0-0.6,0c-1.2,0-2.3-0.2-3.4-0.6c0,0-0.1,0-0.1,0C9.3,22.1,4.6,18.4,2.1,8C1.7,8.6,1.4,9.2,1.2,9.8
				C0.4,11.7,0,13.8,0,15.9z"/>
			<path id="XMLID_1394_" fill="#037AB3" d="M16.6,33.4c-0.5,0-1,0-1.5,0c-0.5,0-1-0.1-1.5-0.1c-0.5,0-1-0.1-1.4-0.2
				c-0.5-0.1-0.9-0.2-1.4-0.3l5.8,2.8L16.6,33.4C16.6,33.4,16.6,33.4,16.6,33.4z"/>
		</g>
	</g>
	<g id="XMLID_1356_">
		<path id="XMLID_1389_" fill="#F18221" d="M25.5,6.3C25.5,6.3,25.5,6.3,25.5,6.3C25.5,6.3,25.5,6.3,25.5,6.3
			C25.5,6.2,25.5,6.2,25.5,6.3c0,0,0,0.1-0.1,0.2c0,0,0,0,0,0C25.5,6.4,25.5,6.4,25.5,6.3z"/>
		<polygon id="XMLID_1388_" fill="#F18221" points="25.6,6.2 25.6,6.2 25.6,6.2 		"/>
		<polygon id="XMLID_1387_" fill="#F18221" points="16.1,21.4 16.1,10.6 10.6,18.3 		"/>
		<polygon id="XMLID_1386_" fill="#F18221" points="16.1,14.9 18.3,13.6 17.9,13.1 16.1,14.1 		"/>
		<polygon id="XMLID_1385_" fill="#F18221" points="16.1,17.5 19.7,15.5 19.3,14.9 16.1,16.7 		"/>
		<polygon id="XMLID_1366_" fill="#F18221" points="16.1,13.6 17.7,12.7 17.3,12.1 16.1,12.8 		"/>
		<polygon id="XMLID_1365_" fill="#F18221" points="16.1,20.1 21,17.3 20.6,16.7 16.1,19.3 		"/>
		<polygon id="XMLID_1364_" fill="#F18221" points="16.1,16.2 19,14.6 18.6,14 16.1,15.4 		"/>
		<polygon id="XMLID_1363_" fill="#F18221" points="16.1,18.8 20.3,16.4 19.9,15.8 16.1,18 		"/>
		<polygon id="XMLID_1362_" fill="#F18221" points="16.1,21.4 21.7,18.2 21.3,17.7 16.1,20.6 		"/>
		<polygon id="XMLID_1361_" fill="#F18221" points="16.1,11 16.3,10.9 16.1,10.6 		"/>
		<polygon id="XMLID_1360_" fill="#F18221" points="16.1,12.3 17,11.8 16.6,11.2 16.1,11.5 		"/>
		<path id="XMLID_1359_" fill="#F18221" d="M19.5,33.1c-0.5,0.1-1,0.1-1.5,0.2c-0.5,0-1,0.1-1.5,0.1c0,0,0,0,0,0c-0.5,0-1,0-1.5,0
			c-0.5,0-1-0.1-1.5-0.1c-0.5,0-1-0.1-1.4-0.2c-0.5-0.1-0.9-0.2-1.4-0.3l5.8,2.8l0.1,0l5.7-3.1c-0.5,0.1-0.9,0.2-1.4,0.3
			C20.4,33,20,33.1,19.5,33.1z"/>
		<path id="XMLID_1358_" fill="#F18221" d="M32.9,15.1c0-1.2-0.2-2.4-0.5-3.5c-0.3-1.1-0.7-2.2-1.2-3.2c-0.4-0.8-0.9-1.6-1.5-2.3
			c-0.1-0.2-0.3-0.3-0.4-0.5c-0.7-0.9-1.5-1.7-2.4-2.4c0,0,0,0.1,0.1,0.1c0,0,0,0.1,0.1,0.1c0,0,0,0.1,0.1,0.1c0,0,0,0.1,0,0.1
			c0,0.1,0.1,0.2,0.1,0.3c0,0,0,0.1,0,0.1c0,0.1,0,0.1,0,0.2c0,0,0,0.1,0,0.1c0,0.1,0,0.1,0,0.2c0,0,0,0.1,0,0.1c0,0,0,0,0,0.1
			c0,0,0,0.1,0,0.1c0,0,0,0.1,0,0.1c0,0.1,0,0.1,0,0.2c0,0,0,0.1,0,0.1c0,0.1,0,0.2,0,0.2c0,0,0,0,0,0c0,0.1,0,0.2,0,0.3
			c0,0,0,0,0,0c0,0,0,0.1,0,0.1c0,0.1,0,0.1,0,0.2c0,0.2-0.1,0.5-0.2,0.7C27,6.9,27,7,26.9,7.2c-0.1,0.1-0.1,0.3-0.2,0.4
			c0,0.1-0.1,0.2-0.1,0.2c-0.1,0.1-0.1,0.2-0.2,0.2c-0.1,0.1-0.1,0.2-0.2,0.2c-0.1,0.1-0.1,0.1-0.2,0.2c-0.2,0.3-0.5,0.5-0.8,0.7
			c-0.2,0.1-0.3,0.2-0.5,0.3c0,0-0.1,0.1-0.1,0.1c-0.1,0.1-0.2,0.1-0.3,0.2c-0.3,0.1-0.7,0.3-1,0.4c-0.4,0.1-0.7,0.1-1.1,0.1
			c0,0-0.1,0-0.1,0c0,0-0.1,0-0.1,0c0,0-0.1,0-0.1,0c0,0-0.1,0-0.1,0c0.3,0.3,0.6,0.7,0.9,1.1c0.3,0.4,0.5,0.8,0.7,1.2
			c0.2,0.4,0.3,0.9,0.4,1.3c0.1,0.5,0.2,0.9,0.2,1.4c0,0.1,0,0.2,0,0.3c0,0,0,0.1,0,0.1c0,0.1,0,0.2,0,0.2c0,0,0,0.1,0,0.1
			c0,0.1,0,0.1,0,0.2c0,0,0,0,0,0c0,0,0,0.1,0,0.1c0,0.1,0,0.2,0,0.3c0,0.3-0.1,0.6-0.2,0.8c-0.1,0.2-0.1,0.4-0.2,0.5
			c-0.2,0.4-0.4,0.9-0.6,1.3c-0.1,0.2-0.2,0.4-0.4,0.6c-0.1,0.2-0.3,0.4-0.4,0.5c0,0,0.1,0,0.1,0c0,0,0.1,0,0.1,0c0,0,0.1,0,0.1,0
			c0,0,0.1,0,0.1,0c0.4,0,0.7,0,1.1,0.1c0.4,0.1,0.7,0.2,1.1,0.3c0.3,0.1,0.7,0.3,1,0.5c0.3,0.2,0.6,0.4,0.9,0.7
			c0.1,0.1,0.1,0.1,0.2,0.2c0.1,0.1,0.1,0.1,0.2,0.2c0.1,0.1,0.1,0.2,0.2,0.2c0.1,0.1,0.1,0.2,0.2,0.2c0.1,0.1,0.1,0.2,0.2,0.3
			c0,0,0,0.1,0,0.1c0,0.1,0.1,0.1,0.1,0.2c0,0,0,0.1,0,0.1c0,0.1,0.1,0.1,0.1,0.2c0,0,0,0.1,0,0.1c0,0.1,0,0.1,0.1,0.2
			c0,0,0,0.1,0,0.1c0,0.1,0,0.1,0.1,0.2c0,0,0,0.1,0,0.1c0,0.1,0,0.1,0,0.2c0,0,0,0.1,0,0.1c0,0.1,0,0.1,0,0.2c0,0,0,0.1,0,0.1
			c0,0.1,0,0.1,0,0.2c0,0,0,0,0,0c0,0,0,0.1,0,0.1c0,0.1,0,0.1,0,0.2c0,0,0,0.1,0,0.1c0,0.1,0,0.1,0,0.2c0,0,0,0.1,0,0.1
			c0,0.1,0,0.1,0,0.2c0,0,0,0.1,0,0.1c0,0,0,0.1,0,0.1c0,0,0,0,0,0c0,0,0,0.1,0,0.1c0,0.1,0,0.1,0,0.2c0,0,0,0.1,0,0.1
			c0,0.1,0,0.1,0,0.2c0,0,0,0.1,0,0.1c0,0.1,0,0.1,0,0.2c0,0,0,0.1,0,0.1c0,0.1,0,0.1-0.1,0.2c0,0,0,0,0,0c0,0,0,0,0,0
			c0.2-0.2,0.4-0.4,0.5-0.5c0,0,0.1-0.1,0.1-0.1c0.2-0.2,0.3-0.4,0.5-0.6c0,0,0.1-0.1,0.1-0.1c0.1-0.1,0.2-0.2,0.3-0.4
			c0.1-0.1,0.2-0.2,0.3-0.3c0.1-0.1,0.2-0.3,0.3-0.4c0-0.1,0.1-0.1,0.1-0.2c0,0,0-0.1,0.1-0.1c0.1-0.2,0.2-0.4,0.4-0.6
			c0,0,0-0.1,0.1-0.1c0.1-0.2,0.3-0.4,0.4-0.6c0,0,0-0.1,0.1-0.1c0.1-0.2,0.2-0.4,0.3-0.7c0,0,0,0,0-0.1c0.1-0.2,0.2-0.5,0.3-0.7
			c0,0,0,0,0,0c0,0,0,0,0,0c0.4-1.1,0.8-2.2,1-3.3C32.9,17.5,33,16.3,32.9,15.1z"/>
		<path id="XMLID_1357_" fill="#F18221" d="M25.9,23.8c0,0-0.1-0.1-0.1-0.1c0,0-0.1-0.1-0.1-0.1c0,0-0.1-0.1-0.1-0.1
			c0,0-0.1-0.1-0.1-0.1c-0.1-0.1-0.1-0.1-0.2-0.2c-0.1-0.1-0.3-0.3-0.5-0.4c-0.2-0.2-0.5-0.3-0.7-0.4c-0.3-0.1-0.5-0.2-0.8-0.2
			c-0.3-0.1-0.6-0.1-0.8-0.1c-0.2,0-0.3,0-0.5,0c-0.1,0-0.2,0-0.3,0.1c-0.1,0-0.1,0-0.2,0.1c-0.2,0-0.3,0.1-0.5,0.2
			c-0.2,0.1-0.3,0.2-0.4,0.2c-0.3,0.2-0.7,0.4-1,0.5c-0.3,0.2-0.7,0.3-1.1,0.4c-0.4,0.1-0.7,0.2-1.1,0.3c0,0-0.2,0-0.5,0.1
			c-0.2,0-0.4,0-0.6,0c-1.2,0-2.3-0.2-3.4-0.6c0,0-0.1,0-0.1,0c-1-0.4-1.9-1-2.7-1.7C9.4,20.9,8.7,20,8.3,19
			c-0.1-0.2-0.1-0.3-0.2-0.5c-0.1-0.3-0.2-0.7-0.3-1c0-0.1,0-0.2-0.1-0.2c0-0.1,0-0.1,0-0.2c0-0.1,0-0.2,0-0.3c0-0.1,0-0.1,0-0.2
			c0-0.1,0-0.2,0-0.3c0,0,0-0.1,0-0.1c0-0.1,0-0.3,0-0.4c0,0,0-0.1,0-0.1c0,0,0-0.1,0-0.1c0-0.1,0-0.2,0-0.3c0-0.1,0-0.1,0-0.2
			c0-0.1,0-0.2,0-0.3c0,0,0-0.1,0-0.1c0-0.2,0-0.3,0.1-0.5c0,0,0,0,0-0.1c0-0.1,0.1-0.3,0.1-0.4c0,0,0,0,0,0c0,0,0-0.1,0-0.1
			c0-0.1,0-0.2,0.1-0.2c0-0.1,0-0.1,0.1-0.2C8,12.9,8,12.8,8,12.8c0-0.1,0-0.1,0.1-0.2c0-0.1,0.1-0.1,0.1-0.2c0-0.1,0-0.1,0.1-0.2
			c0-0.1,0.1-0.2,0.1-0.2c0,0,0-0.1,0.1-0.1c0,0,0,0,0-0.1c0.1-0.1,0.1-0.2,0.2-0.3c0,0,0-0.1,0-0.1c0.1-0.1,0.2-0.3,0.2-0.4
			c0,0,0-0.1,0.1-0.1c0.1-0.1,0.1-0.2,0.2-0.3c0,0,0.1-0.1,0.1-0.1c0.1-0.1,0.1-0.2,0.2-0.2c0,0,0,0,0.1-0.1c0,0,0,0,0.1-0.1
			c0.1-0.1,0.1-0.1,0.2-0.2c0,0,0.1-0.1,0.1-0.1C9.9,9.8,10,9.7,10,9.7c0,0,0.1-0.1,0.1-0.1c0.1-0.1,0.1-0.1,0.2-0.2
			c0,0,0.1-0.1,0.1-0.1c0.1-0.1,0.1-0.1,0.2-0.2c0,0,0.1-0.1,0.1-0.1c0.1-0.1,0.2-0.2,0.3-0.2c0,0,0,0,0,0c0.1-0.1,0.2-0.2,0.4-0.2
			c0,0,0.1,0,0.1-0.1c0.1-0.1,0.2-0.1,0.3-0.2c0,0,0.1,0,0.1-0.1c0.1,0,0.2-0.1,0.2-0.1c0.1,0,0.1,0,0.2-0.1c0.1,0,0.2-0.1,0.2-0.1
			c0.1,0,0.1,0,0.2-0.1c0.1,0,0.2-0.1,0.2-0.1c0.1,0,0.1,0,0.2-0.1c0.1,0,0.2-0.1,0.2-0.1c0.1,0,0.1,0,0.2-0.1c0.1,0,0.2,0,0.2-0.1
			c0.1,0,0.1,0,0.2,0c0.1,0,0.2,0,0.3-0.1c0.1,0,0.1,0,0.2,0c0.1,0,0.2,0,0.3,0c0.1,0,0.1,0,0.2,0c0.1,0,0.2,0,0.3,0
			c0,0,0.1,0,0.1,0c0.2,0,0.3,0,0.5,0c0.4,0,0.8,0,1.1,0c0.4,0,0.7,0.1,1.1,0.2c0.4,0.1,0.7,0.2,1.1,0.3c0.4,0.1,0.7,0.3,1,0.5
			c0.1,0.1,0.3,0.1,0.5,0.2c0.2,0.1,0.3,0.1,0.5,0.1c0.2,0,0.3,0.1,0.5,0.1c0.2,0,0.3,0,0.5,0c0.1,0,0.3,0,0.4,0c0,0,0.1,0,0.1,0
			c0.1,0,0.2,0,0.3-0.1c0,0,0,0,0,0c0,0,0,0,0,0c0,0,0.1,0,0.1,0c0.1,0,0.2,0,0.2-0.1c0.1,0,0.1,0,0.2-0.1c0.1,0,0.1-0.1,0.2-0.1
			c0,0,0,0,0,0c0,0,0,0,0,0c0,0,0.1-0.1,0.1-0.1c0.1,0,0.1-0.1,0.2-0.1c0.1,0,0.1-0.1,0.1-0.1c0,0,0.1-0.1,0.2-0.1c0,0,0,0,0,0
			c0,0,0,0,0,0c0,0,0.1-0.1,0.1-0.1c0.1,0,0.1-0.1,0.2-0.1c0,0,0.1-0.1,0.1-0.1c0,0,0.1-0.1,0.1-0.1c0,0,0,0,0,0c0,0,0,0,0,0
			c0,0,0,0,0,0c0,0,0,0,0,0c0,0,0.1-0.1,0.1-0.1c0,0,0.1-0.1,0.1-0.1c0,0,0.1-0.1,0.1-0.1c0,0,0-0.1,0.1-0.1c0,0,0,0,0,0
			c0,0,0,0,0,0c0,0,0,0,0,0c0,0,0,0,0,0c0,0,0-0.1,0-0.1c0,0,0,0,0,0c0,0,0,0,0,0c0,0,0,0,0,0c0-0.1,0.1-0.2,0.1-0.3c0,0,0,0,0,0
			c0,0,0,0,0,0c0,0,0,0,0,0c0-0.1,0-0.1,0.1-0.2c0,0,0,0,0,0l0,0l0,0c0,0,0-0.1,0-0.1c0,0,0,0,0,0c0,0,0,0,0,0c0-0.1,0-0.2,0.1-0.3
			c0-0.2,0-0.5,0-0.7c0-0.2-0.1-0.5-0.1-0.7c-0.1-0.2-0.2-0.5-0.3-0.7c-0.1-0.2-0.2-0.4-0.4-0.6c-0.2-0.2-0.3-0.4-0.5-0.5
			C24.2,2.2,24,2,23.8,1.9c-0.6-0.3-1.3-0.6-1.9-0.9c-0.7-0.2-1.3-0.5-2-0.6c-0.7-0.2-1.4-0.3-2.1-0.4C17.1,0,16.4,0,15.7,0
			c-2.2,0.1-4.3,0.5-6.1,1.4c-1.9,0.8-3.6,2-5,3.4c-1,1-1.8,2.1-2.5,3.2C1.7,8.6,1.4,9.2,1.2,9.8c-0.8,1.9-1.2,4-1.2,6.1
			c0,2.2,0.5,4.2,1.3,6.1c0.1,0.2,0.2,0.4,0.3,0.6c0,0.1,0.1,0.1,0.1,0.2C1.8,23,1.9,23.2,2,23.3c0,0.1,0.1,0.1,0.1,0.2
			c0.1,0.2,0.2,0.4,0.3,0.5c0,0,0,0,0,0.1c0.1,0.2,0.3,0.4,0.4,0.6c0,0.1,0.1,0.1,0.1,0.2C3,25,3.2,25.1,3.3,25.2
			c0,0.1,0.1,0.1,0.1,0.2c0.1,0.2,0.3,0.3,0.4,0.5c0,0,0,0,0,0c0.2,0.2,0.3,0.3,0.5,0.5c0,0,0.1,0.1,0.1,0.1
			c0.1,0.1,0.2,0.2,0.4,0.4c0,0,0.1,0.1,0.1,0.1c0.2,0.2,0.3,0.3,0.5,0.4c0,0,0,0,0,0C5.6,27.7,5.8,27.9,6,28c0.1,0,0.1,0.1,0.2,0.1
			c0.1,0.1,0.3,0.2,0.4,0.3c0.1,0,0.1,0.1,0.2,0.1c0.2,0.1,0.4,0.2,0.5,0.4c0,0,0,0,0,0c0.2,0.1,0.4,0.2,0.6,0.4
			c0.1,0,0.1,0.1,0.2,0.1c0.2,0.1,0.3,0.2,0.5,0.2c0.1,0,0.1,0.1,0.2,0.1C9,29.9,9.2,30,9.4,30.1c0,0,0,0,0,0
			c0.2,0.1,0.4,0.2,0.7,0.3c0.1,0,0.1,0,0.2,0.1c0.2,0.1,0.3,0.1,0.5,0.2c0.1,0,0.1,0,0.2,0.1c0.2,0.1,0.4,0.1,0.7,0.2c0,0,0,0,0,0
			c0,0,0,0,0,0c0.2,0.1,0.5,0.1,0.7,0.2c0.1,0,0.1,0,0.2,0c0.2,0,0.3,0.1,0.5,0.1c0.1,0,0.1,0,0.2,0c0.2,0,0.5,0.1,0.7,0.1
			c0,0,0,0,0,0c0.2,0,0.5,0.1,0.7,0.1c0.1,0,0.2,0,0.2,0c0.2,0,0.4,0,0.5,0c0.1,0,0.2,0,0.2,0c0.2,0,0.5,0,0.8,0
			c0.7,0,1.5-0.1,2.2-0.2c0.7-0.1,1.4-0.3,2.1-0.5c0.7-0.2,1.4-0.5,2-0.8c0.7-0.3,1.3-0.6,1.9-1c0.1-0.1,0.2-0.1,0.3-0.2
			c0,0,0,0,0.1,0c0,0,0,0,0,0c0.1-0.1,0.1-0.1,0.2-0.2c0,0,0,0,0,0c0,0,0,0,0,0c0.1-0.1,0.1-0.1,0.2-0.2c0,0,0,0,0,0c0,0,0,0,0,0
			c0.1-0.1,0.1-0.2,0.2-0.3c0,0,0,0,0-0.1c0.1-0.1,0.1-0.2,0.2-0.3c0,0,0,0,0,0c0,0,0.1-0.1,0.1-0.1c0,0,0,0,0,0c0,0,0,0,0,0
			c0,0,0,0,0,0c0,0,0-0.1,0-0.1c0,0,0,0,0,0c0,0,0,0,0,0c0-0.1,0-0.1,0.1-0.2c0,0,0,0,0,0c0,0,0,0,0,0c0,0,0-0.1,0-0.1c0,0,0,0,0,0
			l0,0c0,0,0,0,0,0c0-0.1,0.1-0.2,0.1-0.3c0.1-0.5,0.1-1,0-1.4C26.3,24.7,26.2,24.2,25.9,23.8z"/>
	</g>
</g>
</svg>
