<?xml version="1.0" encoding="utf-8"?>
<!-- Generator: Adobe Illustrator 18.1.1, SVG Export Plug-In . SVG Version: 6.00 Build 0)  -->
<svg version="1.1" id="Layer_1" xmlns="http://www.w3.org/2000/svg" xmlns:xlink="http://www.w3.org/1999/xlink" x="0px" y="0px"
	 viewBox="0 0 401.2 192" enable-background="new 0 0 401.2 192" xml:space="preserve">
<g id="XMLID_1319_">
	<g id="XMLID_1605_">
		<g id="XMLID_1786_">
			<path id="XMLID_1808_" fill="#FFFFFF" d="M191.3,63.3h7.6v1.4h-6.2V69h3.7v1.4h-3.7v6.8h-1.4V63.3z"/>
			<path id="XMLID_1805_" fill="#FFFFFF" d="M205.3,66.4c1.6,0,2.9,0.6,3.9,1.7c1,1,1.4,2.3,1.4,3.7c0,3.5,0,5.3,0,5.4
				c-0.6,0-1.1,0-1.4,0c0,0,0-0.8,0-2.3c-0.7,1.4-2.1,2.1-4,2.3c-1.6,0-2.8-0.5-3.8-1.6c-1-1.1-1.5-2.3-1.5-3.7
				c0-1.4,0.5-2.7,1.4-3.7C202.5,67,203.8,66.4,205.3,66.4z M205.3,67.7c-1.1,0-2,0.4-2.8,1.2c-0.8,0.8-1.2,1.8-1.2,2.9
				c0,0.7,0.2,1.4,0.5,2.1c0.4,0.6,0.8,1.1,1.5,1.5c0.6,0.3,1.3,0.5,2,0.5c2.3-0.2,3.6-1.6,3.9-4.1c0-1.1-0.4-2.1-1.1-2.9
				C207.4,68.1,206.4,67.7,205.3,67.7z"/>
			<path id="XMLID_1803_" fill="#FFFFFF" d="M212,72.5v-1.2c0.1-0.6,0.2-1.1,0.4-1.5c0.4-1.1,1-1.9,1.8-2.4c0.7-0.5,1.3-0.7,1.8-0.7
				c0.4,0,0.7,0.1,1.2,0.4l-0.7,1.1c-0.6-0.2-1.2,0-1.7,0.5c-0.6,0.6-1,1.2-1.2,1.8c-0.2,0.6-0.2,1.7-0.2,3.3v3.5H212V72.5z"/>
			<path id="XMLID_1801_" fill="#FFFFFF" d="M217.5,73.2v-1.6c0.1-1.4,0.4-2.4,0.9-3.1c0.4-0.6,0.9-1.1,1.5-1.4
				c0.7-0.4,1.5-0.5,2.4-0.4c0.5,0,0.9,0.1,1.3,0.3c0.4,0.2,0.7,0.4,1,0.8c0.3,0.3,0.5,0.8,0.7,1.4c0.3-0.8,0.7-1.4,1.4-1.8
				c0.7-0.4,1.5-0.6,2.5-0.6c0.7,0,1.3,0.2,1.9,0.5c0.5,0.4,0.9,0.9,1.2,1.5c0.3,0.6,0.4,1.6,0.4,2.9v5.6h-1.3v-5.6
				c0-1.1-0.1-1.8-0.2-2.3c-0.2-0.4-0.4-0.7-0.8-1c-0.4-0.3-0.8-0.4-1.4-0.4c-1,0.1-1.8,0.6-2.4,1.5c-0.3,0.4-0.5,1.2-0.6,2.6v5.2
				h-1.3v-5.2c0-1.2-0.1-2.1-0.4-2.5c-0.3-0.4-0.6-0.8-1-1.1c-0.4-0.3-0.8-0.4-1.2-0.4c-0.6,0-1.2,0.2-1.8,0.5
				c-0.6,0.3-1,0.8-1.2,1.4c-0.2,0.6-0.3,1.6-0.3,3v4.3h-1.3V73.2z"/>
			<path id="XMLID_1798_" fill="#FFFFFF" d="M239.6,66.4c1.6,0,2.9,0.6,3.9,1.7c1,1,1.4,2.3,1.4,3.7c0,3.5,0,5.3,0,5.4
				c-0.6,0-1.1,0-1.4,0c0,0,0-0.8,0-2.3c-0.7,1.4-2.1,2.1-4,2.3c-1.6,0-2.8-0.5-3.8-1.6c-1-1.1-1.5-2.3-1.5-3.7
				c0-1.4,0.5-2.7,1.4-3.7C236.8,67,238.1,66.4,239.6,66.4z M239.6,67.7c-1.1,0-2,0.4-2.8,1.2c-0.8,0.8-1.2,1.8-1.2,2.9
				c0,0.7,0.2,1.4,0.5,2.1c0.4,0.6,0.8,1.1,1.5,1.5c0.6,0.3,1.3,0.5,2,0.5c2.3-0.2,3.6-1.6,3.9-4.1c0-1.1-0.4-2.1-1.1-2.9
				C241.7,68.1,240.7,67.7,239.6,67.7z"/>
			<path id="XMLID_1796_" fill="#FFFFFF" d="M256.7,68.8l-1,0.7c-0.9-1.2-2.1-1.8-3.7-1.8c-1.3,0-2.3,0.4-3.1,1.2
				c-0.8,0.8-1.2,1.8-1.2,2.9c0,0.7,0.2,1.5,0.6,2.1c0.4,0.7,0.9,1.2,1.6,1.5c0.7,0.4,1.4,0.5,2.2,0.5c1.5,0,2.7-0.6,3.7-1.8l1,0.7
				c-0.5,0.7-1.2,1.3-2,1.7c-0.8,0.4-1.8,0.6-2.8,0.6c-1.6,0-3-0.5-4-1.5c-1.1-1-1.6-2.3-1.6-3.7c0-1,0.3-1.9,0.8-2.8
				c0.5-0.8,1.2-1.5,2.1-2c0.9-0.5,1.8-0.7,2.9-0.7c0.7,0,1.3,0.1,2,0.3c0.6,0.2,1.2,0.5,1.6,0.8C256,67.9,256.4,68.3,256.7,68.8z"
				/>
			<path id="XMLID_1792_" fill="#FFFFFF" d="M258.9,62.7c0.3,0,0.6,0.1,0.8,0.3c0.2,0.2,0.3,0.5,0.3,0.8c0,0.3-0.1,0.6-0.3,0.8
				c-0.2,0.2-0.5,0.3-0.8,0.3c-0.3,0-0.6-0.1-0.8-0.3c-0.2-0.2-0.3-0.5-0.3-0.8c0-0.3,0.1-0.6,0.3-0.8
				C258.4,62.8,258.6,62.7,258.9,62.7z M258.3,66.9h1.3v10.2h-1.3V66.9z"/>
			<path id="XMLID_1789_" fill="#FFFFFF" d="M266.4,66.4c1.6,0,2.9,0.6,3.9,1.7c1,1,1.4,2.3,1.4,3.7c0,3.5,0,5.3,0,5.4
				c-0.6,0-1.1,0-1.4,0c0,0,0-0.8,0-2.3c-0.7,1.4-2.1,2.1-4,2.3c-1.6,0-2.8-0.5-3.8-1.6c-1-1.1-1.5-2.3-1.5-3.7
				c0-1.4,0.5-2.7,1.4-3.7C263.5,67,264.8,66.4,266.4,66.4z M266.4,67.7c-1.1,0-2,0.4-2.8,1.2c-0.8,0.8-1.2,1.8-1.2,2.9
				c0,0.7,0.2,1.4,0.5,2.1c0.4,0.6,0.8,1.1,1.5,1.5c0.6,0.3,1.3,0.5,2,0.5c2.3-0.2,3.6-1.6,3.9-4.1c0-1.1-0.4-2.1-1.1-2.9
				C268.4,68.1,267.5,67.7,266.4,67.7z"/>
			<path id="XMLID_1787_" fill="#FFFFFF" d="M278.7,67.8l-0.8,0.9c-0.7-0.7-1.4-1-2.1-1c-0.4,0-0.8,0.1-1.1,0.4
				c-0.3,0.3-0.5,0.6-0.5,1c0,0.3,0.1,0.6,0.4,0.9c0.2,0.3,0.8,0.7,1.6,1.1c1,0.5,1.6,1,2,1.5c0.3,0.5,0.5,1,0.5,1.6
				c0,0.8-0.3,1.5-0.9,2.1c-0.6,0.6-1.3,0.9-2.2,0.9c-0.6,0-1.2-0.1-1.7-0.4c-0.5-0.3-1-0.6-1.3-1.1l0.8-0.9
				c0.7,0.8,1.4,1.1,2.1,1.1c0.5,0,1-0.2,1.3-0.5c0.4-0.3,0.6-0.7,0.6-1.2c0-0.4-0.1-0.7-0.4-1c-0.2-0.3-0.8-0.7-1.7-1.1
				c-0.9-0.5-1.6-0.9-1.9-1.4c-0.3-0.5-0.5-1-0.5-1.6c0-0.8,0.3-1.4,0.8-1.9c0.5-0.5,1.2-0.8,2-0.8
				C276.8,66.4,277.7,66.9,278.7,67.8z"/>
		</g>
		<g id="XMLID_1768_">
			<path id="XMLID_1784_" fill="#FFFFFF" d="M236.1,96.1l-3.8,2.8c-2.1-2.7-4.5-4.7-7.4-6.1c-2.9-1.4-6.1-2.1-9.6-2.1
				c-3.8,0-7.3,0.9-10.6,2.7c-3.2,1.8-5.7,4.3-7.5,7.3c-1.8,3.1-2.7,6.5-2.7,10.4c0,5.8,2,10.5,6,14c4,3.5,9,5.3,15.1,5.3
				c6.7,0,12.3-2.6,16.7-7.8l3.8,2.9c-2.4,3-5.3,5.4-8.9,7c-3.6,1.6-7.5,2.5-11.9,2.5c-8.4,0-14.9-2.8-19.8-8.3c-4-4.7-6-10-6-15.9
				c0-7,2.4-12.8,7.3-17.6c4.9-4.8,11-7.2,18.4-7.2c4.5,0,8.5,0.9,12.1,2.6C230.9,90.4,233.8,92.9,236.1,96.1z"/>
			<path id="XMLID_1780_" fill="#FFFFFF" d="M258.9,97.7c5.4,0,9.9,2,13.5,5.9c3.2,3.6,4.8,7.8,4.8,12.7c0,4.9-1.7,9.2-5.1,12.9
				c-3.4,3.7-7.8,5.5-13.2,5.5c-5.4,0-9.8-1.8-13.2-5.5c-3.4-3.7-5.1-8-5.1-12.9c0-4.9,1.6-9.1,4.9-12.7
				C249,99.7,253.5,97.7,258.9,97.7z M258.9,102.1c-3.7,0-7,1.4-9.7,4.2c-2.7,2.8-4,6.1-4,10.1c0,2.5,0.6,4.9,1.8,7.1
				c1.2,2.2,2.9,3.9,5,5.1c2.1,1.2,4.4,1.8,6.9,1.8c2.5,0,4.8-0.6,6.9-1.8c2.1-1.2,3.7-2.9,5-5.1c1.2-2.2,1.8-4.6,1.8-7.1
				c0-3.9-1.3-7.3-4-10.1C265.8,103.5,262.6,102.1,258.9,102.1z"/>
			<path id="XMLID_1778_" fill="#FFFFFF" d="M295.8,90.7c-2.2-1.2-4.4-1.3-6.6-0.3c-1.9,1-3.2,3.9-3.7,8.5v3.5h8.4v3.9h-8.4v28.4
				h-4.6V98.1c0.1-2.9,0.7-5.2,1.8-7.1c1.7-3.6,4.5-5.4,8.2-5.5c1.9-0.4,4,0,6.3,1.4C296.9,87.8,296.4,89.1,295.8,90.7z"/>
			<path id="XMLID_1774_" fill="#FFFFFF" d="M318.4,97.7c5.4,0,9.9,2,13.5,5.9c3.3,3.6,4.9,7.8,4.9,12.7c0,12.2,0,18.3,0,18.5
				c-2.1,0-3.6,0-4.8,0c0-0.1,0-2.8,0-8c-2.5,4.7-7.1,7.3-13.6,7.8c-5.4,0-9.8-1.8-13.2-5.5c-3.4-3.7-5.1-8-5.1-12.9
				c0-4.9,1.6-9.1,4.8-12.7C308.5,99.7,313,97.7,318.4,97.7z M318.4,102.1c-3.7,0-7,1.4-9.7,4.2c-2.7,2.8-4,6.1-4,10.1
				c0,2.5,0.6,4.9,1.8,7.1c1.2,2.2,2.9,3.9,5,5.1c2.1,1.2,4.4,1.8,6.9,1.8c8-0.8,12.5-5.5,13.5-14c0-3.9-1.3-7.3-4-10.1
				C325.3,103.5,322.1,102.1,318.4,102.1z"/>
			<path id="XMLID_1772_" fill="#FFFFFF" d="M360.7,102.4l-2.9,3c-2.4-2.4-4.8-3.5-7.1-3.5c-1.5,0-2.7,0.5-3.8,1.4
				c-1,1-1.6,2.1-1.6,3.4c0,1.1,0.4,2.2,1.3,3.2c0.9,1.1,2.7,2.3,5.4,3.8c3.4,1.7,5.7,3.4,6.9,5c1.2,1.6,1.8,3.5,1.8,5.6
				c0,2.9-1,5.3-3,7.3c-2,2-4.6,3-7.6,3c-2,0-4-0.4-5.8-1.3c-1.9-0.9-3.4-2.1-4.6-3.6l2.9-3.2c2.3,2.6,4.8,3.9,7.4,3.9
				c1.8,0,3.3-0.6,4.6-1.8c1.3-1.2,1.9-2.5,1.9-4.1c0-1.3-0.4-2.5-1.3-3.5c-0.8-1-2.7-2.3-5.7-3.8c-3.2-1.6-5.4-3.2-6.5-4.8
				c-1.2-1.6-1.7-3.4-1.7-5.5c0-2.7,0.9-4.9,2.7-6.7c1.8-1.8,4.1-2.7,6.9-2.7C354.1,97.7,357.4,99.3,360.7,102.4z"/>
			<path id="XMLID_1769_" fill="#FFFFFF" d="M382.7,97.7c5.4,0,9.9,2,13.5,5.9c3.3,3.6,4.9,7.8,4.9,12.7c0,12.2,0,18.3,0,18.5
				c-2.1,0-3.7,0-4.8,0c0-0.1,0-2.8,0-8c-2.5,4.7-7.1,7.3-13.6,7.8c-5.4,0-9.8-1.8-13.2-5.5c-3.4-3.7-5.1-8-5.1-12.9
				c0-4.9,1.6-9.1,4.8-12.7C372.8,99.7,377.3,97.7,382.7,97.7z M382.7,102.1c-3.7,0-7,1.4-9.7,4.2c-2.7,2.8-4,6.1-4,10.1
				c0,2.5,0.6,4.9,1.8,7.1c1.2,2.2,2.9,3.9,5,5.1c2.1,1.2,4.4,1.8,6.9,1.8c8-0.8,12.5-5.5,13.5-14c0-3.9-1.3-7.3-3.9-10.1
				C389.6,103.5,386.4,102.1,382.7,102.1z"/>
		</g>
		<g id="XMLID_1606_">
			<path id="XMLID_1767_" fill="#FFFFFF" d="M53.3,52.7c-0.1,0.1-0.2,0.2-0.3,0.3c0.3-0.3,0.6-0.6,0.9-0.9
				C53.7,52.3,53.5,52.5,53.3,52.7z"/>
			<path id="XMLID_1766_" fill="#FFFFFF" d="M67.6,42.8c-0.3,0.1-0.6,0.3-0.9,0.4c0.4-0.2,0.8-0.4,1.3-0.6
				C67.9,42.7,67.8,42.8,67.6,42.8z"/>
			<path id="XMLID_1765_" fill="#FFFFFF" d="M119,46.9c0.7,0,1.5-0.1,2.2-0.2C120.5,46.8,119.8,46.9,119,46.9z"/>
			<path id="XMLID_1764_" fill="#FFFFFF" d="M138,32C138,32,138,32,138,32L138,32L138,32c0-0.2,0.1-0.3,0.1-0.4c0,0,0,0,0-0.1
				c-0.1,0.6-0.3,1.2-0.5,1.7c0-0.1,0.1-0.2,0.1-0.2C137.8,32.7,137.9,32.3,138,32z"/>
			<path id="XMLID_1763_" fill="#FFFFFF" d="M43.8,67.2c-0.1,0.2-0.1,0.4-0.2,0.6c0.2-0.4,0.3-0.8,0.5-1.2
				C44,66.8,43.9,67,43.8,67.2z"/>
			<path id="XMLID_1762_" fill="#FFFFFF" d="M123.4,46.3c-0.5,0.1-1,0.2-1.5,0.3C122.3,46.5,122.8,46.5,123.4,46.3
				C123.4,46.3,123.4,46.3,123.4,46.3z"/>
			<path id="XMLID_1761_" fill="#FFFFFF" d="M127.5,44.8c-0.4,0.2-0.8,0.3-1.1,0.5c0.3-0.1,0.7-0.3,1-0.4
				C127.4,44.9,127.4,44.8,127.5,44.8z"/>
			<path id="XMLID_1760_" fill="#FFFFFF" d="M134.1,39.7C134.1,39.6,134.1,39.6,134.1,39.7c0.1-0.1,0.1-0.2,0.2-0.2
				c0,0,0.1-0.1,0.1-0.1c-0.3,0.4-0.6,0.7-0.9,1C133.6,40.2,133.8,40,134.1,39.7C134,39.7,134.1,39.7,134.1,39.7z"/>
			<path id="XMLID_1759_" fill="#FFFFFF" d="M136.3,36.4c0-0.1,0.1-0.2,0.1-0.2c0-0.1,0.1-0.2,0.1-0.2c0.1-0.2,0.2-0.3,0.2-0.5
				c0-0.1,0.1-0.1,0.1-0.2c0,0,0-0.1,0-0.1c-0.3,0.6-0.5,1.1-0.8,1.7c0-0.1,0.1-0.2,0.1-0.2C136.2,36.6,136.2,36.5,136.3,36.4z"/>
			<path id="XMLID_1758_" fill="#FFFFFF" d="M137.4,34c0-0.1,0-0.2,0.1-0.2c0,0,0-0.1,0-0.1c0-0.1,0-0.1,0-0.2l0,0
				c-0.2,0.5-0.4,1.1-0.6,1.6c0,0,0-0.1,0-0.1C137.1,34.7,137.2,34.3,137.4,34z"/>
			<path id="XMLID_1757_" fill="#FFFFFF" d="M131.1,42.5c-0.3,0.2-0.6,0.5-1,0.7c0.3-0.2,0.5-0.4,0.8-0.6
				C131,42.6,131.1,42.6,131.1,42.5z"/>
			<path id="XMLID_1756_" fill="#FFFFFF" d="M149.7,129.5C149.7,129.5,149.6,129.4,149.7,129.5c0.1,0.2,0.1,0.4,0.2,0.6
				C149.8,129.9,149.7,129.7,149.7,129.5z"/>
			<path id="XMLID_1755_" fill="#FFFFFF" d="M127.9,88.8c0-0.3,0.1-0.5,0.1-0.8c0,0,0,0,0,0C128,88.3,127.9,88.6,127.9,88.8z"/>
			<g id="XMLID_1617_">
				<polygon id="XMLID_1754_" opacity="0.54" fill="#FFFFFF" points="56.9,98.3 86.8,56.9 86.8,115.1 				"/>
				<g id="XMLID_1618_">
					<polygon id="XMLID_1753_" opacity="0.4" fill="#FFFFFF" points="86.8,80.1 98.7,73.4 96.5,70.3 86.8,75.8 					"/>
					<polygon id="XMLID_1752_" opacity="0.4" fill="#FFFFFF" points="86.8,94.1 105.9,83.3 103.7,80.2 86.8,89.8 					"/>
					<polygon id="XMLID_1751_" opacity="0.4" fill="#FFFFFF" points="86.8,73.2 95.2,68.4 93,65.4 86.8,68.9 					"/>
					<polygon id="XMLID_1624_" opacity="0.4" fill="#FFFFFF" points="86.8,108.1 113.1,93.2 110.8,90.2 86.8,103.8 					"/>
					<polygon id="XMLID_1623_" opacity="0.4" fill="#FFFFFF" points="86.8,87.1 102.3,78.3 100.1,75.3 86.8,82.8 					"/>
					<polygon id="XMLID_1622_" opacity="0.4" fill="#FFFFFF" points="86.8,101.1 109.5,88.3 107.3,85.2 86.8,96.8 					"/>
					<polygon id="XMLID_1621_" opacity="0.4" fill="#FFFFFF" points="86.8,115 116.6,98.2 114.4,95.1 86.8,110.7 					"/>
					<polygon id="XMLID_1620_" opacity="0.4" fill="#FFFFFF" points="86.8,56.9 86.8,59.2 88,58.6 					"/>
					<polygon id="XMLID_1619_" opacity="0.4" fill="#FFFFFF" points="89.4,60.4 86.8,61.9 86.8,66.2 91.6,63.5 					"/>
				</g>
			</g>
			<g id="XMLID_1607_">
				<path id="XMLID_1616_" opacity="0.7" fill="#FFFFFF" d="M69,125.6c-5.4-2.2-10.2-5.3-14.4-9.2c-4.3-4-7.7-8.8-10.2-14.2
					c-0.4-0.9-0.8-1.8-1.1-2.6c-0.7-1.8-1.2-3.6-1.7-5.5c-0.1-0.4-0.2-0.9-0.3-1.3c-0.1-0.3-0.1-0.6-0.2-0.9c-0.1-0.5-0.2-1-0.2-1.5
					c0-0.3-0.1-0.6-0.1-0.9c-0.1-0.5-0.1-1.1-0.2-1.7c0-0.2-0.1-0.5-0.1-0.7c-0.1-0.8-0.1-1.6-0.1-2.4c0-0.2,0-0.4,0-0.6
					c0-0.2,0-0.4,0-0.6c0-0.6,0-1.2,0.1-1.8c0-0.3,0-0.6,0.1-0.9c0-0.6,0.1-1.2,0.2-1.9c0-0.3,0.1-0.5,0.1-0.8
					c0.1-0.9,0.2-1.7,0.4-2.5c0-0.1,0-0.2,0.1-0.3c0.1-0.7,0.3-1.5,0.5-2.2c0-0.1,0-0.2,0.1-0.2c0.1-0.2,0.1-0.5,0.2-0.7
					c0.1-0.4,0.2-0.9,0.4-1.3c0.1-0.3,0.2-0.6,0.3-1c0.1-0.4,0.3-0.8,0.4-1.2c0.1-0.3,0.2-0.6,0.4-1c0.1-0.2,0.1-0.4,0.2-0.6
					c0.1-0.2,0.2-0.4,0.3-0.7c0.1-0.3,0.3-0.6,0.4-0.9c0.2-0.4,0.4-0.8,0.6-1.2c0.1-0.2,0.2-0.4,0.3-0.6c0-0.1,0.1-0.2,0.1-0.3
					c0.3-0.6,0.6-1.1,0.9-1.7c0.1-0.2,0.2-0.3,0.3-0.5c0.4-0.7,0.8-1.4,1.3-2.1c0.1-0.2,0.2-0.3,0.3-0.5c0.3-0.5,0.7-1,1.1-1.5
					c0.2-0.2,0.3-0.5,0.5-0.7c0.3-0.4,0.7-0.8,1-1.2c0.1-0.1,0.2-0.2,0.3-0.4c0.1-0.1,0.2-0.2,0.3-0.4c0.3-0.3,0.6-0.6,0.9-0.9
					c0.2-0.2,0.5-0.5,0.7-0.7c0.1-0.1,0.2-0.2,0.3-0.3c0.2-0.2,0.4-0.4,0.6-0.6c0.2-0.2,0.5-0.5,0.7-0.7c0.3-0.3,0.7-0.6,1-0.9
					c0.2-0.2,0.5-0.4,0.7-0.6c0.4-0.3,0.8-0.6,1.2-1c0.2-0.2,0.4-0.3,0.6-0.5c0.6-0.5,1.2-0.9,1.8-1.3c0,0,0,0,0,0
					c0.6-0.4,1.3-0.9,1.9-1.3c0.2-0.1,0.4-0.2,0.6-0.3c0.5-0.3,0.9-0.6,1.4-0.8c0.2-0.1,0.5-0.3,0.8-0.4c0.4-0.2,0.9-0.5,1.3-0.7
					c0.3-0.1,0.6-0.3,0.8-0.4c0.3-0.1,0.6-0.3,0.9-0.4c0.1-0.1,0.3-0.1,0.4-0.2c0.3-0.1,0.6-0.2,0.9-0.4c0.4-0.2,0.8-0.3,1.3-0.5
					c0.3-0.1,0.6-0.2,0.9-0.3c0.4-0.2,0.9-0.3,1.3-0.4c0.3-0.1,0.6-0.2,1-0.3c0.4-0.1,0.9-0.2,1.3-0.4c0.3-0.1,0.6-0.2,1-0.2
					c0.5-0.1,0.9-0.2,1.4-0.3c0.3-0.1,0.7-0.1,1-0.2c0.5-0.1,1-0.2,1.4-0.2c0.3,0,0.6-0.1,0.9-0.1c0.5-0.1,1.1-0.1,1.6-0.2
					c0.3,0,0.5-0.1,0.8-0.1c0.8-0.1,1.6-0.1,2.5-0.1c2.1-0.1,4.1,0,6.1,0.2c2,0.2,4,0.6,6,1c2,0.5,3.9,1.1,5.8,1.8
					c1.9,0.7,3.7,1.6,5.5,2.5c0.8,0.4,1.6,0.8,2.4,1.1c0.8,0.3,1.7,0.6,2.6,0.8c0.9,0.2,1.8,0.4,2.6,0.5c0.9,0.1,1.8,0.1,2.7,0.1
					c0.7,0,1.5-0.1,2.2-0.2c0.2,0,0.4-0.1,0.6-0.1c0.5-0.1,1-0.2,1.5-0.3c0,0,0,0,0.1,0c0.3-0.1,0.5-0.2,0.8-0.2
					c0.4-0.1,0.8-0.2,1.2-0.4c0.3-0.1,0.6-0.2,0.9-0.4c0.4-0.2,0.8-0.3,1.1-0.5c0,0,0.1,0,0.1,0c0.2-0.1,0.5-0.3,0.7-0.4
					c0.4-0.2,0.7-0.4,1.1-0.6c0.3-0.2,0.5-0.4,0.8-0.5c0.3-0.2,0.6-0.4,1-0.7c0.1,0,0.1-0.1,0.2-0.1c0.2-0.2,0.4-0.4,0.6-0.5
					c0.3-0.3,0.6-0.5,0.9-0.8c0.2-0.2,0.5-0.5,0.7-0.7c0.3-0.3,0.6-0.7,0.9-1c0.2-0.2,0.3-0.4,0.5-0.6c0.1-0.2,0.3-0.4,0.4-0.6
					c0.1-0.2,0.3-0.4,0.4-0.6s0.3-0.4,0.4-0.7c0.3-0.5,0.6-1.1,0.8-1.7c0,0,0-0.1,0.1-0.1c0.2-0.5,0.4-1.1,0.6-1.6
					c0,0,0-0.1,0.1-0.1c0,0,0-0.1,0-0.1c0.2-0.6,0.3-1.1,0.5-1.7c0,0,0,0,0,0c0.1-0.6,0.2-1.2,0.3-1.9c0.1-1.3,0.2-2.5,0-3.8
					s-0.4-2.5-0.7-3.8c-0.4-1.2-0.9-2.4-1.5-3.6c-0.6-1.1-1.3-2.2-2.1-3.2c-0.8-1-1.7-1.9-2.7-2.7c-1-0.8-2.1-1.5-3.3-2.2
					c-3.3-1.8-6.8-3.4-10.3-4.7c-3.5-1.3-7.2-2.5-10.9-3.3c-3.7-0.9-7.4-1.5-11.2-1.9C91.9,0.1,88.1-0.1,84.3,0
					c-11.8,0.3-22.9,2.9-33,7.4C41.1,11.8,32,18.2,24.4,25.9c-5.1,5.2-9.6,11.1-13.2,17.4C24.9,99,50,118.8,69,125.6z"/>
				<path id="XMLID_1615_" opacity="0.7" fill="#FFFFFF" d="M104.9,178.3c-2.6,0.4-5.2,0.6-7.8,0.8c-2.6,0.2-5.2,0.3-7.9,0.4v12.3
					l0.4,0.2l30.6-16.6c-2.5,0.6-5,1.2-7.5,1.7C110,177.5,107.5,178,104.9,178.3z"/>
				<path id="XMLID_1614_" opacity="0.21" fill="#FFFFFF" d="M159.7,32.2c-0.7-0.9-1.3-1.8-2.1-2.7c-3.8-4.7-8.1-9-12.8-12.9
					c0.1,0.3,0.2,0.5,0.3,0.8c0.1,0.3,0.2,0.5,0.3,0.8c0.1,0.3,0.2,0.5,0.3,0.8c0.1,0.3,0.2,0.5,0.3,0.8c0.1,0.5,0.3,1,0.4,1.5
					c0,0.2,0.1,0.3,0.1,0.5c0.1,0.3,0.1,0.7,0.2,1c0,0.2,0.1,0.4,0.1,0.5c0.1,0.3,0.1,0.6,0.1,0.9c0,0.2,0,0.4,0.1,0.6
					c0,0.1,0,0.3,0,0.4c0,0.2,0,0.4,0,0.5c0,0.2,0,0.4,0,0.6c0,0.3,0,0.7,0,1c0,0.2,0,0.3,0,0.5c0,0.4,0,0.9,0,1.3
					c0,0.1,0,0.1,0,0.2c0,0.5-0.1,0.9-0.1,1.4c0,0,0,0.1,0,0.1c0,0.2,0,0.3-0.1,0.5c0,0.3-0.1,0.7-0.2,1c-0.2,1.3-0.5,2.5-0.9,3.7
					c-0.3,1-0.7,2-1.2,3c-0.3,0.7-0.7,1.4-1.1,2.1c-0.3,0.5-0.5,0.9-0.8,1.3c-0.3,0.4-0.6,0.9-0.9,1.3c-0.3,0.4-0.6,0.8-0.9,1.2
					c-0.3,0.4-0.7,0.8-1,1.2c-1.3,1.4-2.7,2.7-4.3,3.8c-0.8,0.6-1.7,1.1-2.5,1.6c-0.3,0.2-0.5,0.3-0.8,0.4c-0.5,0.3-1.1,0.6-1.6,0.9
					c-1.8,0.8-3.6,1.4-5.5,1.9c-1.9,0.4-3.9,0.7-5.9,0.8c-0.2,0-0.5,0-0.7,0c-0.2,0-0.5,0-0.7,0c-0.2,0-0.5,0-0.7,0
					c-0.2,0-0.5,0-0.7,0c1.8,1.8,3.3,3.7,4.8,5.7c1.4,2,2.6,4.2,3.7,6.5c1,2.3,1.8,4.7,2.4,7.2c0.6,2.5,0.9,5.1,1,7.8
					c0,0.6,0,1.3,0,1.9c0,0.2,0,0.4,0,0.6c0,0.4,0,0.8,0,1.2c0,0.2,0,0.5-0.1,0.7c0,0.4-0.1,0.7-0.1,1.1c0,0.3-0.1,0.5-0.1,0.8
					c-0.1,0.5-0.1,0.9-0.2,1.4c-0.2,1.5-0.6,3-1,4.5c-0.3,1-0.6,1.9-0.9,2.8c-0.9,2.4-1.9,4.6-3.2,6.8c-0.6,1.1-1.3,2.1-2.1,3.2
					C131.2,100.2,159.3,77,159.7,32.2z"/>
				<path id="XMLID_1613_" opacity="0.4" fill="#FFFFFF" d="M177.2,81.2c-0.3-6.5-1.3-12.9-2.9-19c-1.6-6.1-3.9-11.9-6.7-17.3
					c-2.3-4.5-5-8.7-7.9-12.6c-0.3,44.8-28.5,68-39.2,75.3c-0.7,1-1.5,2-2.3,2.9c0.3,0,0.5-0.1,0.8-0.1c0.3,0,0.5-0.1,0.8-0.1
					c0.3,0,0.5,0,0.8-0.1c0.3,0,0.5,0,0.8,0c2-0.1,4,0.1,5.9,0.5c1.9,0.3,3.8,0.9,5.7,1.6c1.8,0.7,3.6,1.6,5.2,2.7
					c1.6,1.1,3.2,2.3,4.6,3.7c0.4,0.4,0.7,0.7,1.1,1.1c0.4,0.4,0.7,0.8,1,1.2c0.3,0.4,0.7,0.8,1,1.2c0.3,0.4,0.6,0.9,0.9,1.3
					c0.3,0.5,0.6,1,0.9,1.5c0.1,0.2,0.2,0.3,0.2,0.5c0.2,0.3,0.4,0.7,0.5,1c0.1,0.2,0.2,0.4,0.3,0.6c0.1,0.3,0.3,0.6,0.4,0.9
					c0.1,0.2,0.2,0.4,0.3,0.7c0.1,0.3,0.2,0.6,0.3,0.9c0,0,0,0.1,0,0.1c0.1,0.2,0.1,0.4,0.2,0.6c0.1,0.3,0.2,0.6,0.3,0.9
					c0.1,0.2,0.1,0.5,0.2,0.7c0.1,0.3,0.2,0.6,0.2,0.8c0.1,0.2,0.1,0.5,0.2,0.7c0.1,0.3,0.1,0.6,0.2,0.9c0,0.2,0.1,0.5,0.1,0.7
					c0,0.3,0.1,0.6,0.1,0.9c0,0.1,0,0.1,0,0.2c0,0.2,0,0.4,0,0.6c0,0.3,0.1,0.6,0.1,0.9c0,0.2,0,0.5,0,0.7c0,0.3,0,0.6,0,0.9
					c0,0.2,0,0.5,0,0.7c0,0.3,0,0.6,0,0.8c0,0.3,0,0.5-0.1,0.8c0,0.3,0,0.5-0.1,0.8c0,0.1,0,0.2,0,0.2c0,0.2-0.1,0.4-0.1,0.5
					c0,0.3-0.1,0.5-0.1,0.8c0,0.2-0.1,0.5-0.1,0.7c-0.1,0.3-0.1,0.5-0.2,0.8c-0.1,0.2-0.1,0.5-0.2,0.7c-0.1,0.3-0.1,0.5-0.2,0.8
					c-0.1,0.2-0.1,0.5-0.2,0.7c-0.1,0.4-0.2,0.7-0.3,1.1c0,0,0,0,0,0c0,0,0,0,0,0c1-1,2-1.9,2.9-2.9c0.1-0.1,0.3-0.3,0.4-0.4
					c0.9-1,1.9-2,2.8-3.1c0.1-0.2,0.3-0.3,0.4-0.5c0.6-0.7,1.1-1.3,1.6-2c0.5-0.6,0.9-1.2,1.4-1.8c0.6-0.7,1.1-1.5,1.6-2.3
					c0.3-0.4,0.5-0.7,0.8-1.1c0.1-0.2,0.2-0.4,0.4-0.6c0.7-1,1.3-2,1.9-3c0.1-0.2,0.2-0.4,0.4-0.6c0.7-1.1,1.4-2.3,2-3.5
					c0.1-0.2,0.2-0.4,0.4-0.7c0.6-1.2,1.3-2.4,1.9-3.6c0-0.1,0.1-0.2,0.1-0.3c0.6-1.3,1.2-2.6,1.7-3.9c0-0.1,0.1-0.1,0.1-0.2
					c0-0.1,0-0.1,0.1-0.2c2.3-5.7,4.1-11.6,5.2-17.8C177,94.1,177.4,87.7,177.2,81.2z"/>
				<path id="XMLID_1612_" fill="#FFFFFF" d="M140.9,147c0.1-0.3,0.2-0.6,0.4-0.9c0,0,0,0,0-0.1c0,0,0-0.1,0-0.1
					c0.1-0.2,0.2-0.5,0.3-0.7C141.4,145.8,141.2,146.4,140.9,147C140.9,147,140.9,147,140.9,147z"/>
				<path id="XMLID_1611_" fill="#FFFFFF" d="M140.5,147.8c0,0,0-0.1,0.1-0.1c0,0,0,0,0,0c0,0,0-0.1,0-0.1c0.1-0.2,0.2-0.4,0.3-0.6
					c-0.2,0.5-0.5,1.1-0.8,1.6C140.3,148.4,140.4,148.1,140.5,147.8z"/>
				<path id="XMLID_1610_" fill="#FFFFFF" d="M62.5,166.2c1.2,0.3,2.5,0.7,3.7,1C65,166.9,63.8,166.6,62.5,166.2
					C62.5,166.2,62.5,166.2,62.5,166.2z"/>
				<path id="XMLID_1609_" opacity="0.54" fill="#FFFFFF" d="M0,85.8c0.1,11.7,2.7,22.8,7.2,32.9c0.5,1.2,1.1,2.3,1.6,3.4
					c0.2,0.3,0.3,0.6,0.5,1c0.4,0.8,0.9,1.6,1.3,2.4c0.2,0.3,0.4,0.7,0.6,1c0.6,1,1.2,2,1.8,2.9c0.1,0.1,0.1,0.2,0.2,0.3
					c0.7,1,1.4,2.1,2.1,3.1c0.2,0.3,0.4,0.6,0.7,0.9c0.5,0.7,1.1,1.5,1.6,2.2c0.2,0.3,0.5,0.6,0.7,0.9c0.7,0.9,1.4,1.8,2.2,2.7
					c0.1,0.1,0.1,0.1,0.2,0.2c0.8,0.9,1.6,1.8,2.5,2.7c0.3,0.3,0.5,0.5,0.8,0.8c0.6,0.7,1.3,1.3,2,2c0.3,0.3,0.5,0.5,0.8,0.8
					c0.9,0.8,1.7,1.6,2.6,2.4c0,0,0.1,0.1,0.1,0.1c0.9,0.8,1.9,1.6,2.9,2.4c0.3,0.2,0.6,0.4,0.9,0.7c0.7,0.6,1.5,1.1,2.2,1.6
					c0.3,0.2,0.6,0.4,0.9,0.7c1,0.7,1.9,1.3,2.9,2c0.1,0,0.1,0.1,0.2,0.1c1.1,0.7,2.1,1.3,3.2,1.9c0.3,0.2,0.7,0.4,1,0.6
					c0.8,0.5,1.6,0.9,2.5,1.3c0.3,0.2,0.7,0.3,1,0.5c1.1,0.6,2.2,1.1,3.4,1.6c0,0,0,0,0.1,0c1.2,0.5,2.3,1,3.5,1.5
					c0.3,0.1,0.7,0.3,1,0.4c0.9,0.3,1.8,0.7,2.7,1c0.4,0.1,0.7,0.2,1.1,0.4c1.2,0.4,2.4,0.8,3.6,1.1c0,0,0,0,0.1,0
					c1.2,0.3,2.5,0.7,3.7,1c0.4,0.1,0.8,0.2,1.2,0.3c0.9,0.2,1.8,0.4,2.8,0.6c0.4,0.1,0.8,0.2,1.2,0.2c1.2,0.2,2.5,0.4,3.7,0.6
					c0.1,0,0.2,0,0.3,0c1.3,0.2,2.5,0.3,3.8,0.4c0.4,0,0.8,0.1,1.2,0.1c1,0.1,1.9,0.1,2.9,0.1c0.4,0,0.8,0,1.2,0c1.3,0,2.7,0,4,0
					c4-0.1,7.9-0.5,11.8-1.1c3.9-0.6,7.7-1.5,11.5-2.6c3.7-1.1,7.4-2.5,11-4.1c3.6-1.6,7-3.5,10.3-5.6c0.6-0.4,1.1-0.8,1.6-1.2
					c0.1-0.1,0.2-0.2,0.3-0.3c0,0,0,0,0.1-0.1c0.4-0.3,0.8-0.6,1.1-1c0.1-0.1,0.1-0.1,0.2-0.2c0,0,0.1-0.1,0.1-0.1
					c0.4-0.4,0.7-0.7,1-1.1c0,0,0,0,0.1-0.1c0-0.1,0.1-0.1,0.1-0.2c0.4-0.4,0.7-0.9,1-1.4c0.1-0.1,0.1-0.2,0.2-0.3
					c0.3-0.5,0.6-1,0.9-1.5c0-0.1,0.1-0.1,0.1-0.2c0.3-0.5,0.6-1.1,0.8-1.6c0,0,0,0,0,0c0.3-0.6,0.5-1.2,0.7-1.8c0,0,0,0,0,0l0,0
					c0,0,0,0,0,0c0.2-0.6,0.4-1.2,0.5-1.9c0.6-2.5,0.6-5.2,0.2-7.8c-0.5-2.6-1.4-5.1-3-7.5c-0.1-0.2-0.3-0.4-0.4-0.7
					c-0.2-0.2-0.3-0.4-0.5-0.6c-0.2-0.2-0.3-0.4-0.5-0.6c-0.2-0.2-0.3-0.4-0.5-0.6c-0.3-0.3-0.6-0.6-0.9-0.9
					c-0.8-0.8-1.6-1.5-2.4-2.1c-1.2-0.9-2.5-1.6-3.8-2.2c-1.4-0.6-2.8-1-4.3-1.3c-1.5-0.3-3-0.4-4.5-0.4c-0.9,0-1.8,0.1-2.7,0.3
					c-0.5,0.1-1,0.2-1.6,0.3c-0.4,0.1-0.7,0.2-1.1,0.3c-0.9,0.3-1.7,0.6-2.6,1c-0.8,0.4-1.6,0.8-2.4,1.3c-1.8,1.1-3.6,2.1-5.5,2.9
					c-1.9,0.9-3.8,1.6-5.8,2.2c-2,0.6-4,1.1-6.1,1.4c0,0-1,0.2-2.9,0.4c-1.1,0.1-2.2,0.2-3.3,0.2c-6.4,0.2-12.5-1-18.1-3.1
					c-0.2-0.1-0.4-0.2-0.6-0.2C50,118.8,24.9,99,11.2,43.3c-1.8,3.1-3.4,6.3-4.8,9.6C2.2,63-0.1,74.2,0,85.8z"/>
				<path id="XMLID_1608_" opacity="0.4" fill="#FFFFFF" d="M89.1,179.5c-2.7,0.1-5.4,0-8.1-0.1c-2.7-0.1-5.3-0.3-7.9-0.5
					c-2.6-0.3-5.2-0.6-7.7-1c-2.5-0.4-5-0.9-7.5-1.4l31.3,15.3L89.1,179.5C89.2,179.5,89.1,179.5,89.1,179.5z"/>
			</g>
		</g>
	</g>
	<g id="XMLID_1320_">
		<g id="XMLID_1543_">
			<path id="XMLID_1603_" fill="#FFFFFF" d="M191.3,63.3h7.6v1.4h-6.2V69h3.7v1.4h-3.7v6.8h-1.4V63.3z"/>
			<path id="XMLID_1577_" fill="#FFFFFF" d="M205.3,66.4c1.6,0,2.9,0.6,3.9,1.7c1,1,1.4,2.3,1.4,3.7c0,3.5,0,5.3,0,5.4
				c-0.6,0-1.1,0-1.4,0c0,0,0-0.8,0-2.3c-0.7,1.4-2.1,2.1-4,2.3c-1.6,0-2.8-0.5-3.8-1.6c-1-1.1-1.5-2.3-1.5-3.7
				c0-1.4,0.5-2.7,1.4-3.7C202.5,67,203.8,66.4,205.3,66.4z M205.3,67.7c-1.1,0-2,0.4-2.8,1.2c-0.8,0.8-1.2,1.8-1.2,2.9
				c0,0.7,0.2,1.4,0.5,2.1c0.4,0.6,0.8,1.1,1.5,1.5c0.6,0.3,1.3,0.5,2,0.5c2.3-0.2,3.6-1.6,3.9-4.1c0-1.1-0.4-2.1-1.1-2.9
				C207.4,68.1,206.4,67.7,205.3,67.7z"/>
			<path id="XMLID_1575_" fill="#FFFFFF" d="M212,72.5v-1.2c0.1-0.6,0.2-1.1,0.4-1.5c0.4-1.1,1-1.9,1.8-2.4c0.7-0.5,1.3-0.7,1.8-0.7
				c0.4,0,0.7,0.1,1.2,0.4l-0.7,1.1c-0.6-0.2-1.2,0-1.7,0.5c-0.6,0.6-1,1.2-1.2,1.8c-0.2,0.6-0.2,1.7-0.2,3.3v3.5H212V72.5z"/>
			<path id="XMLID_1573_" fill="#FFFFFF" d="M217.5,73.2v-1.6c0.1-1.4,0.4-2.4,0.9-3.1c0.4-0.6,0.9-1.1,1.5-1.4
				c0.7-0.4,1.5-0.5,2.4-0.4c0.5,0,0.9,0.1,1.3,0.3c0.4,0.2,0.7,0.4,1,0.8c0.3,0.3,0.5,0.8,0.7,1.4c0.3-0.8,0.7-1.4,1.4-1.8
				c0.7-0.4,1.5-0.6,2.5-0.6c0.7,0,1.3,0.2,1.9,0.5c0.5,0.4,0.9,0.9,1.2,1.5c0.3,0.6,0.4,1.6,0.4,2.9v5.6h-1.3v-5.6
				c0-1.1-0.1-1.8-0.2-2.3c-0.2-0.4-0.4-0.7-0.8-1c-0.4-0.3-0.8-0.4-1.4-0.4c-1,0.1-1.8,0.6-2.4,1.5c-0.3,0.4-0.5,1.2-0.6,2.6v5.2
				h-1.3v-5.2c0-1.2-0.1-2.1-0.4-2.5c-0.3-0.4-0.6-0.8-1-1.1c-0.4-0.3-0.8-0.4-1.2-0.4c-0.6,0-1.2,0.2-1.8,0.5
				c-0.6,0.3-1,0.8-1.2,1.4c-0.2,0.6-0.3,1.6-0.3,3v4.3h-1.3V73.2z"/>
			<path id="XMLID_1570_" fill="#FFFFFF" d="M239.6,66.4c1.6,0,2.9,0.6,3.9,1.7c1,1,1.4,2.3,1.4,3.7c0,3.5,0,5.3,0,5.4
				c-0.6,0-1.1,0-1.4,0c0,0,0-0.8,0-2.3c-0.7,1.4-2.1,2.1-4,2.3c-1.6,0-2.8-0.5-3.8-1.6c-1-1.1-1.5-2.3-1.5-3.7
				c0-1.4,0.5-2.7,1.4-3.7C236.8,67,238.1,66.4,239.6,66.4z M239.6,67.7c-1.1,0-2,0.4-2.8,1.2c-0.8,0.8-1.2,1.8-1.2,2.9
				c0,0.7,0.2,1.4,0.5,2.1c0.4,0.6,0.8,1.1,1.5,1.5c0.6,0.3,1.3,0.5,2,0.5c2.3-0.2,3.6-1.6,3.9-4.1c0-1.1-0.4-2.1-1.1-2.9
				C241.7,68.1,240.7,67.7,239.6,67.7z"/>
			<path id="XMLID_1554_" fill="#FFFFFF" d="M256.7,68.8l-1,0.7c-0.9-1.2-2.1-1.8-3.7-1.8c-1.3,0-2.3,0.4-3.1,1.2
				c-0.8,0.8-1.2,1.8-1.2,2.9c0,0.7,0.2,1.5,0.6,2.1c0.4,0.7,0.9,1.2,1.6,1.5c0.7,0.4,1.4,0.5,2.2,0.5c1.5,0,2.7-0.6,3.7-1.8l1,0.7
				c-0.5,0.7-1.2,1.3-2,1.7c-0.8,0.4-1.8,0.6-2.8,0.6c-1.6,0-3-0.5-4-1.5c-1.1-1-1.6-2.3-1.6-3.7c0-1,0.3-1.9,0.8-2.8
				c0.5-0.8,1.2-1.5,2.1-2c0.9-0.5,1.8-0.7,2.9-0.7c0.7,0,1.3,0.1,2,0.3c0.6,0.2,1.2,0.5,1.6,0.8C256,67.9,256.4,68.3,256.7,68.8z"
				/>
			<path id="XMLID_1551_" fill="#FFFFFF" d="M258.9,62.7c0.3,0,0.6,0.1,0.8,0.3c0.2,0.2,0.3,0.5,0.3,0.8c0,0.3-0.1,0.6-0.3,0.8
				c-0.2,0.2-0.5,0.3-0.8,0.3c-0.3,0-0.6-0.1-0.8-0.3c-0.2-0.2-0.3-0.5-0.3-0.8c0-0.3,0.1-0.6,0.3-0.8
				C258.4,62.8,258.6,62.7,258.9,62.7z M258.3,66.9h1.3v10.2h-1.3V66.9z"/>
			<path id="XMLID_1547_" fill="#FFFFFF" d="M266.4,66.4c1.6,0,2.9,0.6,3.9,1.7c1,1,1.4,2.3,1.4,3.7c0,3.5,0,5.3,0,5.4
				c-0.6,0-1.1,0-1.4,0c0,0,0-0.8,0-2.3c-0.7,1.4-2.1,2.1-4,2.3c-1.6,0-2.8-0.5-3.8-1.6c-1-1.1-1.5-2.3-1.5-3.7
				c0-1.4,0.5-2.7,1.4-3.7C263.5,67,264.8,66.4,266.4,66.4z M266.4,67.7c-1.1,0-2,0.4-2.8,1.2c-0.8,0.8-1.2,1.8-1.2,2.9
				c0,0.7,0.2,1.4,0.5,2.1c0.4,0.6,0.8,1.1,1.5,1.5c0.6,0.3,1.3,0.5,2,0.5c2.3-0.2,3.6-1.6,3.9-4.1c0-1.1-0.4-2.1-1.1-2.9
				C268.4,68.1,267.5,67.7,266.4,67.7z"/>
			<path id="XMLID_1544_" fill="#FFFFFF" d="M278.7,67.8l-0.8,0.9c-0.7-0.7-1.4-1-2.1-1c-0.4,0-0.8,0.1-1.1,0.4
				c-0.3,0.3-0.5,0.6-0.5,1c0,0.3,0.1,0.6,0.4,0.9c0.2,0.3,0.8,0.7,1.6,1.1c1,0.5,1.6,1,2,1.5c0.3,0.5,0.5,1,0.5,1.6
				c0,0.8-0.3,1.5-0.9,2.1c-0.6,0.6-1.3,0.9-2.2,0.9c-0.6,0-1.2-0.1-1.7-0.4c-0.5-0.3-1-0.6-1.3-1.1l0.8-0.9
				c0.7,0.8,1.4,1.1,2.1,1.1c0.5,0,1-0.2,1.3-0.5c0.4-0.3,0.6-0.7,0.6-1.2c0-0.4-0.1-0.7-0.4-1c-0.2-0.3-0.8-0.7-1.7-1.1
				c-0.9-0.5-1.6-0.9-1.9-1.4c-0.3-0.5-0.5-1-0.5-1.6c0-0.8,0.3-1.4,0.8-1.9c0.5-0.5,1.2-0.8,2-0.8
				C276.8,66.4,277.7,66.9,278.7,67.8z"/>
		</g>
		<g id="XMLID_1526_">
			<path id="XMLID_1541_" fill="#FFFFFF" d="M236.1,96.1l-3.8,2.8c-2.1-2.7-4.5-4.7-7.4-6.1c-2.9-1.4-6.1-2.1-9.6-2.1
				c-3.8,0-7.3,0.9-10.6,2.7c-3.2,1.8-5.7,4.3-7.5,7.3c-1.8,3.1-2.7,6.5-2.7,10.4c0,5.8,2,10.5,6,14c4,3.5,9,5.3,15.1,5.3
				c6.7,0,12.3-2.6,16.7-7.8l3.8,2.9c-2.4,3-5.3,5.4-8.9,7c-3.6,1.6-7.5,2.5-11.9,2.5c-8.4,0-14.9-2.8-19.8-8.3c-4-4.7-6-10-6-15.9
				c0-7,2.4-12.8,7.3-17.6c4.9-4.8,11-7.2,18.4-7.2c4.5,0,8.5,0.9,12.1,2.6C230.9,90.4,233.8,92.9,236.1,96.1z"/>
			<path id="XMLID_1538_" fill="#FFFFFF" d="M258.9,97.7c5.4,0,9.9,2,13.5,5.9c3.2,3.6,4.8,7.8,4.8,12.7c0,4.9-1.7,9.2-5.1,12.9
				c-3.4,3.7-7.8,5.5-13.2,5.5c-5.4,0-9.8-1.8-13.2-5.5c-3.4-3.7-5.1-8-5.1-12.9c0-4.9,1.6-9.1,4.9-12.7
				C249,99.7,253.5,97.7,258.9,97.7z M258.9,102.1c-3.7,0-7,1.4-9.7,4.2c-2.7,2.8-4,6.1-4,10.1c0,2.5,0.6,4.9,1.8,7.1
				c1.2,2.2,2.9,3.9,5,5.1c2.1,1.2,4.4,1.8,6.9,1.8c2.5,0,4.8-0.6,6.9-1.8c2.1-1.2,3.7-2.9,5-5.1c1.2-2.2,1.8-4.6,1.8-7.1
				c0-3.9-1.3-7.3-4-10.1C265.8,103.5,262.6,102.1,258.9,102.1z"/>
			<path id="XMLID_1536_" fill="#FFFFFF" d="M295.8,90.7c-2.2-1.2-4.4-1.3-6.6-0.3c-1.9,1-3.2,3.9-3.7,8.5v3.5h8.4v3.9h-8.4v28.4
				h-4.6V98.1c0.1-2.9,0.7-5.2,1.8-7.1c1.7-3.6,4.5-5.4,8.2-5.5c1.9-0.4,4,0,6.3,1.4C296.9,87.8,296.4,89.1,295.8,90.7z"/>
			<path id="XMLID_1533_" fill="#FFFFFF" d="M318.4,97.7c5.4,0,9.9,2,13.5,5.9c3.3,3.6,4.9,7.8,4.9,12.7c0,12.2,0,18.3,0,18.5
				c-2.1,0-3.6,0-4.8,0c0-0.1,0-2.8,0-8c-2.5,4.7-7.1,7.3-13.6,7.8c-5.4,0-9.8-1.8-13.2-5.5c-3.4-3.7-5.1-8-5.1-12.9
				c0-4.9,1.6-9.1,4.8-12.7C308.5,99.7,313,97.7,318.4,97.7z M318.4,102.1c-3.7,0-7,1.4-9.7,4.2c-2.7,2.8-4,6.1-4,10.1
				c0,2.5,0.6,4.9,1.8,7.1c1.2,2.2,2.9,3.9,5,5.1c2.1,1.2,4.4,1.8,6.9,1.8c8-0.8,12.5-5.5,13.5-14c0-3.9-1.3-7.3-4-10.1
				C325.3,103.5,322.1,102.1,318.4,102.1z"/>
			<path id="XMLID_1531_" fill="#FFFFFF" d="M360.7,102.4l-2.9,3c-2.4-2.4-4.8-3.5-7.1-3.5c-1.5,0-2.7,0.5-3.8,1.4
				c-1,1-1.6,2.1-1.6,3.4c0,1.1,0.4,2.2,1.3,3.2c0.9,1.1,2.7,2.3,5.4,3.8c3.4,1.7,5.7,3.4,6.9,5c1.2,1.6,1.8,3.5,1.8,5.6
				c0,2.9-1,5.3-3,7.3c-2,2-4.6,3-7.6,3c-2,0-4-0.4-5.8-1.3c-1.9-0.9-3.4-2.1-4.6-3.6l2.9-3.2c2.3,2.6,4.8,3.9,7.4,3.9
				c1.8,0,3.3-0.6,4.6-1.8c1.3-1.2,1.9-2.5,1.9-4.1c0-1.3-0.4-2.5-1.3-3.5c-0.8-1-2.7-2.3-5.7-3.8c-3.2-1.6-5.4-3.2-6.5-4.8
				c-1.2-1.6-1.7-3.4-1.7-5.5c0-2.7,0.9-4.9,2.7-6.7c1.8-1.8,4.1-2.7,6.9-2.7C354.1,97.7,357.4,99.3,360.7,102.4z"/>
			<path id="XMLID_1528_" fill="#FFFFFF" d="M382.7,97.7c5.4,0,9.9,2,13.5,5.9c3.3,3.6,4.9,7.8,4.9,12.7c0,12.2,0,18.3,0,18.5
				c-2.1,0-3.7,0-4.8,0c0-0.1,0-2.8,0-8c-2.5,4.7-7.1,7.3-13.6,7.8c-5.4,0-9.8-1.8-13.2-5.5c-3.4-3.7-5.1-8-5.1-12.9
				c0-4.9,1.6-9.1,4.8-12.7C372.8,99.7,377.3,97.7,382.7,97.7z M382.7,102.1c-3.7,0-7,1.4-9.7,4.2c-2.7,2.8-4,6.1-4,10.1
				c0,2.5,0.6,4.9,1.8,7.1c1.2,2.2,2.9,3.9,5,5.1c2.1,1.2,4.4,1.8,6.9,1.8c8-0.8,12.5-5.5,13.5-14c0-3.9-1.3-7.3-3.9-10.1
				C389.6,103.5,386.4,102.1,382.7,102.1z"/>
		</g>
		<g id="XMLID_1321_">
			<path id="XMLID_1525_" fill="#FFFFFF" d="M53.3,52.7c-0.1,0.1-0.2,0.2-0.3,0.3c0.3-0.3,0.6-0.6,0.9-0.9
				C53.7,52.3,53.5,52.5,53.3,52.7z"/>
			<path id="XMLID_1524_" fill="#FFFFFF" d="M67.6,42.8c-0.3,0.1-0.6,0.3-0.9,0.4c0.4-0.2,0.8-0.4,1.3-0.6
				C67.9,42.7,67.8,42.8,67.6,42.8z"/>
			<path id="XMLID_1523_" fill="#FFFFFF" d="M119,46.9c0.7,0,1.5-0.1,2.2-0.2C120.5,46.8,119.8,46.9,119,46.9z"/>
			<path id="XMLID_1519_" fill="#FFFFFF" d="M138,32C138,32,138,32,138,32L138,32L138,32c0-0.2,0.1-0.3,0.1-0.4c0,0,0,0,0-0.1
				c-0.1,0.6-0.3,1.2-0.5,1.7c0-0.1,0.1-0.2,0.1-0.2C137.8,32.7,137.9,32.3,138,32z"/>
			<path id="XMLID_1518_" fill="#FFFFFF" d="M43.8,67.2c-0.1,0.2-0.1,0.4-0.2,0.6c0.2-0.4,0.3-0.8,0.5-1.2
				C44,66.8,43.9,67,43.8,67.2z"/>
			<path id="XMLID_1517_" fill="#FFFFFF" d="M123.4,46.3c-0.5,0.1-1,0.2-1.5,0.3C122.3,46.5,122.8,46.5,123.4,46.3
				C123.4,46.3,123.4,46.3,123.4,46.3z"/>
			<path id="XMLID_1516_" fill="#FFFFFF" d="M127.5,44.8c-0.4,0.2-0.8,0.3-1.1,0.5c0.3-0.1,0.7-0.3,1-0.4
				C127.4,44.9,127.4,44.8,127.5,44.8z"/>
			<path id="XMLID_1515_" fill="#FFFFFF" d="M134.1,39.7C134.1,39.6,134.1,39.6,134.1,39.7c0.1-0.1,0.1-0.2,0.2-0.2
				c0,0,0.1-0.1,0.1-0.1c-0.3,0.4-0.6,0.7-0.9,1C133.6,40.2,133.8,40,134.1,39.7C134,39.7,134.1,39.7,134.1,39.7z"/>
			<path id="XMLID_1514_" fill="#FFFFFF" d="M136.3,36.4c0-0.1,0.1-0.2,0.1-0.2c0-0.1,0.1-0.2,0.1-0.2c0.1-0.2,0.2-0.3,0.2-0.5
				c0-0.1,0.1-0.1,0.1-0.2c0,0,0-0.1,0-0.1c-0.3,0.6-0.5,1.1-0.8,1.7c0-0.1,0.1-0.2,0.1-0.2C136.2,36.6,136.2,36.5,136.3,36.4z"/>
			<path id="XMLID_1513_" fill="#FFFFFF" d="M137.4,34c0-0.1,0-0.2,0.1-0.2c0,0,0-0.1,0-0.1c0-0.1,0-0.1,0-0.2l0,0
				c-0.2,0.5-0.4,1.1-0.6,1.6c0,0,0-0.1,0-0.1C137.1,34.7,137.2,34.3,137.4,34z"/>
			<path id="XMLID_1512_" fill="#FFFFFF" d="M131.1,42.5c-0.3,0.2-0.6,0.5-1,0.7c0.3-0.2,0.5-0.4,0.8-0.6
				C131,42.6,131.1,42.6,131.1,42.5z"/>
			<path id="XMLID_1511_" fill="#FFFFFF" d="M149.7,129.5C149.7,129.5,149.6,129.4,149.7,129.5c0.1,0.2,0.1,0.4,0.2,0.6
				C149.8,129.9,149.7,129.7,149.7,129.5z"/>
			<path id="XMLID_1510_" fill="#FFFFFF" d="M127.9,88.8c0-0.3,0.1-0.5,0.1-0.8c0,0,0,0,0,0C128,88.3,127.9,88.6,127.9,88.8z"/>
			<g id="XMLID_1498_">
				<polygon id="XMLID_1509_" opacity="0.54" fill="#FFFFFF" points="56.9,98.3 86.8,56.9 86.8,115.1 				"/>
				<g id="XMLID_1499_">
					<polygon id="XMLID_1508_" opacity="0.4" fill="#FFFFFF" points="86.8,80.1 98.7,73.4 96.5,70.3 86.8,75.8 					"/>
					<polygon id="XMLID_1507_" opacity="0.4" fill="#FFFFFF" points="86.8,94.1 105.9,83.3 103.7,80.2 86.8,89.8 					"/>
					<polygon id="XMLID_1506_" opacity="0.4" fill="#FFFFFF" points="86.8,73.2 95.2,68.4 93,65.4 86.8,68.9 					"/>
					<polygon id="XMLID_1505_" opacity="0.4" fill="#FFFFFF" points="86.8,108.1 113.1,93.2 110.8,90.2 86.8,103.8 					"/>
					<polygon id="XMLID_1504_" opacity="0.4" fill="#FFFFFF" points="86.8,87.1 102.3,78.3 100.1,75.3 86.8,82.8 					"/>
					<polygon id="XMLID_1503_" opacity="0.4" fill="#FFFFFF" points="86.8,101.1 109.5,88.3 107.3,85.2 86.8,96.8 					"/>
					<polygon id="XMLID_1502_" opacity="0.4" fill="#FFFFFF" points="86.8,115 116.6,98.2 114.4,95.1 86.8,110.7 					"/>
					<polygon id="XMLID_1501_" opacity="0.4" fill="#FFFFFF" points="86.8,56.9 86.8,59.2 88,58.6 					"/>
					<polygon id="XMLID_1500_" opacity="0.4" fill="#FFFFFF" points="89.4,60.4 86.8,61.9 86.8,66.2 91.6,63.5 					"/>
				</g>
			</g>
			<g id="XMLID_1322_">
				<path id="XMLID_1331_" opacity="0.7" fill="#FFFFFF" d="M69,125.6c-5.4-2.2-10.2-5.3-14.4-9.2c-4.3-4-7.7-8.8-10.2-14.2
					c-0.4-0.9-0.8-1.8-1.1-2.6c-0.7-1.8-1.2-3.6-1.7-5.5c-0.1-0.4-0.2-0.9-0.3-1.3c-0.1-0.3-0.1-0.6-0.2-0.9c-0.1-0.5-0.2-1-0.2-1.5
					c0-0.3-0.1-0.6-0.1-0.9c-0.1-0.5-0.1-1.1-0.2-1.7c0-0.2-0.1-0.5-0.1-0.7c-0.1-0.8-0.1-1.6-0.1-2.4c0-0.2,0-0.4,0-0.6
					c0-0.2,0-0.4,0-0.6c0-0.6,0-1.2,0.1-1.8c0-0.3,0-0.6,0.1-0.9c0-0.6,0.1-1.2,0.2-1.9c0-0.3,0.1-0.5,0.1-0.8
					c0.1-0.9,0.2-1.7,0.4-2.5c0-0.1,0-0.2,0.1-0.3c0.1-0.7,0.3-1.5,0.5-2.2c0-0.1,0-0.2,0.1-0.2c0.1-0.2,0.1-0.5,0.2-0.7
					c0.1-0.4,0.2-0.9,0.4-1.3c0.1-0.3,0.2-0.6,0.3-1c0.1-0.4,0.3-0.8,0.4-1.2c0.1-0.3,0.2-0.6,0.4-1c0.1-0.2,0.1-0.4,0.2-0.6
					c0.1-0.2,0.2-0.4,0.3-0.7c0.1-0.3,0.3-0.6,0.4-0.9c0.2-0.4,0.4-0.8,0.6-1.2c0.1-0.2,0.2-0.4,0.3-0.6c0-0.1,0.1-0.2,0.1-0.3
					c0.3-0.6,0.6-1.1,0.9-1.7c0.1-0.2,0.2-0.3,0.3-0.5c0.4-0.7,0.8-1.4,1.3-2.1c0.1-0.2,0.2-0.3,0.3-0.5c0.3-0.5,0.7-1,1.1-1.5
					c0.2-0.2,0.3-0.5,0.5-0.7c0.3-0.4,0.7-0.8,1-1.2c0.1-0.1,0.2-0.2,0.3-0.4c0.1-0.1,0.2-0.2,0.3-0.4c0.3-0.3,0.6-0.6,0.9-0.9
					c0.2-0.2,0.5-0.5,0.7-0.7c0.1-0.1,0.2-0.2,0.3-0.3c0.2-0.2,0.4-0.4,0.6-0.6c0.2-0.2,0.5-0.5,0.7-0.7c0.3-0.3,0.7-0.6,1-0.9
					c0.2-0.2,0.5-0.4,0.7-0.6c0.4-0.3,0.8-0.6,1.2-1c0.2-0.2,0.4-0.3,0.6-0.5c0.6-0.5,1.2-0.9,1.8-1.3c0,0,0,0,0,0
					c0.6-0.4,1.3-0.9,1.9-1.3c0.2-0.1,0.4-0.2,0.6-0.3c0.5-0.3,0.9-0.6,1.4-0.8c0.2-0.1,0.5-0.3,0.8-0.4c0.4-0.2,0.9-0.5,1.3-0.7
					c0.3-0.1,0.6-0.3,0.8-0.4c0.3-0.1,0.6-0.3,0.9-0.4c0.1-0.1,0.3-0.1,0.4-0.2c0.3-0.1,0.6-0.2,0.9-0.4c0.4-0.2,0.8-0.3,1.3-0.5
					c0.3-0.1,0.6-0.2,0.9-0.3c0.4-0.2,0.9-0.3,1.3-0.4c0.3-0.1,0.6-0.2,1-0.3c0.4-0.1,0.9-0.2,1.3-0.4c0.3-0.1,0.6-0.2,1-0.2
					c0.5-0.1,0.9-0.2,1.4-0.3c0.3-0.1,0.7-0.1,1-0.2c0.5-0.1,1-0.2,1.4-0.2c0.3,0,0.6-0.1,0.9-0.1c0.5-0.1,1.1-0.1,1.6-0.2
					c0.3,0,0.5-0.1,0.8-0.1c0.8-0.1,1.6-0.1,2.5-0.1c2.1-0.1,4.1,0,6.1,0.2c2,0.2,4,0.6,6,1c2,0.5,3.9,1.1,5.8,1.8
					c1.9,0.7,3.7,1.6,5.5,2.5c0.8,0.4,1.6,0.8,2.4,1.1c0.8,0.3,1.7,0.6,2.6,0.8c0.9,0.2,1.8,0.4,2.6,0.5c0.9,0.1,1.8,0.1,2.7,0.1
					c0.7,0,1.5-0.1,2.2-0.2c0.2,0,0.4-0.1,0.6-0.1c0.5-0.1,1-0.2,1.5-0.3c0,0,0,0,0.1,0c0.3-0.1,0.5-0.2,0.8-0.2
					c0.4-0.1,0.8-0.2,1.2-0.4c0.3-0.1,0.6-0.2,0.9-0.4c0.4-0.2,0.8-0.3,1.1-0.5c0,0,0.1,0,0.1,0c0.2-0.1,0.5-0.3,0.7-0.4
					c0.4-0.2,0.7-0.4,1.1-0.6c0.3-0.2,0.5-0.4,0.8-0.5c0.3-0.2,0.6-0.4,1-0.7c0.1,0,0.1-0.1,0.2-0.1c0.2-0.2,0.4-0.4,0.6-0.5
					c0.3-0.3,0.6-0.5,0.9-0.8c0.2-0.2,0.5-0.5,0.7-0.7c0.3-0.3,0.6-0.7,0.9-1c0.2-0.2,0.3-0.4,0.5-0.6c0.1-0.2,0.3-0.4,0.4-0.6
					c0.1-0.2,0.3-0.4,0.4-0.6s0.3-0.4,0.4-0.7c0.3-0.5,0.6-1.1,0.8-1.7c0,0,0-0.1,0.1-0.1c0.2-0.5,0.4-1.1,0.6-1.6
					c0,0,0-0.1,0.1-0.1c0,0,0-0.1,0-0.1c0.2-0.6,0.3-1.1,0.5-1.7c0,0,0,0,0,0c0.1-0.6,0.2-1.2,0.3-1.9c0.1-1.3,0.2-2.5,0-3.8
					s-0.4-2.5-0.7-3.8c-0.4-1.2-0.9-2.4-1.5-3.6c-0.6-1.1-1.3-2.2-2.1-3.2c-0.8-1-1.7-1.9-2.7-2.7c-1-0.8-2.1-1.5-3.3-2.2
					c-3.3-1.8-6.8-3.4-10.3-4.7c-3.5-1.3-7.2-2.5-10.9-3.3c-3.7-0.9-7.4-1.5-11.2-1.9C91.9,0.1,88.1-0.1,84.3,0
					c-11.8,0.3-22.9,2.9-33,7.4C41.1,11.8,32,18.2,24.4,25.9c-5.1,5.2-9.6,11.1-13.2,17.4C24.9,99,50,118.8,69,125.6z"/>
				<path id="XMLID_1330_" opacity="0.7" fill="#FFFFFF" d="M104.9,178.3c-2.6,0.4-5.2,0.6-7.8,0.8c-2.6,0.2-5.2,0.3-7.9,0.4v12.3
					l0.4,0.2l30.6-16.6c-2.5,0.6-5,1.2-7.5,1.7C110,177.5,107.5,178,104.9,178.3z"/>
				<path id="XMLID_1329_" opacity="0.21" fill="#FFFFFF" d="M159.7,32.2c-0.7-0.9-1.3-1.8-2.1-2.7c-3.8-4.7-8.1-9-12.8-12.9
					c0.1,0.3,0.2,0.5,0.3,0.8c0.1,0.3,0.2,0.5,0.3,0.8c0.1,0.3,0.2,0.5,0.3,0.8c0.1,0.3,0.2,0.5,0.3,0.8c0.1,0.5,0.3,1,0.4,1.5
					c0,0.2,0.1,0.3,0.1,0.5c0.1,0.3,0.1,0.7,0.2,1c0,0.2,0.1,0.4,0.1,0.5c0.1,0.3,0.1,0.6,0.1,0.9c0,0.2,0,0.4,0.1,0.6
					c0,0.1,0,0.3,0,0.4c0,0.2,0,0.4,0,0.5c0,0.2,0,0.4,0,0.6c0,0.3,0,0.7,0,1c0,0.2,0,0.3,0,0.5c0,0.4,0,0.9,0,1.3
					c0,0.1,0,0.1,0,0.2c0,0.5-0.1,0.9-0.1,1.4c0,0,0,0.1,0,0.1c0,0.2,0,0.3-0.1,0.5c0,0.3-0.1,0.7-0.2,1c-0.2,1.3-0.5,2.5-0.9,3.7
					c-0.3,1-0.7,2-1.2,3c-0.3,0.7-0.7,1.4-1.1,2.1c-0.3,0.5-0.5,0.9-0.8,1.3c-0.3,0.4-0.6,0.9-0.9,1.3c-0.3,0.4-0.6,0.8-0.9,1.2
					c-0.3,0.4-0.7,0.8-1,1.2c-1.3,1.4-2.7,2.7-4.3,3.8c-0.8,0.6-1.7,1.1-2.5,1.6c-0.3,0.2-0.5,0.3-0.8,0.4c-0.5,0.3-1.1,0.6-1.6,0.9
					c-1.8,0.8-3.6,1.4-5.5,1.9c-1.9,0.4-3.9,0.7-5.9,0.8c-0.2,0-0.5,0-0.7,0c-0.2,0-0.5,0-0.7,0c-0.2,0-0.5,0-0.7,0
					c-0.2,0-0.5,0-0.7,0c1.8,1.8,3.3,3.7,4.8,5.7c1.4,2,2.6,4.2,3.7,6.5c1,2.3,1.8,4.7,2.4,7.2c0.6,2.5,0.9,5.1,1,7.8
					c0,0.6,0,1.3,0,1.9c0,0.2,0,0.4,0,0.6c0,0.4,0,0.8,0,1.2c0,0.2,0,0.5-0.1,0.7c0,0.4-0.1,0.7-0.1,1.1c0,0.3-0.1,0.5-0.1,0.8
					c-0.1,0.5-0.1,0.9-0.2,1.4c-0.2,1.5-0.6,3-1,4.5c-0.3,1-0.6,1.9-0.9,2.8c-0.9,2.4-1.9,4.6-3.2,6.8c-0.6,1.1-1.3,2.1-2.1,3.2
					C131.2,100.2,159.3,77,159.7,32.2z"/>
				<path id="XMLID_1328_" opacity="0.4" fill="#FFFFFF" d="M177.2,81.2c-0.3-6.5-1.3-12.9-2.9-19c-1.6-6.1-3.9-11.9-6.7-17.3
					c-2.3-4.5-5-8.7-7.9-12.6c-0.3,44.8-28.5,68-39.2,75.3c-0.7,1-1.5,2-2.3,2.9c0.3,0,0.5-0.1,0.8-0.1c0.3,0,0.5-0.1,0.8-0.1
					c0.3,0,0.5,0,0.8-0.1c0.3,0,0.5,0,0.8,0c2-0.1,4,0.1,5.9,0.5c1.9,0.3,3.8,0.9,5.7,1.6c1.8,0.7,3.6,1.6,5.2,2.7
					c1.6,1.1,3.2,2.3,4.6,3.7c0.4,0.4,0.7,0.7,1.1,1.1c0.4,0.4,0.7,0.8,1,1.2c0.3,0.4,0.7,0.8,1,1.2c0.3,0.4,0.6,0.9,0.9,1.3
					c0.3,0.5,0.6,1,0.9,1.5c0.1,0.2,0.2,0.3,0.2,0.5c0.2,0.3,0.4,0.7,0.5,1c0.1,0.2,0.2,0.4,0.3,0.6c0.1,0.3,0.3,0.6,0.4,0.9
					c0.1,0.2,0.2,0.4,0.3,0.7c0.1,0.3,0.2,0.6,0.3,0.9c0,0,0,0.1,0,0.1c0.1,0.2,0.1,0.4,0.2,0.6c0.1,0.3,0.2,0.6,0.3,0.9
					c0.1,0.2,0.1,0.5,0.2,0.7c0.1,0.3,0.2,0.6,0.2,0.8c0.1,0.2,0.1,0.5,0.2,0.7c0.1,0.3,0.1,0.6,0.2,0.9c0,0.2,0.1,0.5,0.1,0.7
					c0,0.3,0.1,0.6,0.1,0.9c0,0.1,0,0.1,0,0.2c0,0.2,0,0.4,0,0.6c0,0.3,0.1,0.6,0.1,0.9c0,0.2,0,0.5,0,0.7c0,0.3,0,0.6,0,0.9
					c0,0.2,0,0.5,0,0.7c0,0.3,0,0.6,0,0.8c0,0.3,0,0.5-0.1,0.8c0,0.3,0,0.5-0.1,0.8c0,0.1,0,0.2,0,0.2c0,0.2-0.1,0.4-0.1,0.5
					c0,0.3-0.1,0.5-0.1,0.8c0,0.2-0.1,0.5-0.1,0.7c-0.1,0.3-0.1,0.5-0.2,0.8c-0.1,0.2-0.1,0.5-0.2,0.7c-0.1,0.3-0.1,0.5-0.2,0.8
					c-0.1,0.2-0.1,0.5-0.2,0.7c-0.1,0.4-0.2,0.7-0.3,1.1c0,0,0,0,0,0c0,0,0,0,0,0c1-1,2-1.9,2.9-2.9c0.1-0.1,0.3-0.3,0.4-0.4
					c0.9-1,1.9-2,2.8-3.1c0.1-0.2,0.3-0.3,0.4-0.5c0.6-0.7,1.1-1.3,1.6-2c0.5-0.6,0.9-1.2,1.4-1.8c0.6-0.7,1.1-1.5,1.6-2.3
					c0.3-0.4,0.5-0.7,0.8-1.1c0.1-0.2,0.2-0.4,0.4-0.6c0.7-1,1.3-2,1.9-3c0.1-0.2,0.2-0.4,0.4-0.6c0.7-1.1,1.4-2.3,2-3.5
					c0.1-0.2,0.2-0.4,0.4-0.7c0.6-1.2,1.3-2.4,1.9-3.6c0-0.1,0.1-0.2,0.1-0.3c0.6-1.3,1.2-2.6,1.7-3.9c0-0.1,0.1-0.1,0.1-0.2
					c0-0.1,0-0.1,0.1-0.2c2.3-5.7,4.1-11.6,5.2-17.8C177,94.1,177.4,87.7,177.2,81.2z"/>
				<path id="XMLID_1327_" fill="#FFFFFF" d="M140.9,147c0.1-0.3,0.2-0.6,0.4-0.9c0,0,0,0,0-0.1c0,0,0-0.1,0-0.1
					c0.1-0.2,0.2-0.5,0.3-0.7C141.4,145.8,141.2,146.4,140.9,147C140.9,147,140.9,147,140.9,147z"/>
				<path id="XMLID_1326_" fill="#FFFFFF" d="M140.5,147.8c0,0,0-0.1,0.1-0.1c0,0,0,0,0,0c0,0,0-0.1,0-0.1c0.1-0.2,0.2-0.4,0.3-0.6
					c-0.2,0.5-0.5,1.1-0.8,1.6C140.3,148.4,140.4,148.1,140.5,147.8z"/>
				<path id="XMLID_1325_" fill="#FFFFFF" d="M62.5,166.2c1.2,0.3,2.5,0.7,3.7,1C65,166.9,63.8,166.6,62.5,166.2
					C62.5,166.2,62.5,166.2,62.5,166.2z"/>
				<path id="XMLID_1324_" opacity="0.54" fill="#FFFFFF" d="M0,85.8c0.1,11.7,2.7,22.8,7.2,32.9c0.5,1.2,1.1,2.3,1.6,3.4
					c0.2,0.3,0.3,0.6,0.5,1c0.4,0.8,0.9,1.6,1.3,2.4c0.2,0.3,0.4,0.7,0.6,1c0.6,1,1.2,2,1.8,2.9c0.1,0.1,0.1,0.2,0.2,0.3
					c0.7,1,1.4,2.1,2.1,3.1c0.2,0.3,0.4,0.6,0.7,0.9c0.5,0.7,1.1,1.5,1.6,2.2c0.2,0.3,0.5,0.6,0.7,0.9c0.7,0.9,1.4,1.8,2.2,2.7
					c0.1,0.1,0.1,0.1,0.2,0.2c0.8,0.9,1.6,1.8,2.5,2.7c0.3,0.3,0.5,0.5,0.8,0.8c0.6,0.7,1.3,1.3,2,2c0.3,0.3,0.5,0.5,0.8,0.8
					c0.9,0.8,1.7,1.6,2.6,2.4c0,0,0.1,0.1,0.1,0.1c0.9,0.8,1.9,1.6,2.9,2.4c0.3,0.2,0.6,0.4,0.9,0.7c0.7,0.6,1.5,1.1,2.2,1.6
					c0.3,0.2,0.6,0.4,0.9,0.7c1,0.7,1.9,1.3,2.9,2c0.1,0,0.1,0.1,0.2,0.1c1.1,0.7,2.1,1.3,3.2,1.9c0.3,0.2,0.7,0.4,1,0.6
					c0.8,0.5,1.6,0.9,2.5,1.3c0.3,0.2,0.7,0.3,1,0.5c1.1,0.6,2.2,1.1,3.4,1.6c0,0,0,0,0.1,0c1.2,0.5,2.3,1,3.5,1.5
					c0.3,0.1,0.7,0.3,1,0.4c0.9,0.3,1.8,0.7,2.7,1c0.4,0.1,0.7,0.2,1.1,0.4c1.2,0.4,2.4,0.8,3.6,1.1c0,0,0,0,0.1,0
					c1.2,0.3,2.5,0.7,3.7,1c0.4,0.1,0.8,0.2,1.2,0.3c0.9,0.2,1.8,0.4,2.8,0.6c0.4,0.1,0.8,0.2,1.2,0.2c1.2,0.2,2.5,0.4,3.7,0.6
					c0.1,0,0.2,0,0.3,0c1.3,0.2,2.5,0.3,3.8,0.4c0.4,0,0.8,0.1,1.2,0.1c1,0.1,1.9,0.1,2.9,0.1c0.4,0,0.8,0,1.2,0c1.3,0,2.7,0,4,0
					c4-0.1,7.9-0.5,11.8-1.1c3.9-0.6,7.7-1.5,11.5-2.6c3.7-1.1,7.4-2.5,11-4.1c3.6-1.6,7-3.5,10.3-5.6c0.6-0.4,1.1-0.8,1.6-1.2
					c0.1-0.1,0.2-0.2,0.3-0.3c0,0,0,0,0.1-0.1c0.4-0.3,0.8-0.6,1.1-1c0.1-0.1,0.1-0.1,0.2-0.2c0,0,0.1-0.1,0.1-0.1
					c0.4-0.4,0.7-0.7,1-1.1c0,0,0,0,0.1-0.1c0-0.1,0.1-0.1,0.1-0.2c0.4-0.4,0.7-0.9,1-1.4c0.1-0.1,0.1-0.2,0.2-0.3
					c0.3-0.5,0.6-1,0.9-1.5c0-0.1,0.1-0.1,0.1-0.2c0.3-0.5,0.6-1.1,0.8-1.6c0,0,0,0,0,0c0.3-0.6,0.5-1.2,0.7-1.8c0,0,0,0,0,0l0,0
					c0,0,0,0,0,0c0.2-0.6,0.4-1.2,0.5-1.9c0.6-2.5,0.6-5.2,0.2-7.8c-0.5-2.6-1.4-5.1-3-7.5c-0.1-0.2-0.3-0.4-0.4-0.7
					c-0.2-0.2-0.3-0.4-0.5-0.6c-0.2-0.2-0.3-0.4-0.5-0.6c-0.2-0.2-0.3-0.4-0.5-0.6c-0.3-0.3-0.6-0.6-0.9-0.9
					c-0.8-0.8-1.6-1.5-2.4-2.1c-1.2-0.9-2.5-1.6-3.8-2.2c-1.4-0.6-2.8-1-4.3-1.3c-1.5-0.3-3-0.4-4.5-0.4c-0.9,0-1.8,0.1-2.7,0.3
					c-0.5,0.1-1,0.2-1.6,0.3c-0.4,0.1-0.7,0.2-1.1,0.3c-0.9,0.3-1.7,0.6-2.6,1c-0.8,0.4-1.6,0.8-2.4,1.3c-1.8,1.1-3.6,2.1-5.5,2.9
					c-1.9,0.9-3.8,1.6-5.8,2.2c-2,0.6-4,1.1-6.1,1.4c0,0-1,0.2-2.9,0.4c-1.1,0.1-2.2,0.2-3.3,0.2c-6.4,0.2-12.5-1-18.1-3.1
					c-0.2-0.1-0.4-0.2-0.6-0.2C50,118.8,24.9,99,11.2,43.3c-1.8,3.1-3.4,6.3-4.8,9.6C2.2,63-0.1,74.2,0,85.8z"/>
				<path id="XMLID_1323_" opacity="0.4" fill="#FFFFFF" d="M89.1,179.5c-2.7,0.1-5.4,0-8.1-0.1c-2.7-0.1-5.3-0.3-7.9-0.5
					c-2.6-0.3-5.2-0.6-7.7-1c-2.5-0.4-5-0.9-7.5-1.4l31.3,15.3L89.1,179.5C89.2,179.5,89.1,179.5,89.1,179.5z"/>
			</g>
		</g>
	</g>
</g>
</svg>
