<?xml version="1.0" encoding="utf-8"?>
<!-- Generator: Adobe Illustrator 18.1.1, SVG Export Plug-In . SVG Version: 6.00 Build 0)  -->
<svg version="1.1" id="Layer_1" xmlns="http://www.w3.org/2000/svg" xmlns:xlink="http://www.w3.org/1999/xlink" x="0px" y="0px"
	 viewBox="0 0 592.3 1184.4" enable-background="new 0 0 592.3 1184.4" xml:space="preserve">
<g id="XMLID_3786_">
	<text transform="matrix(1 0 0 1 164.5283 509.0928)" fill="#1A457F" font-family="'HelveticaNeue-Thin'" font-size="43.5065">Farmacia Salud</text>
</g>
<g id="XMLID_3361_">
	<g id="XMLID_3343_">
		<linearGradient id="XMLID_3_" gradientUnits="userSpaceOnUse" x1="296.1477" y1="-36.0981" x2="296.1477" y2="777.9903">
			<stop  offset="0" style="stop-color:#1A457F"/>
			<stop  offset="1" style="stop-color:#025497;stop-opacity:0"/>
		</linearGradient>
		<path id="XMLID_3381_" fill="url(#XMLID_3_)" d="M506.4,1184.4H85.9c-47.4,0-85.9-38.6-85.9-85.9V85.9C0,38.6,38.6,0,85.9,0h420.4
			c47.4,0,85.9,38.6,85.9,85.9v1012.5C592.3,1145.8,553.7,1184.4,506.4,1184.4z M85.9,3.9C40.7,3.9,3.9,40.7,3.9,85.9v1012.5
			c0,45.3,36.8,82.1,82.1,82.1h420.4c45.3,0,82.1-36.8,82.1-82.1V85.9c0-45.3-36.8-82.1-82.1-82.1H85.9z"/>
	</g>
	<g id="XMLID_3357_">
		<linearGradient id="XMLID_4_" gradientUnits="userSpaceOnUse" x1="296.1477" y1="-36.0981" x2="296.1477" y2="777.9903">
			<stop  offset="0" style="stop-color:#1A457F"/>
			<stop  offset="1" style="stop-color:#025497;stop-opacity:0"/>
		</linearGradient>
		<path id="XMLID_3378_" fill="url(#XMLID_4_)" d="M503.6,1164.5H88.7c-45.7,0-83-37.2-83-83V89.9c0-45.7,37.2-83,83-83h414.9
			c45.7,0,83,37.2,83,83v991.6C586.6,1127.3,549.4,1164.5,503.6,1164.5z M88.7,10.9c-43.6,0-79.1,35.5-79.1,79.1v991.6
			c0,43.6,35.5,79.1,79.1,79.1h414.9c43.6,0,79.1-35.5,79.1-79.1V89.9c0-43.6-35.5-79.1-79.1-79.1H88.7z"/>
	</g>
	<g id="XMLID_3358_">
		<linearGradient id="XMLID_5_" gradientUnits="userSpaceOnUse" x1="296.1477" y1="-36.0981" x2="296.1477" y2="777.9903">
			<stop  offset="0" style="stop-color:#1A457F"/>
			<stop  offset="1" style="stop-color:#025497;stop-opacity:0"/>
		</linearGradient>
		<path id="XMLID_3375_" fill="url(#XMLID_5_)" d="M562,1056.2H30.3c-4.7,0-8.6-3.8-8.6-8.6v-917c0-4.7,3.8-8.6,8.6-8.6H562
			c4.7,0,8.6,3.8,8.6,8.6v917C570.6,1052.3,566.7,1056.2,562,1056.2z M30.3,125.5c-2.8,0-5.1,2.3-5.1,5.1v917c0,2.8,2.3,5.1,5.1,5.1
			H562c2.8,0,5.1-2.3,5.1-5.1v-917c0-2.8-2.3-5.1-5.1-5.1H30.3z"/>
	</g>
	<g id="XMLID_3359_">
		<linearGradient id="XMLID_6_" gradientUnits="userSpaceOnUse" x1="238.6086" y1="-36.0981" x2="238.6086" y2="777.9903">
			<stop  offset="0" style="stop-color:#1A457F"/>
			<stop  offset="1" style="stop-color:#025497;stop-opacity:0"/>
		</linearGradient>
		<path id="XMLID_3372_" fill="url(#XMLID_6_)" d="M238.6,71.2c-4.9,0-8.9-4-8.9-8.9c0-4.9,4-8.9,8.9-8.9c4.9,0,8.9,4,8.9,8.9
			C247.5,67.2,243.5,71.2,238.6,71.2z M238.6,56.4c-3.2,0-5.8,2.6-5.8,5.8c0,3.2,2.6,5.8,5.8,5.8c3.2,0,5.8-2.6,5.8-5.8
			C244.5,59.1,241.8,56.4,238.6,56.4z"/>
	</g>
	<g id="XMLID_3360_">
		<linearGradient id="XMLID_7_" gradientUnits="userSpaceOnUse" x1="298.4585" y1="-36.0981" x2="298.4585" y2="777.9903">
			<stop  offset="0" style="stop-color:#1A457F"/>
			<stop  offset="1" style="stop-color:#025497;stop-opacity:0"/>
		</linearGradient>
		<path id="XMLID_3369_" fill="url(#XMLID_7_)" d="M333.7,71.2h-70.5c-4.9,0-8.9-4-8.9-8.9c0-4.9,4-8.9,8.9-8.9h70.5
			c4.9,0,8.9,4,8.9,8.9C342.6,67.2,338.6,71.2,333.7,71.2z M263.2,56.4c-3.2,0-5.8,2.6-5.8,5.8c0,3.2,2.6,5.8,5.8,5.8h70.5
			c3.2,0,5.8-2.6,5.8-5.8c0-3.2-2.6-5.8-5.8-5.8H263.2z"/>
	</g>
</g>
<g id="XMLID_3184_" opacity="0.51">
	<g id="XMLID_2562_">
		<g id="XMLID_2605_">
			<linearGradient id="XMLID_8_" gradientUnits="userSpaceOnUse" x1="27.7488" y1="82.1742" x2="27.7488" y2="762.2377">
				<stop  offset="0" style="stop-color:#1A457F"/>
				<stop  offset="1" style="stop-color:#025497;stop-opacity:0"/>
			</linearGradient>
			<polygon id="XMLID_2565_" fill="url(#XMLID_8_)" points="24.7,131.6 24.7,123.4 30.8,123.4 			"/>
		</g>
		<g id="XMLID_2563_">
			<linearGradient id="XMLID_9_" gradientUnits="userSpaceOnUse" x1="165.4233" y1="82.1742" x2="165.4233" y2="762.2377">
				<stop  offset="0" style="stop-color:#1A457F"/>
				<stop  offset="1" style="stop-color:#025497;stop-opacity:0"/>
			</linearGradient>
			<path id="XMLID_2594_" fill="url(#XMLID_9_)" d="M159.8,601.1l29.5,3.9l-17.4,112.2c0.2,0,0.3,0,0.5,0h1.6l17.7-113.9l-34.1-4.6
				l0.2,1.3c2.3,18.1,0.8,39.3-4.3,61.3c-0.4,1.7-10.2,39.6-14.2,54.9c0.7,0,1.4,0,2.1,0c4.1-15.7,13.7-52.8,14.1-54.5
				C160.4,640.1,161.9,619.2,159.8,601.1z"/>
			<linearGradient id="XMLID_10_" gradientUnits="userSpaceOnUse" x1="208.6865" y1="82.1742" x2="208.6865" y2="762.2377">
				<stop  offset="0" style="stop-color:#1A457F"/>
				<stop  offset="1" style="stop-color:#025497;stop-opacity:0"/>
			</linearGradient>
			<path id="XMLID_2595_" fill="url(#XMLID_10_)" d="M212.5,680.8c2,15.6,3.9,30.4,5.7,38.5c0.7-0.1,1.3-0.2,2-0.3
				c-1.8-7.9-3.7-22.8-5.7-38.4c-2.8-22.3-5.7-45.3-8.9-52.5l-1.6-3.5l-3.6,38.2l0.1,0.1c0.2,1.6-1.3,17.4-2.5,30.1
				c-0.3,3.7-0.6,7-0.9,9.9c0.4,0,0.8-0.1,1.2-0.1c0.3,0,0.6,0,0.8,0c0.3-3.2,0.6-6.5,0.9-9.7c1.9-20.9,2.6-28.7,2.4-30.5l2.7-29.2
				C207.8,643.3,210.3,663.1,212.5,680.8z"/>
			<linearGradient id="XMLID_11_" gradientUnits="userSpaceOnUse" x1="301.7119" y1="82.1742" x2="301.7119" y2="762.2377">
				<stop  offset="0" style="stop-color:#1A457F"/>
				<stop  offset="1" style="stop-color:#025497;stop-opacity:0"/>
			</linearGradient>
			<path id="XMLID_2570_" fill="url(#XMLID_11_)" d="M222.5,620.5c-1.6-3.7-3.5-7.5-5.5-11.7l171,22.9v64.4c0.7,0.2,1.4,0.4,2,0.6
				v-66.8l-176.5-23.6l0.8,1.7c2.4,4.8,4.5,9.2,6.3,13.3c3.7,8.4,7.4,34.2,10.6,57c1.1,8.1,2.3,16,3.4,23c0.4-0.3,0.8-0.6,1.3-0.9
				c0.2-0.1,0.4-0.2,0.6-0.3c-1-6.8-2.1-14.4-3.2-22.1C229.9,654,226.3,629.1,222.5,620.5z"/>
			<linearGradient id="XMLID_12_" gradientUnits="userSpaceOnUse" x1="438.8735" y1="82.1742" x2="438.8735" y2="762.2377">
				<stop  offset="0" style="stop-color:#1A457F"/>
				<stop  offset="1" style="stop-color:#025497;stop-opacity:0"/>
			</linearGradient>
			<path id="XMLID_2597_" fill="url(#XMLID_12_)" d="M468.8,716.3c0.3,0,0.7-0.1,1-0.1c0.3,0,0.6,0,1,0l-2.5-83.8l-61.4,2.3v78.4
				c0.5,0,0.7-0.1,0,0c0.7-0.1,1.3-0.2,2-0.2v-76.3l57.4-2.2L468.8,716.3z"/>
			<linearGradient id="XMLID_13_" gradientUnits="userSpaceOnUse" x1="297.1367" y1="82.1742" x2="297.1367" y2="762.2377">
				<stop  offset="0" style="stop-color:#1A457F"/>
				<stop  offset="1" style="stop-color:#025497;stop-opacity:0"/>
			</linearGradient>
			<path id="XMLID_2602_" fill="url(#XMLID_13_)" d="M570.2,123.4h-19.6l-29.3,60.1l-32.3-3.1l22.7-57h-22.6l-75.7,189.9
				c-1.5-0.4-3-0.8-4.5-1V123.4h-21v134.3l-177.2-35.4l88.7-98.8h-26.6l-36.5,40.7l-55.1-9.3l17.7-31.4h-26.4l-15.4,27.3L24.7,128.4
				v21.2l195.1,32.9l-31.7,35.3L24.7,185.1v21.2l82.9,16.6L63.5,272H62l-4,4.3l-33.2-6.9v21.7l16,3.3l-0.8,0.8h2.7l-17.9,20v28.6
				l43.6-48.6l109.2,0l-5.1,62.6H24.7v21h37.4l132.4,58.5l-62.4,42.2c-31-35.3-66.7-66.6-105.9-93.1l-1.7-1.1l1.4,22.7h0l3.2,53.5
				l0.3,0.3c19.1,15.5,37.1,32.7,53.6,51l-58.4,39.5v22.5l-0.6,0.4l0.6,0.4v22.5L65,623.8l-40.3,32.5l0,11.6L24,683.1l60.3-47.8
				l51-41.1l0.4-0.1l2.1,3.6c3,21.5-1.1,44.5-3.8,56.3c-0.8,3.3-12.4,48.1-16.6,63.7c0.7-0.3,1.4-0.5,2.3-0.7
				c4.4-16.6,15.4-59.1,16.2-62.6c2.8-12,6.9-35.3,3.8-57.3l0-0.2l-3.1-5.2l-2.3,0.5l-51.3,41.4l-56.8,45.1l0.5-10.9v-10.7
				l41.7-33.6l-41.7-26.5v-20.2l55.7,35.4l48.8-39.3l-0.5-0.8c-10.1-15.8-21.3-31.2-33.2-45.6l-0.6-0.7l-70.3,47.6v-20l59.4-40.2
				l-0.8-0.9c-16.6-18.6-34.8-36-54.2-51.8l-1.3-21.2c25,19.2,48.2,40.8,68.9,64.2l0.6,0.7l19.2-13l-0.8-0.9
				c-26.6-30.1-56.8-57.3-89.7-80.8l-1.2-20.3c38.7,26.4,73.8,57.4,104.4,92.3l0.6,0.7l66.8-45.2L62.8,377l-0.2-0.1H26.7v-17h147.5
				l5.5-66.6l-112.3,0l-40.7,45.4V316l20-22.3l-1.7-0.4l-0.4-0.1l0,0l-17.9-3.7v-17.6l31.9,6.6l4.2-4.5h1.6l47.1-52.5l-84.7-16.9
				v-17.1l162.2,32.4l34.8-38.8l-197-33.3v-17.1l131.5,22.2l15.5-27.5h21.8l-17.4,30.9l59,10l36.6-40.8h21.2l-88.1,98.1l183.1,36.6
				V125.4h17v188.5l0.8,0.1c2,0.3,4,0.8,6,1.4l0.9,0.3l75.9-190.3h18.3l-22.6,56.7l36.4,3.5l29.3-60.2h16.4v18.2l-21.6,44.3
				l21.6,2.1v17.4l-89.4-6.9l-22.7,56.9l66,0.3l46.1-37.2v21.9l-122.1,98.5l0.4,0.7c3,5.4,5.1,11.3,6.1,17.4l0.1,0.8h115.5V377
				l-32.5,55.1l32.5,19v19.7l-41.2-24.1l-41.4,70.1l0.4,0.5c14.2,19.6,30.9,38.2,49.4,55.1l1,0.9l31.7-60.3v36.3l-18.6,35.3l0.6,0.5
				c5.8,4.8,11.9,9.5,18,14v22.6c-33.2-23-62.1-49.5-85.7-79l-1.9-2.4l7.5,145.8c0.6-0.3,1.3-0.6,2-0.8l-7.2-138.9
				c23.8,29.1,52.7,55.4,85.8,78l1.6,1.1v-27.4l-0.4-0.3c-6-4.4-11.9-9-17.7-13.7l18.1-34.3V505l-34.3,65.1
				c-17.9-16.4-34-34.4-47.8-53.4l39.7-67.3l42.4,24.8v-24.4l-31.8-18.6l30.9-52.4h0.8v-21.1H454.5c-1.1-5.8-3-11.3-5.8-16.5
				l121.2-97.7l0.4-0.3v-27l-48.8,39.3l-62.4-0.2l21.1-52.8l90.1,6.9v-21.4l-20.5-2l20.5-42.1V123.4z M96.6,528.6
				c11.4,13.9,22.2,28.7,32,44l-46.3,37.3l-54.5-34.6L96.6,528.6z M115.6,490.9l-15.8,10.7c-21.1-23.7-44.7-45.5-70-64.9l-1.5-24.6
				C60.3,435.1,89.6,461.6,115.6,490.9z"/>
			<linearGradient id="XMLID_14_" gradientUnits="userSpaceOnUse" x1="306.2607" y1="82.1742" x2="306.2607" y2="762.2377">
				<stop  offset="0" style="stop-color:#1A457F"/>
				<stop  offset="1" style="stop-color:#025497;stop-opacity:0"/>
			</linearGradient>
			<path id="XMLID_3212_" fill="url(#XMLID_14_)" d="M389.9,560.4l-115.7-16.6l-51.7,46.7L389.9,613V560.4z M387.9,610.7
				l-160.8-21.5l47.8-43.2l113,16.2V610.7z"/>
			<linearGradient id="XMLID_15_" gradientUnits="userSpaceOnUse" x1="134.583" y1="82.1742" x2="134.583" y2="762.2377">
				<stop  offset="0" style="stop-color:#1A457F"/>
				<stop  offset="1" style="stop-color:#025497;stop-opacity:0"/>
			</linearGradient>
			<path id="XMLID_3217_" fill="url(#XMLID_15_)" d="M84.7,274H87l94.4,0l3.1-37.9L128.7,225L84.7,274z M182.3,237.8l-2.8,34.3
				l-90.3,0l40.2-44.8L182.3,237.8z"/>
			<linearGradient id="XMLID_16_" gradientUnits="userSpaceOnUse" x1="432.0845" y1="82.1742" x2="432.0845" y2="762.2377">
				<stop  offset="0" style="stop-color:#1A457F"/>
				<stop  offset="1" style="stop-color:#025497;stop-opacity:0"/>
			</linearGradient>
			<path id="XMLID_3226_" fill="url(#XMLID_16_)" d="M417.4,420.2l-1,0.3c-2.8,1-5.7,1.7-8.7,2.2l-0.8,0.1l0,108.7l50.3-24.3
				l-0.6-0.9c-16.3-26.3-29.4-55-38.9-85.2L417.4,420.2z M408.9,528.5l0-103.9c2.4-0.5,4.8-1.1,7.2-1.8
				c9.4,29.7,22.2,57.9,38.2,83.8L408.9,528.5z"/>
			<linearGradient id="XMLID_17_" gradientUnits="userSpaceOnUse" x1="194.1937" y1="82.1742" x2="194.1937" y2="762.2377">
				<stop  offset="0" style="stop-color:#1A457F"/>
				<stop  offset="1" style="stop-color:#025497;stop-opacity:0"/>
			</linearGradient>
			<path id="XMLID_3194_" fill="url(#XMLID_17_)" d="M282.8,448.1l-4.5,3.6l-62.2-27.5l-0.5-1.2l-0.9,0.6l-101.3-44.7h110.7
				c-0.2-0.7-0.4-1.3-0.6-2H104l174.1,76.9l0.6,0.2l5.7-4.6C283.9,449,283.3,448.6,282.8,448.1z"/>
			<linearGradient id="XMLID_18_" gradientUnits="userSpaceOnUse" x1="436.9785" y1="82.1742" x2="436.9785" y2="762.2377">
				<stop  offset="0" style="stop-color:#1A457F"/>
				<stop  offset="1" style="stop-color:#025497;stop-opacity:0"/>
			</linearGradient>
			<path id="XMLID_3400_" fill="url(#XMLID_18_)" d="M406.9,617.7l60.1-2.3l-6.3-85.1l-53.8,26V617.7z M408.9,557.6l50-24.1
				l5.9,80.1l-55.9,2.1V557.6z"/>
			<linearGradient id="XMLID_19_" gradientUnits="userSpaceOnUse" x1="465.9968" y1="82.1742" x2="465.9968" y2="762.2377">
				<stop  offset="0" style="stop-color:#1A457F"/>
				<stop  offset="1" style="stop-color:#025497;stop-opacity:0"/>
			</linearGradient>
			<path id="XMLID_3403_" fill="url(#XMLID_19_)" d="M448.6,276.4l-18.7,46.8l0.6,0.5c1.5,1.1,2.9,2.2,4.2,3.4l0.6,0.6l66.6-53.7
				L448.6,276.4z M432.4,322.5l17.6-44.2l46-2.1L435.5,325C434.5,324.1,433.5,323.3,432.4,322.5z"/>
			<linearGradient id="XMLID_20_" gradientUnits="userSpaceOnUse" x1="217.0979" y1="82.1742" x2="217.0979" y2="762.2377">
				<stop  offset="0" style="stop-color:#1A457F"/>
				<stop  offset="1" style="stop-color:#025497;stop-opacity:0"/>
			</linearGradient>
			<path id="XMLID_3406_" fill="url(#XMLID_20_)" d="M185,551.5l4.7,10.3l0.2,0.3c3.4,6.5,6.9,13,10.4,19.3l1.2,2.2l47.8-43.2
				l-38.6-9.6L185,551.5z M245.1,541.5l-43.1,39l0,0c-3.4-6.3-7-12.8-10.4-19.2l-4.2-9.2l23.6-19.1L245.1,541.5z"/>
			<linearGradient id="XMLID_21_" gradientUnits="userSpaceOnUse" x1="136.1375" y1="82.1742" x2="136.1375" y2="762.2377">
				<stop  offset="0" style="stop-color:#1A457F"/>
				<stop  offset="1" style="stop-color:#025497;stop-opacity:0"/>
			</linearGradient>
			<path id="XMLID_3781_" fill="url(#XMLID_21_)" d="M129.4,504l-19.1,13l0.7,0.8c11.5,14,22.4,28.9,32.3,44.1l0.6,0.9l18.2-14.7
				l-0.5-0.8c-9.8-14.7-20.4-29.1-31.6-42.7L129.4,504z M144.3,559.8c-9.6-14.7-20-29-31.1-42.5l15.8-10.7
				c10.7,13.1,20.9,26.9,30.4,41.1L144.3,559.8z"/>
			<linearGradient id="XMLID_22_" gradientUnits="userSpaceOnUse" x1="292.7449" y1="82.1742" x2="292.7449" y2="762.2377">
				<stop  offset="0" style="stop-color:#1A457F"/>
				<stop  offset="1" style="stop-color:#025497;stop-opacity:0"/>
			</linearGradient>
			<path id="XMLID_3784_" fill="url(#XMLID_22_)" d="M196.6,274l192.1,5l0.2-2l-189.4-37.9L196.6,274z M377.1,276.7l-178.3-4.6
				l2.5-30.5L377.1,276.7z"/>
			<linearGradient id="XMLID_23_" gradientUnits="userSpaceOnUse" x1="255.614" y1="82.1742" x2="255.614" y2="762.2377">
				<stop  offset="0" style="stop-color:#1A457F"/>
				<stop  offset="1" style="stop-color:#025497;stop-opacity:0"/>
			</linearGradient>
			<path id="XMLID_3195_" fill="url(#XMLID_23_)" d="M254.2,298.6l0-1.5l1.9,0.1c0.9-0.7,1.9-1.3,2.8-1.9l-6.8-0.2l0,5
				C252.9,299.6,253.6,299.1,254.2,298.6z"/>
			<linearGradient id="XMLID_24_" gradientUnits="userSpaceOnUse" x1="211.5189" y1="82.1742" x2="211.5189" y2="762.2377">
				<stop  offset="0" style="stop-color:#1A457F"/>
				<stop  offset="1" style="stop-color:#025497;stop-opacity:0"/>
			</linearGradient>
			<path id="XMLID_3192_" fill="url(#XMLID_24_)" d="M222.4,357.9h-30.7l5.1-62.3l34.4,0.9l0.3,31.1c0.6-1.6,1.2-3.2,2-4.7
				l-0.3-28.4l-38.2-1l-5.5,66.3H222C222.1,359.2,222.2,358.6,222.4,357.9z"/>
			<linearGradient id="XMLID_25_" gradientUnits="userSpaceOnUse" x1="168.5337" y1="82.1742" x2="168.5337" y2="762.2377">
				<stop  offset="0" style="stop-color:#1A457F"/>
				<stop  offset="1" style="stop-color:#025497;stop-opacity:0"/>
			</linearGradient>
			<path id="XMLID_3807_" fill="url(#XMLID_25_)" d="M173.2,565.4l-0.2,0c-0.2-0.3-0.4-0.6-0.6-1l-1.2-1.9l-18.8,15.2l0.2,0.7
				c0.3,0.8,0.6,1.6,0.8,2.4l0.2,0.6l30.9,4.1l-1-1.7c-3.3-6-6.5-11.5-9.8-16.9L173.2,565.4z M155.2,579.6c-0.1-0.4-0.3-0.8-0.4-1.2
				l15.9-12.8c0.3,0.5,0.6,1,0.9,1.5l0.4,0.6l0,0l0.1,0.2c2.9,4.9,5.8,9.8,8.8,15.2L155.2,579.6z"/>
			<linearGradient id="XMLID_26_" gradientUnits="userSpaceOnUse" x1="203.3118" y1="82.1742" x2="203.3118" y2="762.2377">
				<stop  offset="0" style="stop-color:#1A457F"/>
				<stop  offset="1" style="stop-color:#025497;stop-opacity:0"/>
			</linearGradient>
			<path id="XMLID_3810_" fill="url(#XMLID_26_)" d="M143.3,495.8c10.8,13.2,21.1,27.1,30.7,41.2l0.6,0.9l89.4-72.1l-47.4-20.9
				l-73.9,50L143.3,495.8z M216.8,447.2l43.4,19.2L175,535.1c-9.2-13.6-19.1-26.9-29.5-39.6L216.8,447.2z"/>
			<linearGradient id="XMLID_27_" gradientUnits="userSpaceOnUse" x1="489.6775" y1="82.1742" x2="489.6775" y2="762.2377">
				<stop  offset="0" style="stop-color:#1A457F"/>
				<stop  offset="1" style="stop-color:#025497;stop-opacity:0"/>
			</linearGradient>
			<path id="XMLID_3813_" fill="url(#XMLID_27_)" d="M473.6,499l72-122.1h-92.8l-0.1,0.8c-2.1,12.6-8.7,24.1-18.4,32.5l-0.5,0.4
				l0.2,0.6c9.3,30.9,22.3,59.9,38.8,86.3L473.6,499z M454.5,378.9h87.7l-68.5,116.2c-15.9-25.7-28.5-53.9-37.6-83.8
				C445.6,402.9,452.1,391.4,454.5,378.9z"/>
			<linearGradient id="XMLID_28_" gradientUnits="userSpaceOnUse" x1="307.1077" y1="82.1742" x2="307.1077" y2="762.2377">
				<stop  offset="0" style="stop-color:#1A457F"/>
				<stop  offset="1" style="stop-color:#025497;stop-opacity:0"/>
			</linearGradient>
			<path id="XMLID_3816_" fill="url(#XMLID_28_)" d="M389.9,475l-110.2,0l-55.5,44.7l165.7,23.7V475z M387.9,541.2l-158.8-22.7
				l51.3-41.4l107.5,0V541.2z"/>
			<linearGradient id="XMLID_29_" gradientUnits="userSpaceOnUse" x1="368.4702" y1="82.1742" x2="368.4702" y2="762.2377">
				<stop  offset="0" style="stop-color:#1A457F"/>
				<stop  offset="1" style="stop-color:#025497;stop-opacity:0"/>
			</linearGradient>
			<path id="XMLID_3198_" fill="url(#XMLID_29_)" d="M347,297.5c0.9,0.7,1.9,1.4,2.8,2.1l38.2,1v11.6c-7.2,1.3-13.8,4-19.8,7.8
				c0.3,0.6,0.6,1.2,1,1.8c6-3.8,12.7-6.5,20-7.7l0.8-0.1v-15.3L347,297.5z"/>
			<linearGradient id="XMLID_30_" gradientUnits="userSpaceOnUse" x1="346.6521" y1="82.1742" x2="346.6521" y2="762.2377">
				<stop  offset="0" style="stop-color:#1A457F"/>
				<stop  offset="1" style="stop-color:#025497;stop-opacity:0"/>
			</linearGradient>
			<path id="XMLID_3190_" fill="url(#XMLID_30_)" d="M389.1,422.8c-10-1.7-19.4-6.2-27-13c-0.9,1.3-1.8,2.5-2.7,3.6l2-1.6
				c7.6,6.5,16.8,10.9,26.6,12.8V454l-78.9,0l1.8-1.4c-1.8,1-3.7,1.6-5.6,2l-1.8,1.5l86.6,0v-33.1L389.1,422.8z"/>
		</g>
	</g>
	<g id="XMLID_2557_" opacity="0.1">
		<path id="XMLID_3188_" fill-rule="evenodd" clip-rule="evenodd" fill="#1A457F" d="M398.4,330.6c-8.6,0-16.4,2.9-22.8,7.7
			c1.9,7.1,3,14.4,3.4,21.7c0.3,7.7-0.8,15-3.3,22c-0.6,4.4-2.1,8.9-4.2,13.1c6.8,7,16.3,11.3,26.8,11.3c20.8,0,37.7-16.9,37.7-37.8
			C436.2,347.5,419.3,330.6,398.4,330.6z"/>
		<polygon id="XMLID_2560_" fill-rule="evenodd" clip-rule="evenodd" fill="#1A457F" points="210.8,531.9 247.1,541 197.1,586.2 
			151.2,580 		"/>
		<polygon id="XMLID_2559_" fill-rule="evenodd" clip-rule="evenodd" fill="#1A457F" points="67.9,294.3 25.7,341.2 25.7,358.9 
			173.4,358.9 178.8,293.2 		"/>
		<path id="XMLID_2558_" fill-rule="evenodd" clip-rule="evenodd" fill="#1A457F" d="M569.2,549.7l-18.3,34.8c0,0,7.4,6.2,13.8,10.9
			c1.5,1.1,3,2.2,4.5,3.3V549.7z"/>
	</g>
	<g id="XMLID_2550_" opacity="0.17">
		<path id="XMLID_3189_" fill-rule="evenodd" clip-rule="evenodd" fill="#1A457F" d="M257.6,296.2l-4.3-0.1l0,3.2
			C254.6,298.2,256.1,297.2,257.6,296.2z"/>
		<g id="XMLID_2551_">
			<polygon id="XMLID_2555_" fill-rule="evenodd" clip-rule="evenodd" fill="#1A457F" points="510.3,124.4 487.6,181.2 522,184.5 
				551.3,124.4 			"/>
			<polygon id="XMLID_2554_" fill-rule="evenodd" clip-rule="evenodd" fill="#1A457F" points="109.6,222.2 85.2,249.3 25.7,237 
				25.7,234.6 44.5,209.2 			"/>
			<polygon id="XMLID_2553_" fill-rule="evenodd" clip-rule="evenodd" fill="#1A457F" points="208.8,222.9 251.6,175.2 328.9,190.1 
				299.9,241.1 			"/>
			<polygon id="XMLID_2552_" fill-rule="evenodd" clip-rule="evenodd" fill="#1A457F" points="388.7,278 197.7,273 200.4,240.4 			
				"/>
		</g>
	</g>
</g>
<g id="XMLID_3122_">
	<path id="XMLID_3164_" fill="none" stroke="#1A457F" stroke-width="2.174" stroke-miterlimit="10" d="M269.2,333.8
		c-0.1,0.1-0.2,0.2-0.3,0.3c0.3-0.3,0.5-0.5,0.8-0.8C269.6,333.5,269.4,333.7,269.2,333.8z"/>
	<path id="XMLID_3163_" fill="none" stroke="#1A457F" stroke-width="2.174" stroke-miterlimit="10" d="M281.9,325.1
		c-0.3,0.1-0.5,0.2-0.8,0.4c0.4-0.2,0.7-0.3,1.1-0.5C282.1,325,282,325,281.9,325.1z"/>
	<path id="XMLID_3162_" fill="none" stroke="#1A457F" stroke-width="2.174" stroke-miterlimit="10" d="M327.4,328.7
		c0.7,0,1.3-0.1,2-0.2C328.7,328.6,328,328.7,327.4,328.7z"/>
	<path id="XMLID_3161_" fill="none" stroke="#1A457F" stroke-width="2.174" stroke-miterlimit="10" d="M344.2,315.5
		C344.2,315.5,344.2,315.5,344.2,315.5L344.2,315.5L344.2,315.5c0-0.1,0.1-0.3,0.1-0.4c0,0,0,0,0,0c-0.1,0.5-0.3,1-0.4,1.5
		c0-0.1,0-0.1,0.1-0.2C344,316.1,344.1,315.8,344.2,315.5z"/>
	<path id="XMLID_3159_" fill="none" stroke="#1A457F" stroke-width="2.174" stroke-miterlimit="10" d="M260.8,346.6
		c-0.1,0.2-0.1,0.3-0.2,0.5c0.1-0.4,0.3-0.7,0.4-1.1C260.9,346.3,260.8,346.4,260.8,346.6z"/>
	<path id="XMLID_3158_" fill="none" stroke="#1A457F" stroke-width="2.174" stroke-miterlimit="10" d="M331.2,328.2
		c-0.4,0.1-0.9,0.2-1.4,0.3C330.3,328.3,330.8,328.3,331.2,328.2C331.2,328.2,331.2,328.2,331.2,328.2z"/>
	<path id="XMLID_3157_" fill="none" stroke="#1A457F" stroke-width="2.174" stroke-miterlimit="10" d="M334.9,326.8
		c-0.3,0.2-0.7,0.3-1,0.4c0.3-0.1,0.6-0.2,0.9-0.4C334.8,326.9,334.8,326.9,334.9,326.8z"/>
	<path id="XMLID_3156_" fill="none" stroke="#1A457F" stroke-width="2.174" stroke-miterlimit="10" d="M340.7,322.3
		C340.7,322.2,340.8,322.2,340.7,322.3c0.1-0.1,0.1-0.1,0.1-0.2c0,0,0-0.1,0.1-0.1c-0.3,0.3-0.5,0.6-0.8,0.9
		C340.3,322.7,340.5,322.6,340.7,322.3C340.7,322.3,340.7,322.3,340.7,322.3z"/>
	<path id="XMLID_3155_" fill="none" stroke="#1A457F" stroke-width="2.174" stroke-miterlimit="10" d="M342.7,319.4
		c0-0.1,0.1-0.1,0.1-0.2c0-0.1,0.1-0.1,0.1-0.2c0.1-0.1,0.1-0.3,0.2-0.5c0,0,0-0.1,0.1-0.1c0,0,0-0.1,0-0.1c-0.2,0.5-0.5,1-0.7,1.5
		c0-0.1,0.1-0.1,0.1-0.2C342.6,319.5,342.6,319.5,342.7,319.4z"/>
	<path id="XMLID_3154_" fill="none" stroke="#1A457F" stroke-width="2.174" stroke-miterlimit="10" d="M343.6,317.2
		c0-0.1,0-0.1,0.1-0.2c0,0,0-0.1,0-0.1c0,0,0-0.1,0-0.1l0,0c-0.2,0.5-0.3,1-0.5,1.4c0,0,0-0.1,0-0.1
		C343.4,317.8,343.5,317.5,343.6,317.2z"/>
	<path id="XMLID_3153_" fill="none" stroke="#1A457F" stroke-width="2.174" stroke-miterlimit="10" d="M338.1,324.8
		c-0.3,0.2-0.6,0.4-0.8,0.6c0.2-0.2,0.5-0.3,0.7-0.5C338,324.9,338,324.9,338.1,324.8z"/>
	<path id="XMLID_3152_" fill="none" stroke="#1A457F" stroke-width="2.174" stroke-miterlimit="10" d="M354.5,401.8
		C354.5,401.8,354.5,401.7,354.5,401.8c0,0.1,0.1,0.3,0.2,0.6C354.6,402.1,354.6,402,354.5,401.8z"/>
	<path id="XMLID_3149_" fill="none" stroke="#1A457F" stroke-width="2.174" stroke-miterlimit="10" d="M335.2,365.8
		c0-0.2,0.1-0.5,0.1-0.7c0,0,0,0,0,0C335.3,365.4,335.3,365.6,335.2,365.8z"/>
	<g id="XMLID_3133_">
		<polygon id="XMLID_3148_" fill="none" stroke="#1A457F" stroke-width="2.174" stroke-miterlimit="10" points="272.4,374.1 
			298.8,337.5 298.8,389 		"/>
		<g id="XMLID_3134_">
			<polygon id="XMLID_3147_" opacity="0.4" fill="#1A457F" points="298.8,358.1 309.4,352.1 307.5,349.4 298.8,354.3 			"/>
			<polygon id="XMLID_3145_" opacity="0.4" fill="#1A457F" points="298.8,370.5 315.8,360.9 313.8,358.2 298.8,366.7 			"/>
			<polygon id="XMLID_3144_" opacity="0.4" fill="#1A457F" points="298.8,351.9 306.2,347.7 304.3,345 298.8,348.1 			"/>
			<polygon id="XMLID_3142_" opacity="0.4" fill="#1A457F" points="298.8,382.8 322.1,369.7 320.1,367 298.8,379 			"/>
			<polygon id="XMLID_3139_" opacity="0.4" fill="#1A457F" points="298.8,364.3 312.6,356.5 310.6,353.8 298.8,360.5 			"/>
			<polygon id="XMLID_3138_" opacity="0.4" fill="#1A457F" points="298.8,376.6 318.9,365.3 317,362.6 298.8,372.8 			"/>
			<polygon id="XMLID_3137_" opacity="0.4" fill="#1A457F" points="298.8,389 325.3,374.1 323.3,371.4 298.8,385.2 			"/>
			<polygon id="XMLID_3136_" opacity="0.4" fill="#1A457F" points="298.8,337.5 298.8,339.6 299.9,339 			"/>
			<polygon id="XMLID_3135_" opacity="0.4" fill="#1A457F" points="301.1,340.6 298.8,341.9 298.8,345.7 303.1,343.3 			"/>
		</g>
	</g>
	<g id="XMLID_3123_">
		<path id="XMLID_3132_" fill="none" stroke="#1A457F" stroke-width="2.174" stroke-miterlimit="10" d="M283.1,398.3
			c-4.7-1.9-9.1-4.7-12.7-8.1c-3.8-3.5-6.9-7.8-9-12.5c-0.3-0.8-0.7-1.6-1-2.3c-0.6-1.6-1.1-3.2-1.5-4.8c-0.1-0.4-0.2-0.8-0.3-1.2
			c-0.1-0.3-0.1-0.6-0.2-0.8c-0.1-0.4-0.1-0.9-0.2-1.3c0-0.3-0.1-0.5-0.1-0.8c-0.1-0.5-0.1-1-0.1-1.5c0-0.2,0-0.4-0.1-0.6
			c-0.1-0.7-0.1-1.4-0.1-2.1c0-0.2,0-0.4,0-0.5c0-0.2,0-0.4,0-0.5c0-0.5,0-1.1,0-1.6c0-0.3,0-0.5,0-0.8c0-0.6,0.1-1.1,0.2-1.6
			c0-0.2,0-0.4,0.1-0.7c0.1-0.8,0.2-1.5,0.4-2.3c0-0.1,0-0.2,0.1-0.3c0.1-0.7,0.3-1.3,0.4-1.9c0-0.1,0-0.1,0.1-0.2
			c0.1-0.2,0.1-0.4,0.2-0.6c0.1-0.4,0.2-0.8,0.3-1.1c0.1-0.3,0.2-0.6,0.3-0.8c0.1-0.4,0.3-0.7,0.4-1.1c0.1-0.3,0.2-0.6,0.3-0.9
			c0.1-0.2,0.1-0.3,0.2-0.5c0.1-0.2,0.2-0.4,0.3-0.6c0.1-0.3,0.2-0.5,0.4-0.8c0.2-0.4,0.3-0.7,0.5-1.1c0.1-0.2,0.2-0.3,0.2-0.5
			c0-0.1,0.1-0.2,0.1-0.2c0.3-0.5,0.5-1,0.8-1.5c0.1-0.1,0.2-0.3,0.2-0.4c0.4-0.6,0.8-1.2,1.1-1.8c0.1-0.1,0.2-0.3,0.3-0.4
			c0.3-0.5,0.6-0.9,1-1.3c0.2-0.2,0.3-0.4,0.5-0.6c0.3-0.4,0.6-0.7,0.9-1.1c0.1-0.1,0.2-0.2,0.3-0.3c0.1-0.1,0.2-0.2,0.3-0.3
			c0.2-0.3,0.5-0.6,0.8-0.8c0.2-0.2,0.4-0.4,0.6-0.7c0.1-0.1,0.2-0.2,0.3-0.3c0.2-0.2,0.4-0.4,0.5-0.5c0.2-0.2,0.4-0.4,0.6-0.6
			c0.3-0.3,0.6-0.5,0.9-0.8c0.2-0.2,0.4-0.4,0.6-0.5c0.3-0.3,0.7-0.6,1-0.8c0.2-0.1,0.3-0.3,0.5-0.4c0.5-0.4,1.1-0.8,1.6-1.2
			c0,0,0,0,0,0c0.6-0.4,1.1-0.8,1.7-1.1c0.2-0.1,0.3-0.2,0.5-0.3c0.4-0.3,0.8-0.5,1.3-0.7c0.2-0.1,0.4-0.2,0.7-0.4
			c0.4-0.2,0.8-0.4,1.1-0.6c0.2-0.1,0.5-0.2,0.8-0.4c0.3-0.1,0.5-0.2,0.8-0.4c0.1-0.1,0.2-0.1,0.4-0.1c0.3-0.1,0.5-0.2,0.8-0.3
			c0.4-0.2,0.8-0.3,1.1-0.4c0.3-0.1,0.5-0.2,0.8-0.3c0.4-0.1,0.8-0.3,1.2-0.4c0.3-0.1,0.6-0.2,0.8-0.3c0.4-0.1,0.8-0.2,1.2-0.3
			c0.3-0.1,0.6-0.1,0.9-0.2c0.4-0.1,0.8-0.2,1.2-0.3c0.3-0.1,0.6-0.1,0.9-0.2c0.4-0.1,0.8-0.1,1.3-0.2c0.3,0,0.6-0.1,0.8-0.1
			c0.5-0.1,1-0.1,1.4-0.2c0.2,0,0.5-0.1,0.7-0.1c0.7-0.1,1.4-0.1,2.2-0.1c1.8,0,3.6,0,5.4,0.2c1.8,0.2,3.6,0.5,5.3,0.9
			c1.7,0.4,3.5,0.9,5.1,1.6c1.7,0.6,3.3,1.4,4.9,2.2c0.7,0.4,1.4,0.7,2.2,1c0.7,0.3,1.5,0.5,2.3,0.7c0.8,0.2,1.5,0.3,2.3,0.4
			c0.8,0.1,1.6,0.1,2.4,0.1c0.7,0,1.3-0.1,2-0.2c0.2,0,0.4-0.1,0.5-0.1c0.5-0.1,0.9-0.2,1.4-0.3c0,0,0,0,0.1,0
			c0.2-0.1,0.5-0.1,0.7-0.2c0.4-0.1,0.7-0.2,1.1-0.3c0.3-0.1,0.5-0.2,0.8-0.3c0.3-0.1,0.7-0.3,1-0.4c0,0,0.1,0,0.1,0
			c0.2-0.1,0.4-0.2,0.6-0.4c0.3-0.2,0.6-0.3,0.9-0.5c0.2-0.2,0.5-0.3,0.7-0.5c0.3-0.2,0.6-0.4,0.8-0.6c0,0,0.1-0.1,0.1-0.1
			c0.2-0.1,0.3-0.3,0.5-0.5c0.3-0.2,0.5-0.4,0.8-0.7c0.2-0.2,0.4-0.4,0.6-0.6c0.3-0.3,0.6-0.6,0.8-0.9c0.1-0.2,0.3-0.4,0.4-0.5
			c0.1-0.2,0.3-0.4,0.4-0.5c0.1-0.2,0.2-0.4,0.4-0.6c0.1-0.2,0.2-0.4,0.3-0.6c0.3-0.5,0.5-1,0.7-1.5c0,0,0-0.1,0-0.1
			c0.2-0.5,0.4-0.9,0.5-1.4c0,0,0-0.1,0.1-0.1c0,0,0-0.1,0-0.1c0.2-0.5,0.3-1,0.4-1.5c0,0,0,0,0,0c0.1-0.5,0.2-1.1,0.3-1.6
			c0.1-1.1,0.1-2.2,0-3.4s-0.3-2.2-0.6-3.3c-0.3-1.1-0.8-2.2-1.3-3.2c-0.5-1-1.2-1.9-1.9-2.8c-0.7-0.9-1.5-1.7-2.4-2.4
			c-0.9-0.7-1.9-1.4-2.9-1.9c-3-1.6-6-3-9.2-4.2c-3.1-1.2-6.3-2.2-9.6-2.9c-3.3-0.8-6.6-1.3-9.9-1.7c-3.3-0.3-6.7-0.5-10.1-0.4
			c-10.4,0.3-20.3,2.6-29.2,6.5c-9,3.9-17,9.5-23.8,16.4c-4.5,4.6-8.5,9.8-11.7,15.4C244.1,374.8,266.3,392.3,283.1,398.3z"/>
		<path id="XMLID_3131_" fill="none" stroke="#1A457F" stroke-width="2.174" stroke-miterlimit="10" d="M314.9,445
			c-2.3,0.3-4.6,0.6-6.9,0.7c-2.3,0.2-4.6,0.3-7,0.3V457l0.3,0.2l27-14.7c-2.2,0.6-4.4,1.1-6.6,1.5
			C319.4,444.3,317.2,444.7,314.9,445z"/>
		<path id="XMLID_3130_" fill="none" stroke="#1A457F" stroke-width="2.174" stroke-miterlimit="10" d="M363.4,315.7
			c-0.6-0.8-1.2-1.6-1.8-2.4c-3.4-4.2-7.2-8-11.4-11.4c0.1,0.2,0.2,0.5,0.3,0.7c0.1,0.2,0.2,0.5,0.3,0.7c0.1,0.2,0.2,0.5,0.2,0.7
			c0.1,0.2,0.2,0.5,0.2,0.7c0.1,0.4,0.2,0.9,0.4,1.3c0,0.1,0.1,0.3,0.1,0.4c0.1,0.3,0.1,0.6,0.2,0.9c0,0.2,0.1,0.3,0.1,0.5
			c0,0.3,0.1,0.6,0.1,0.8c0,0.2,0,0.3,0.1,0.5c0,0.1,0,0.2,0,0.4c0,0.2,0,0.3,0,0.5c0,0.2,0,0.3,0,0.5c0,0.3,0,0.6,0,0.9
			c0,0.1,0,0.3,0,0.4c0,0.4,0,0.8,0,1.2c0,0,0,0.1,0,0.1c0,0.4-0.1,0.8-0.1,1.2c0,0,0,0.1,0,0.1c0,0.1,0,0.3-0.1,0.4
			c0,0.3-0.1,0.6-0.1,0.9c-0.2,1.1-0.5,2.2-0.8,3.3c-0.3,0.9-0.6,1.8-1,2.6c-0.3,0.6-0.6,1.2-0.9,1.8c-0.2,0.4-0.5,0.8-0.7,1.2
			c-0.2,0.4-0.5,0.8-0.8,1.1c-0.3,0.4-0.5,0.7-0.8,1.1c-0.3,0.4-0.6,0.7-0.9,1c-1.1,1.3-2.4,2.4-3.8,3.4c-0.7,0.5-1.5,1-2.3,1.5
			c-0.2,0.1-0.5,0.2-0.7,0.4c-0.5,0.3-1,0.5-1.5,0.8c-1.6,0.7-3.2,1.3-4.9,1.7c-1.7,0.4-3.4,0.6-5.2,0.7c-0.2,0-0.4,0-0.6,0
			c-0.2,0-0.4,0-0.6,0c-0.2,0-0.4,0-0.6,0s-0.4,0-0.6,0c1.6,1.6,3,3.3,4.2,5.1c1.2,1.8,2.3,3.7,3.2,5.8c0.9,2,1.6,4.2,2.1,6.4
			c0.5,2.2,0.8,4.5,0.9,6.9c0,0.6,0,1.1,0,1.7c0,0.2,0,0.4,0,0.6c0,0.4,0,0.7,0,1.1c0,0.2,0,0.4,0,0.6c0,0.3-0.1,0.7-0.1,1
			c0,0.2-0.1,0.5-0.1,0.7c-0.1,0.4-0.1,0.8-0.2,1.2c-0.2,1.4-0.5,2.7-0.9,4c-0.2,0.8-0.5,1.7-0.8,2.5c-0.8,2.1-1.7,4.1-2.8,6
			c-0.6,1-1.2,1.9-1.8,2.8C338.2,375.9,363.1,355.3,363.4,315.7z"/>
		<path id="XMLID_3129_" fill="none" stroke="#1A457F" stroke-width="2.174" stroke-miterlimit="10" d="M378.8,359
			c-0.2-5.8-1.1-11.4-2.5-16.8c-1.4-5.4-3.4-10.5-5.9-15.4c-2-3.9-4.4-7.7-7-11.2c-0.3,39.6-25.2,60.2-34.7,66.7
			c-0.6,0.9-1.3,1.7-2,2.6c0.2,0,0.4-0.1,0.7-0.1c0.2,0,0.4,0,0.7-0.1c0.2,0,0.4,0,0.7,0c0.2,0,0.4,0,0.7,0c1.8,0,3.5,0.1,5.3,0.4
			c1.7,0.3,3.4,0.8,5,1.4c1.6,0.6,3.2,1.4,4.6,2.4c1.5,0.9,2.8,2,4.1,3.2c0.3,0.3,0.7,0.7,1,1c0.3,0.3,0.6,0.7,0.9,1.1
			c0.3,0.4,0.6,0.7,0.9,1.1c0.3,0.4,0.5,0.8,0.8,1.2c0.3,0.4,0.5,0.9,0.8,1.3c0.1,0.1,0.1,0.3,0.2,0.4c0.2,0.3,0.3,0.6,0.5,0.9
			c0.1,0.2,0.2,0.3,0.2,0.5c0.1,0.3,0.3,0.6,0.4,0.8c0.1,0.2,0.2,0.4,0.2,0.6c0.1,0.3,0.2,0.5,0.3,0.8c0,0,0,0,0,0.1
			c0.1,0.2,0.1,0.4,0.2,0.6c0.1,0.3,0.2,0.5,0.2,0.8c0.1,0.2,0.1,0.4,0.2,0.6c0.1,0.3,0.1,0.5,0.2,0.8c0.1,0.2,0.1,0.4,0.1,0.6
			c0.1,0.3,0.1,0.5,0.2,0.8c0,0.2,0.1,0.4,0.1,0.6c0,0.3,0.1,0.5,0.1,0.8c0,0,0,0.1,0,0.1c0,0.2,0,0.3,0,0.5c0,0.3,0,0.5,0.1,0.8
			c0,0.2,0,0.4,0,0.7c0,0.3,0,0.5,0,0.8c0,0.2,0,0.4,0,0.7c0,0.2,0,0.5,0,0.7c0,0.2,0,0.5,0,0.7c0,0.2,0,0.5-0.1,0.7
			c0,0.1,0,0.1,0,0.2c0,0.2,0,0.3-0.1,0.5c0,0.2-0.1,0.5-0.1,0.7c0,0.2-0.1,0.4-0.1,0.7c0,0.2-0.1,0.5-0.1,0.7
			c0,0.2-0.1,0.4-0.2,0.6c-0.1,0.2-0.1,0.5-0.2,0.7c-0.1,0.2-0.1,0.4-0.2,0.6c-0.1,0.3-0.2,0.7-0.3,1c0,0,0,0,0,0c0,0,0,0,0,0
			c0.9-0.8,1.7-1.7,2.6-2.6c0.1-0.1,0.3-0.3,0.4-0.4c0.8-0.9,1.6-1.8,2.4-2.7c0.1-0.2,0.3-0.3,0.4-0.5c0.5-0.6,1-1.2,1.4-1.8
			c0.4-0.5,0.8-1,1.2-1.6c0.5-0.7,1-1.3,1.5-2c0.2-0.3,0.5-0.6,0.7-1c0.1-0.2,0.2-0.3,0.3-0.5c0.6-0.9,1.2-1.7,1.7-2.6
			c0.1-0.2,0.2-0.3,0.3-0.5c0.6-1,1.2-2,1.8-3.1c0.1-0.2,0.2-0.4,0.3-0.6c0.6-1.1,1.1-2.1,1.7-3.2c0-0.1,0.1-0.2,0.1-0.3
			c0.5-1.1,1-2.3,1.5-3.4c0-0.1,0.1-0.1,0.1-0.2c0,0,0-0.1,0.1-0.1c2.1-5,3.6-10.3,4.6-15.7C378.7,370.5,379.1,364.8,378.8,359z"/>
		<path id="XMLID_3128_" fill="none" stroke="#1A457F" stroke-width="2.174" stroke-miterlimit="10" d="M346.8,417.2
			c0.1-0.3,0.2-0.5,0.3-0.8c0,0,0,0,0-0.1c0,0,0-0.1,0-0.1c0.1-0.2,0.2-0.4,0.2-0.6C347.2,416.2,347,416.7,346.8,417.2
			C346.8,417.3,346.8,417.3,346.8,417.2z"/>
		<path id="XMLID_3127_" fill="none" stroke="#1A457F" stroke-width="2.174" stroke-miterlimit="10" d="M346.4,418c0,0,0-0.1,0-0.1
			c0,0,0,0,0,0c0,0,0-0.1,0-0.1c0.1-0.2,0.2-0.3,0.2-0.5c-0.2,0.5-0.4,1-0.7,1.4C346.2,418.5,346.3,418.3,346.4,418z"/>
		<path id="XMLID_3126_" fill="none" stroke="#1A457F" stroke-width="2.174" stroke-miterlimit="10" d="M277.4,434.3
			c1.1,0.3,2.2,0.6,3.3,0.8C279.6,434.9,278.5,434.6,277.4,434.3C277.4,434.3,277.4,434.3,277.4,434.3z"/>
		<path id="XMLID_3125_" fill="none" stroke="#1A457F" stroke-width="2.174" stroke-miterlimit="10" d="M222,363.1
			c0.1,10.4,2.4,20.2,6.4,29.2c0.5,1,0.9,2,1.4,3c0.1,0.3,0.3,0.6,0.4,0.9c0.4,0.7,0.8,1.4,1.2,2.1c0.2,0.3,0.3,0.6,0.5,0.9
			c0.5,0.9,1,1.7,1.6,2.6c0.1,0.1,0.1,0.2,0.2,0.2c0.6,0.9,1.2,1.8,1.8,2.7c0.2,0.3,0.4,0.5,0.6,0.8c0.5,0.6,0.9,1.3,1.4,1.9
			c0.2,0.3,0.4,0.5,0.6,0.8c0.6,0.8,1.3,1.6,1.9,2.4c0.1,0.1,0.1,0.1,0.2,0.2c0.7,0.8,1.5,1.6,2.2,2.4c0.2,0.2,0.4,0.5,0.7,0.7
			c0.6,0.6,1.1,1.2,1.7,1.7c0.2,0.2,0.5,0.5,0.7,0.7c0.8,0.7,1.5,1.4,2.3,2.1c0,0,0.1,0.1,0.1,0.1c0.8,0.7,1.7,1.4,2.6,2.1
			c0.3,0.2,0.5,0.4,0.8,0.6c0.6,0.5,1.3,1,2,1.5c0.3,0.2,0.5,0.4,0.8,0.6c0.9,0.6,1.7,1.2,2.6,1.7c0.1,0,0.1,0.1,0.2,0.1
			c0.9,0.6,1.9,1.2,2.8,1.7c0.3,0.2,0.6,0.3,0.9,0.5c0.7,0.4,1.4,0.8,2.2,1.2c0.3,0.2,0.6,0.3,0.9,0.5c1,0.5,2,1,3,1.4c0,0,0,0,0,0
			c1,0.5,2.1,0.9,3.1,1.3c0.3,0.1,0.6,0.2,0.9,0.3c0.8,0.3,1.6,0.6,2.4,0.9c0.3,0.1,0.6,0.2,0.9,0.3c1.1,0.4,2.1,0.7,3.2,1
			c0,0,0,0,0.1,0c1.1,0.3,2.2,0.6,3.3,0.8c0.3,0.1,0.7,0.2,1,0.2c0.8,0.2,1.6,0.3,2.5,0.5c0.4,0.1,0.7,0.1,1.1,0.2
			c1.1,0.2,2.2,0.4,3.3,0.5c0.1,0,0.2,0,0.2,0c1.1,0.1,2.3,0.2,3.4,0.3c0.4,0,0.7,0.1,1.1,0.1c0.9,0.1,1.7,0.1,2.6,0.1
			c0.4,0,0.7,0,1.1,0c1.2,0,2.4,0,3.6,0c3.5-0.1,7-0.4,10.4-1c3.4-0.6,6.8-1.3,10.1-2.3c3.3-1,6.6-2.2,9.7-3.7
			c3.2-1.4,6.2-3.1,9.1-4.9c0.5-0.3,1-0.7,1.5-1c0.1-0.1,0.2-0.2,0.3-0.2c0,0,0,0,0.1,0c0.3-0.3,0.7-0.6,1-0.9
			c0.1-0.1,0.1-0.1,0.2-0.2c0,0,0.1-0.1,0.1-0.1c0.3-0.3,0.6-0.6,0.9-1c0,0,0,0,0-0.1c0,0,0.1-0.1,0.1-0.1c0.3-0.4,0.6-0.8,0.9-1.2
			c0.1-0.1,0.1-0.2,0.2-0.3c0.3-0.4,0.6-0.9,0.8-1.3c0,0,0-0.1,0.1-0.1c0.3-0.5,0.5-0.9,0.7-1.4c0,0,0,0,0,0
			c0.2-0.5,0.4-1.1,0.6-1.6c0,0,0,0,0,0l0,0c0,0,0,0,0,0c0.2-0.5,0.3-1.1,0.4-1.7c0.5-2.2,0.5-4.6,0.1-6.9c-0.4-2.3-1.3-4.5-2.6-6.6
			c-0.1-0.2-0.3-0.4-0.4-0.6c-0.1-0.2-0.3-0.4-0.4-0.6c-0.1-0.2-0.3-0.4-0.4-0.5c-0.1-0.2-0.3-0.3-0.4-0.5c-0.2-0.3-0.5-0.5-0.8-0.8
			c-0.7-0.7-1.4-1.3-2.1-1.9c-1.1-0.8-2.2-1.4-3.4-1.9c-1.2-0.5-2.5-0.9-3.8-1.2c-1.3-0.3-2.6-0.4-4-0.3c-0.8,0-1.6,0.1-2.4,0.2
			c-0.5,0.1-0.9,0.2-1.4,0.3c-0.3,0.1-0.6,0.2-1,0.3c-0.8,0.2-1.5,0.5-2.3,0.9c-0.7,0.3-1.5,0.7-2.1,1.1c-1.6,1-3.2,1.8-4.8,2.6
			c-1.7,0.8-3.4,1.4-5.1,1.9c-1.8,0.5-3.5,0.9-5.4,1.2c0,0-0.9,0.2-2.6,0.3c-1,0.1-2,0.2-3,0.2c-5.7,0.1-11.1-0.8-16-2.8
			c-0.2-0.1-0.3-0.1-0.5-0.2c-16.8-6-39-23.5-51.2-72.9c-1.6,2.7-3,5.6-4.2,8.5C223.9,343,221.9,352.8,222,363.1z"/>
		<path id="XMLID_3124_" fill="none" stroke="#1A457F" stroke-width="2.174" stroke-miterlimit="10" d="M300.9,446.1
			c-2.4,0-4.8,0-7.2-0.1c-2.4-0.1-4.7-0.3-7-0.5c-2.3-0.2-4.6-0.5-6.8-0.9c-2.2-0.4-4.5-0.8-6.6-1.3L301,457L300.9,446.1
			C300.9,446.1,300.9,446.1,300.9,446.1z"/>
	</g>
</g>
</svg>
