<?xml version="1.0" encoding="utf-8"?>
<!-- Generator: Adobe Illustrator 18.1.1, SVG Export Plug-In . SVG Version: 6.00 Build 0)  -->
<svg version="1.1" id="Layer_1" xmlns="http://www.w3.org/2000/svg" xmlns:xlink="http://www.w3.org/1999/xlink" x="0px" y="0px"
	 viewBox="0 0 592.3 1184.4" enable-background="new 0 0 592.3 1184.4" xml:space="preserve">
<g id="XMLID_3315_">
	<text transform="matrix(1 0 0 1 105.5625 563.22)" fill="#1A457F" font-family="'HelveticaNeue-Thin'" font-size="59.5174">Farmacia Salud</text>
</g>
<g id="XMLID_2939_">
	<g id="XMLID_3118_">
		<linearGradient id="XMLID_5_" gradientUnits="userSpaceOnUse" x1="296.1477" y1="-36.0981" x2="296.1477" y2="777.9903">
			<stop  offset="0" style="stop-color:#1A457F"/>
			<stop  offset="1" style="stop-color:#025497;stop-opacity:0"/>
		</linearGradient>
		<path id="XMLID_3119_" fill="url(#XMLID_5_)" d="M506.4,1184.4H85.9c-47.4,0-85.9-38.6-85.9-85.9V85.9C0,38.6,38.6,0,85.9,0h420.4
			c47.4,0,85.9,38.6,85.9,85.9v1012.5C592.3,1145.8,553.7,1184.4,506.4,1184.4z M85.9,3.9C40.7,3.9,3.9,40.7,3.9,85.9v1012.5
			c0,45.3,36.8,82.1,82.1,82.1h420.4c45.3,0,82.1-36.8,82.1-82.1V85.9c0-45.3-36.8-82.1-82.1-82.1H85.9z"/>
	</g>
	<g id="XMLID_3113_">
		<linearGradient id="XMLID_6_" gradientUnits="userSpaceOnUse" x1="296.1477" y1="-36.0981" x2="296.1477" y2="777.9903">
			<stop  offset="0" style="stop-color:#1A457F"/>
			<stop  offset="1" style="stop-color:#025497;stop-opacity:0"/>
		</linearGradient>
		<path id="XMLID_3114_" fill="url(#XMLID_6_)" d="M503.6,1164.5H88.7c-45.7,0-83-37.2-83-83V89.9c0-45.7,37.2-83,83-83h414.9
			c45.7,0,83,37.2,83,83v991.6C586.6,1127.3,549.4,1164.5,503.6,1164.5z M88.7,10.9c-43.6,0-79.1,35.5-79.1,79.1v991.6
			c0,43.6,35.5,79.1,79.1,79.1h414.9c43.6,0,79.1-35.5,79.1-79.1V89.9c0-43.6-35.5-79.1-79.1-79.1H88.7z"/>
	</g>
	<g id="XMLID_2951_">
		<linearGradient id="XMLID_7_" gradientUnits="userSpaceOnUse" x1="296.1477" y1="-36.0981" x2="296.1477" y2="777.9903">
			<stop  offset="0" style="stop-color:#1A457F"/>
			<stop  offset="1" style="stop-color:#025497;stop-opacity:0"/>
		</linearGradient>
		<path id="XMLID_2952_" fill="url(#XMLID_7_)" d="M562,1056.2H30.3c-4.7,0-8.6-3.8-8.6-8.6v-917c0-4.7,3.8-8.6,8.6-8.6H562
			c4.7,0,8.6,3.8,8.6,8.6v917C570.6,1052.3,566.7,1056.2,562,1056.2z M30.3,125.5c-2.8,0-5.1,2.3-5.1,5.1v917c0,2.8,2.3,5.1,5.1,5.1
			H562c2.8,0,5.1-2.3,5.1-5.1v-917c0-2.8-2.3-5.1-5.1-5.1H30.3z"/>
	</g>
	<g id="XMLID_2946_">
		<linearGradient id="XMLID_8_" gradientUnits="userSpaceOnUse" x1="238.6086" y1="-36.0981" x2="238.6086" y2="777.9903">
			<stop  offset="0" style="stop-color:#1A457F"/>
			<stop  offset="1" style="stop-color:#025497;stop-opacity:0"/>
		</linearGradient>
		<path id="XMLID_2947_" fill="url(#XMLID_8_)" d="M238.6,71.2c-4.9,0-8.9-4-8.9-8.9c0-4.9,4-8.9,8.9-8.9c4.9,0,8.9,4,8.9,8.9
			C247.5,67.2,243.5,71.2,238.6,71.2z M238.6,56.4c-3.2,0-5.8,2.6-5.8,5.8c0,3.2,2.6,5.8,5.8,5.8c3.2,0,5.8-2.6,5.8-5.8
			C244.5,59.1,241.8,56.4,238.6,56.4z"/>
	</g>
	<g id="XMLID_2940_">
		<linearGradient id="XMLID_9_" gradientUnits="userSpaceOnUse" x1="298.4585" y1="-36.0981" x2="298.4585" y2="777.9903">
			<stop  offset="0" style="stop-color:#1A457F"/>
			<stop  offset="1" style="stop-color:#025497;stop-opacity:0"/>
		</linearGradient>
		<path id="XMLID_2941_" fill="url(#XMLID_9_)" d="M333.7,71.2h-70.5c-4.9,0-8.9-4-8.9-8.9c0-4.9,4-8.9,8.9-8.9h70.5
			c4.9,0,8.9,4,8.9,8.9C342.6,67.2,338.6,71.2,333.7,71.2z M263.2,56.4c-3.2,0-5.8,2.6-5.8,5.8c0,3.2,2.6,5.8,5.8,5.8h70.5
			c3.2,0,5.8-2.6,5.8-5.8c0-3.2-2.6-5.8-5.8-5.8H263.2z"/>
	</g>
</g>
<g id="XMLID_125_">
	<text transform="matrix(1 0 0 1 248.9917 685.7969)" fill="#1A457F" font-family="'HelveticaNeue-Thin'" font-size="45.8637">-50%</text>
</g>
<g id="XMLID_188_">
	<text transform="matrix(1 0 0 1 364.6411 267.6694)" fill="#1A457F" font-family="'HelveticaNeue-Thin'" font-size="59.9216">1</text>
</g>
<polygon id="XMLID_122_" fill="none" stroke="#1A457F" stroke-width="0.9937" stroke-miterlimit="10" points="299.6,597.4 
	310,606.3 322.6,601 329.7,612.7 343.4,611.6 346.5,624.9 359.9,628.1 358.8,641.7 370.5,648.9 365.2,661.5 374.1,671.9 
	365.2,682.3 370.5,694.9 358.8,702 359.9,715.7 346.5,718.9 343.4,732.2 329.7,731.1 322.6,742.8 310,737.5 299.6,746.4 
	289.2,737.5 276.5,742.8 269.4,731.1 255.8,732.2 252.6,718.9 239.3,715.7 240.4,702 228.7,694.9 234,682.3 225,671.9 234,661.5 
	228.7,648.9 240.4,641.7 239.3,628.1 252.6,624.9 255.8,611.6 269.4,612.7 276.5,601 289.2,606.3 "/>
<path id="XMLID_189_" fill="none" stroke="#1A457F" stroke-width="2" stroke-miterlimit="10" d="M393.6,283.3v98.2
	c0,25.3-20.7,46-46,46H246.5c-25.3,0-46-20.7-46-46V280.4c0-25.3,20.7-46,46-46H343"/>
<g id="XMLID_1191_">
	<path id="XMLID_3348_" fill="none" stroke="#1A457F" stroke-width="2" stroke-miterlimit="10" d="M268.1,300.6
		c-0.1,0.1-0.2,0.2-0.2,0.3c0.2-0.3,0.5-0.5,0.7-0.7C268.4,300.2,268.2,300.4,268.1,300.6z"/>
	<path id="XMLID_3338_" fill="none" stroke="#1A457F" stroke-width="2" stroke-miterlimit="10" d="M279.7,292.5
		c-0.2,0.1-0.5,0.2-0.7,0.3c0.3-0.2,0.7-0.3,1-0.5C279.9,292.4,279.8,292.4,279.7,292.5z"/>
	<path id="XMLID_3337_" fill="none" stroke="#1A457F" stroke-width="2" stroke-miterlimit="10" d="M321.6,295.8
		c0.6,0,1.2-0.1,1.8-0.1C322.8,295.8,322.2,295.8,321.6,295.8z"/>
	<path id="XMLID_3336_" fill="none" stroke="#1A457F" stroke-width="2" stroke-miterlimit="10" d="M337,283.7
		C337,283.7,337,283.7,337,283.7L337,283.7L337,283.7c0-0.1,0.1-0.2,0.1-0.4c0,0,0,0,0,0c-0.1,0.5-0.2,0.9-0.4,1.4
		c0-0.1,0-0.1,0.1-0.2C336.9,284.2,336.9,283.9,337,283.7z"/>
	<path id="XMLID_2107_" fill="none" stroke="#1A457F" stroke-width="2" stroke-miterlimit="10" d="M260.3,312.3
		c-0.1,0.1-0.1,0.3-0.2,0.5c0.1-0.3,0.3-0.7,0.4-1C260.4,312,260.4,312.2,260.3,312.3z"/>
	<path id="XMLID_2106_" fill="none" stroke="#1A457F" stroke-width="2" stroke-miterlimit="10" d="M325.1,295.3
		c-0.4,0.1-0.8,0.2-1.3,0.2C324.3,295.5,324.7,295.4,325.1,295.3C325.1,295.3,325.1,295.3,325.1,295.3z"/>
	<path id="XMLID_2105_" fill="none" stroke="#1A457F" stroke-width="2" stroke-miterlimit="10" d="M328.5,294.1
		c-0.3,0.1-0.6,0.3-0.9,0.4C327.8,294.4,328.1,294.3,328.5,294.1C328.4,294.2,328.4,294.1,328.5,294.1z"/>
	<path id="XMLID_2104_" fill="none" stroke="#1A457F" stroke-width="2" stroke-miterlimit="10" d="M333.8,289.9
		C333.9,289.9,333.9,289.9,333.8,289.9c0.1-0.1,0.1-0.1,0.1-0.2c0,0,0-0.1,0.1-0.1c-0.2,0.3-0.5,0.6-0.8,0.8
		C333.4,290.3,333.6,290.2,333.8,289.9C333.8,290,333.8,289.9,333.8,289.9z"/>
	<path id="XMLID_2103_" fill="none" stroke="#1A457F" stroke-width="2" stroke-miterlimit="10" d="M335.6,287.3
		c0-0.1,0.1-0.1,0.1-0.2c0-0.1,0.1-0.1,0.1-0.2c0.1-0.1,0.1-0.3,0.2-0.4c0,0,0-0.1,0.1-0.1c0,0,0,0,0-0.1c-0.2,0.5-0.4,0.9-0.7,1.4
		c0-0.1,0.1-0.1,0.1-0.2C335.6,287.4,335.6,287.3,335.6,287.3z"/>
	<path id="XMLID_2102_" fill="none" stroke="#1A457F" stroke-width="2" stroke-miterlimit="10" d="M336.5,285.3c0-0.1,0-0.1,0.1-0.2
		c0,0,0-0.1,0-0.1c0,0,0-0.1,0-0.1l0,0c-0.1,0.4-0.3,0.9-0.5,1.3c0,0,0-0.1,0-0.1C336.3,285.8,336.4,285.6,336.5,285.3z"/>
	<path id="XMLID_2101_" fill="none" stroke="#1A457F" stroke-width="2" stroke-miterlimit="10" d="M331.4,292.3
		c-0.3,0.2-0.5,0.4-0.8,0.6c0.2-0.2,0.4-0.3,0.7-0.5C331.3,292.3,331.4,292.3,331.4,292.3z"/>
	<path id="XMLID_2100_" fill="none" stroke="#1A457F" stroke-width="2" stroke-miterlimit="10" d="M346.5,363.1
		C346.5,363,346.5,363,346.5,363.1c0,0.1,0.1,0.3,0.2,0.5C346.6,363.4,346.6,363.2,346.5,363.1z"/>
	<path id="XMLID_2099_" fill="none" stroke="#1A457F" stroke-width="2" stroke-miterlimit="10" d="M328.8,330c0-0.2,0.1-0.4,0.1-0.6
		c0,0,0,0,0,0C328.8,329.6,328.8,329.8,328.8,330z"/>
	<g id="XMLID_1300_">
		<polygon id="XMLID_2098_" fill="none" stroke="#1A457F" stroke-width="2" stroke-miterlimit="10" points="271,337.6 295.3,304 
			295.3,351.3 		"/>
		<g id="XMLID_1301_">
			<polygon id="XMLID_2097_" opacity="0.4" fill="#1A457F" points="295.3,322.9 305,317.4 303.3,314.9 295.3,319.4 			"/>
			<polygon id="XMLID_2096_" opacity="0.4" fill="#1A457F" points="295.3,334.3 310.9,325.5 309.1,323 295.3,330.8 			"/>
			<polygon id="XMLID_2094_" opacity="0.4" fill="#1A457F" points="295.3,317.2 302.1,313.4 300.3,310.9 295.3,313.7 			"/>
			<polygon id="XMLID_1308_" opacity="0.4" fill="#1A457F" points="295.3,345.6 316.7,333.5 314.9,331 295.3,342.1 			"/>
			<polygon id="XMLID_1307_" opacity="0.4" fill="#1A457F" points="295.3,328.6 308,321.4 306.2,318.9 295.3,325.1 			"/>
			<polygon id="XMLID_1306_" opacity="0.4" fill="#1A457F" points="295.3,339.9 313.8,329.5 312,327 295.3,336.4 			"/>
			<polygon id="XMLID_1305_" opacity="0.4" fill="#1A457F" points="295.3,351.3 319.6,337.6 317.8,335.1 295.3,347.8 			"/>
			<polygon id="XMLID_1303_" opacity="0.4" fill="#1A457F" points="295.3,304 295.3,305.9 296.3,305.3 			"/>
			<polygon id="XMLID_1302_" opacity="0.4" fill="#1A457F" points="297.4,306.8 295.3,308 295.3,311.5 299.2,309.3 			"/>
		</g>
	</g>
	<g id="XMLID_1192_">
		<path id="XMLID_1299_" fill="none" stroke="#1A457F" stroke-width="2" stroke-miterlimit="10" d="M280.8,359.9
			c-4.4-1.8-8.3-4.3-11.7-7.5c-3.5-3.3-6.3-7.2-8.3-11.5c-0.3-0.7-0.6-1.4-0.9-2.2c-0.5-1.4-1-2.9-1.4-4.4c-0.1-0.4-0.2-0.7-0.2-1.1
			c-0.1-0.3-0.1-0.5-0.2-0.8c-0.1-0.4-0.1-0.8-0.2-1.2c0-0.2-0.1-0.5-0.1-0.7c-0.1-0.4-0.1-0.9-0.1-1.3c0-0.2,0-0.4-0.1-0.6
			c0-0.6-0.1-1.3-0.1-2c0-0.2,0-0.3,0-0.5c0-0.2,0-0.3,0-0.5c0-0.5,0-1,0-1.5c0-0.2,0-0.5,0-0.7c0-0.5,0.1-1,0.1-1.5
			c0-0.2,0-0.4,0.1-0.6c0.1-0.7,0.2-1.4,0.3-2.1c0-0.1,0-0.2,0.1-0.2c0.1-0.6,0.3-1.2,0.4-1.8c0-0.1,0-0.1,0.1-0.2
			c0-0.2,0.1-0.4,0.2-0.6c0.1-0.4,0.2-0.7,0.3-1.1c0.1-0.3,0.2-0.5,0.3-0.8c0.1-0.3,0.2-0.7,0.4-1c0.1-0.3,0.2-0.5,0.3-0.8
			c0.1-0.1,0.1-0.3,0.2-0.5c0.1-0.2,0.2-0.4,0.2-0.5c0.1-0.3,0.2-0.5,0.3-0.7c0.2-0.3,0.3-0.7,0.5-1c0.1-0.2,0.2-0.3,0.2-0.5
			c0-0.1,0.1-0.1,0.1-0.2c0.2-0.5,0.5-0.9,0.7-1.4c0.1-0.1,0.1-0.3,0.2-0.4c0.3-0.6,0.7-1.1,1.1-1.7c0.1-0.1,0.2-0.3,0.3-0.4
			c0.3-0.4,0.6-0.8,0.9-1.2c0.1-0.2,0.3-0.4,0.4-0.6c0.3-0.3,0.5-0.7,0.8-1c0.1-0.1,0.2-0.2,0.2-0.3c0.1-0.1,0.2-0.2,0.3-0.3
			c0.2-0.3,0.5-0.5,0.7-0.8c0.2-0.2,0.4-0.4,0.6-0.6c0.1-0.1,0.2-0.2,0.2-0.3c0.2-0.2,0.3-0.3,0.5-0.5c0.2-0.2,0.4-0.4,0.6-0.6
			c0.3-0.3,0.5-0.5,0.8-0.7c0.2-0.2,0.4-0.3,0.6-0.5c0.3-0.3,0.6-0.5,1-0.8c0.2-0.1,0.3-0.3,0.5-0.4c0.5-0.4,1-0.7,1.5-1.1
			c0,0,0,0,0,0c0.5-0.4,1-0.7,1.6-1c0.2-0.1,0.3-0.2,0.5-0.3c0.4-0.2,0.8-0.5,1.2-0.7c0.2-0.1,0.4-0.2,0.6-0.3
			c0.3-0.2,0.7-0.4,1.1-0.5c0.2-0.1,0.5-0.2,0.7-0.3c0.2-0.1,0.5-0.2,0.7-0.3c0.1,0,0.2-0.1,0.3-0.1c0.2-0.1,0.5-0.2,0.7-0.3
			c0.3-0.1,0.7-0.3,1-0.4c0.3-0.1,0.5-0.2,0.8-0.3c0.4-0.1,0.7-0.2,1.1-0.4c0.3-0.1,0.5-0.2,0.8-0.2c0.4-0.1,0.7-0.2,1.1-0.3
			c0.3-0.1,0.5-0.1,0.8-0.2c0.4-0.1,0.7-0.2,1.1-0.2c0.3-0.1,0.5-0.1,0.8-0.2c0.4-0.1,0.8-0.1,1.2-0.2c0.3,0,0.5-0.1,0.8-0.1
			c0.4-0.1,0.9-0.1,1.3-0.1c0.2,0,0.4,0,0.7-0.1c0.7-0.1,1.3-0.1,2-0.1c1.7,0,3.3,0,5,0.2c1.6,0.2,3.3,0.4,4.9,0.8
			c1.6,0.4,3.2,0.9,4.7,1.5c1.5,0.6,3,1.3,4.5,2.1c0.6,0.3,1.3,0.7,2,0.9c0.7,0.3,1.4,0.5,2.1,0.6c0.7,0.2,1.4,0.3,2.1,0.4
			c0.7,0.1,1.5,0.1,2.2,0.1c0.6,0,1.2-0.1,1.8-0.1c0.2,0,0.3-0.1,0.5-0.1c0.4-0.1,0.8-0.1,1.3-0.2c0,0,0,0,0.1,0
			c0.2-0.1,0.4-0.1,0.6-0.2c0.3-0.1,0.7-0.2,1-0.3c0.2-0.1,0.5-0.2,0.7-0.3c0.3-0.1,0.6-0.3,0.9-0.4c0,0,0.1,0,0.1,0
			c0.2-0.1,0.4-0.2,0.6-0.3c0.3-0.2,0.6-0.3,0.9-0.5c0.2-0.1,0.4-0.3,0.6-0.4c0.3-0.2,0.5-0.4,0.8-0.6c0,0,0.1-0.1,0.1-0.1
			c0.2-0.1,0.3-0.3,0.5-0.4c0.2-0.2,0.5-0.4,0.7-0.6c0.2-0.2,0.4-0.4,0.6-0.6c0.3-0.3,0.5-0.6,0.8-0.8c0.1-0.2,0.3-0.3,0.4-0.5
			c0.1-0.2,0.2-0.3,0.4-0.5c0.1-0.2,0.2-0.3,0.3-0.5c0.1-0.2,0.2-0.4,0.3-0.5c0.3-0.4,0.5-0.9,0.7-1.4c0,0,0-0.1,0-0.1
			c0.2-0.4,0.4-0.9,0.5-1.3c0,0,0-0.1,0-0.1c0,0,0-0.1,0-0.1c0.1-0.5,0.3-0.9,0.4-1.4c0,0,0,0,0,0c0.1-0.5,0.2-1,0.3-1.5
			c0.1-1,0.1-2.1,0-3.1c-0.1-1-0.3-2.1-0.6-3.1c-0.3-1-0.7-2-1.2-2.9c-0.5-0.9-1.1-1.8-1.7-2.6c-0.7-0.8-1.4-1.5-2.2-2.2
			c-0.8-0.7-1.7-1.3-2.7-1.8c-2.7-1.5-5.5-2.8-8.4-3.8c-2.9-1.1-5.8-2-8.8-2.7c-3-0.7-6.1-1.2-9.1-1.5c-3.1-0.3-6.2-0.4-9.3-0.4
			c-9.6,0.3-18.7,2.4-26.9,6c-8.2,3.6-15.7,8.8-21.9,15c-4.2,4.2-7.8,9-10.8,14.2C244.9,338.3,265.4,354.4,280.8,359.9z"/>
		<path id="XMLID_1200_" fill="none" stroke="#1A457F" stroke-width="2" stroke-miterlimit="10" d="M310.1,402.8
			c-2.1,0.3-4.2,0.5-6.4,0.7c-2.1,0.2-4.3,0.3-6.4,0.3v10l0.3,0.1l24.9-13.6c-2,0.5-4,1-6.1,1.4
			C314.3,402.2,312.2,402.6,310.1,402.8z"/>
		<path id="XMLID_1199_" fill="none" stroke="#1A457F" stroke-width="2" stroke-miterlimit="10" d="M354.7,283.8
			c-0.5-0.7-1.1-1.5-1.7-2.2c-3.1-3.8-6.6-7.4-10.5-10.5c0.1,0.2,0.2,0.4,0.3,0.6c0.1,0.2,0.2,0.4,0.2,0.6c0.1,0.2,0.2,0.4,0.2,0.6
			c0.1,0.2,0.1,0.4,0.2,0.7c0.1,0.4,0.2,0.8,0.3,1.2c0,0.1,0.1,0.3,0.1,0.4c0.1,0.3,0.1,0.6,0.2,0.8c0,0.1,0.1,0.3,0.1,0.4
			c0,0.3,0.1,0.5,0.1,0.8c0,0.2,0,0.3,0.1,0.5c0,0.1,0,0.2,0,0.3c0,0.1,0,0.3,0,0.4c0,0.2,0,0.3,0,0.5c0,0.3,0,0.5,0,0.8
			c0,0.1,0,0.3,0,0.4c0,0.4,0,0.7,0,1.1c0,0,0,0.1,0,0.1c0,0.4-0.1,0.7-0.1,1.1c0,0,0,0.1,0,0.1c0,0.1,0,0.2-0.1,0.4
			c0,0.3-0.1,0.6-0.1,0.8c-0.2,1-0.4,2-0.7,3c-0.3,0.8-0.6,1.6-1,2.4c-0.3,0.6-0.5,1.1-0.9,1.7c-0.2,0.4-0.4,0.7-0.7,1.1
			c-0.2,0.4-0.5,0.7-0.7,1c-0.2,0.3-0.5,0.7-0.8,1c-0.3,0.3-0.5,0.6-0.8,0.9c-1.1,1.2-2.2,2.2-3.5,3.1c-0.7,0.5-1.4,0.9-2.1,1.3
			c-0.2,0.1-0.4,0.2-0.7,0.3c-0.4,0.2-0.9,0.5-1.3,0.7c-1.4,0.7-2.9,1.2-4.5,1.5c-1.6,0.4-3.2,0.6-4.8,0.6c-0.2,0-0.4,0-0.6,0
			c-0.2,0-0.4,0-0.6,0c-0.2,0-0.4,0-0.6,0c-0.2,0-0.4,0-0.6,0c1.4,1.4,2.7,3,3.9,4.7c1.1,1.7,2.1,3.4,3,5.3c0.8,1.9,1.5,3.8,2,5.9
			c0.5,2,0.8,4.2,0.8,6.3c0,0.5,0,1,0,1.5c0,0.2,0,0.3,0,0.5c0,0.3,0,0.7,0,1c0,0.2,0,0.4,0,0.6c0,0.3,0,0.6-0.1,0.9
			c0,0.2,0,0.4-0.1,0.6c0,0.4-0.1,0.8-0.2,1.1c-0.2,1.3-0.5,2.5-0.8,3.7c-0.2,0.8-0.5,1.5-0.7,2.3c-0.7,1.9-1.6,3.8-2.6,5.5
			c-0.5,0.9-1.1,1.7-1.7,2.6C331.5,339.3,354.4,320.3,354.7,283.8z"/>
		<path id="XMLID_1198_" fill="none" stroke="#1A457F" stroke-width="2" stroke-miterlimit="10" d="M368.9,323.7
			c-0.2-5.3-1-10.5-2.3-15.5c-1.3-4.9-3.1-9.7-5.4-14.1c-1.9-3.6-4-7.1-6.5-10.3c-0.3,36.4-23.2,55.4-31.9,61.3
			c-0.6,0.8-1.2,1.6-1.9,2.3c0.2,0,0.4-0.1,0.6-0.1c0.2,0,0.4,0,0.6-0.1c0.2,0,0.4,0,0.6,0c0.2,0,0.4,0,0.6,0c1.6,0,3.3,0.1,4.8,0.4
			c1.6,0.3,3.1,0.7,4.6,1.3c1.5,0.6,2.9,1.3,4.2,2.2c1.3,0.9,2.6,1.9,3.7,3c0.3,0.3,0.6,0.6,0.9,0.9c0.3,0.3,0.6,0.6,0.9,1
			c0.3,0.3,0.5,0.7,0.8,1c0.3,0.3,0.5,0.7,0.7,1.1c0.3,0.4,0.5,0.8,0.7,1.2c0.1,0.1,0.1,0.3,0.2,0.4c0.2,0.3,0.3,0.6,0.4,0.8
			c0.1,0.2,0.1,0.3,0.2,0.5c0.1,0.3,0.2,0.5,0.4,0.8c0.1,0.2,0.1,0.4,0.2,0.5c0.1,0.2,0.2,0.5,0.3,0.7c0,0,0,0,0,0.1
			c0.1,0.2,0.1,0.3,0.2,0.5c0.1,0.2,0.2,0.5,0.2,0.7c0.1,0.2,0.1,0.4,0.2,0.6c0.1,0.2,0.1,0.5,0.2,0.7c0,0.2,0.1,0.4,0.1,0.6
			c0,0.2,0.1,0.5,0.1,0.7c0,0.2,0.1,0.4,0.1,0.6c0,0.2,0.1,0.5,0.1,0.7c0,0,0,0.1,0,0.1c0,0.2,0,0.3,0,0.5c0,0.2,0,0.5,0.1,0.7
			c0,0.2,0,0.4,0,0.6c0,0.2,0,0.5,0,0.7c0,0.2,0,0.4,0,0.6c0,0.2,0,0.5,0,0.7c0,0.2,0,0.4,0,0.6c0,0.2,0,0.4-0.1,0.7
			c0,0.1,0,0.1,0,0.2c0,0.1,0,0.3-0.1,0.4c0,0.2-0.1,0.4-0.1,0.7c0,0.2-0.1,0.4-0.1,0.6c0,0.2-0.1,0.4-0.1,0.7
			c0,0.2-0.1,0.4-0.1,0.6c-0.1,0.2-0.1,0.4-0.2,0.7c-0.1,0.2-0.1,0.4-0.2,0.6c-0.1,0.3-0.2,0.6-0.3,0.9c0,0,0,0,0,0c0,0,0,0,0,0
			c0.8-0.8,1.6-1.6,2.4-2.4c0.1-0.1,0.2-0.2,0.3-0.4c0.8-0.8,1.5-1.6,2.2-2.5c0.1-0.1,0.2-0.3,0.4-0.4c0.4-0.5,0.9-1.1,1.3-1.6
			c0.4-0.5,0.8-0.9,1.1-1.4c0.5-0.6,0.9-1.2,1.3-1.8c0.2-0.3,0.4-0.6,0.6-0.9c0.1-0.2,0.2-0.3,0.3-0.5c0.5-0.8,1.1-1.6,1.6-2.4
			c0.1-0.2,0.2-0.3,0.3-0.5c0.6-0.9,1.1-1.9,1.6-2.8c0.1-0.2,0.2-0.4,0.3-0.5c0.5-1,1-2,1.5-3c0-0.1,0.1-0.2,0.1-0.2
			c0.5-1,1-2.1,1.4-3.1c0-0.1,0.1-0.1,0.1-0.2c0,0,0-0.1,0.1-0.1c1.9-4.6,3.3-9.5,4.2-14.5C368.8,334.3,369.1,329,368.9,323.7z"/>
		<path id="XMLID_1197_" fill="none" stroke="#1A457F" stroke-width="2" stroke-miterlimit="10" d="M339.4,377.3
			c0.1-0.2,0.2-0.5,0.3-0.7c0,0,0,0,0,0c0,0,0-0.1,0-0.1c0.1-0.2,0.1-0.4,0.2-0.6C339.8,376.3,339.6,376.8,339.4,377.3
			C339.4,377.3,339.4,377.3,339.4,377.3z"/>
		<path id="XMLID_1196_" fill="none" stroke="#1A457F" stroke-width="2" stroke-miterlimit="10" d="M339.1,378
			C339.1,378,339.1,377.9,339.1,378c0.1-0.1,0.1-0.1,0.1-0.1c0,0,0-0.1,0-0.1c0.1-0.2,0.1-0.3,0.2-0.5c-0.2,0.4-0.4,0.9-0.6,1.3
			C338.9,378.4,339,378.2,339.1,378z"/>
		<path id="XMLID_1195_" fill="none" stroke="#1A457F" stroke-width="2" stroke-miterlimit="10" d="M275.6,393c1,0.3,2,0.5,3,0.8
			C277.6,393.5,276.6,393.3,275.6,393C275.6,393,275.6,393,275.6,393z"/>
		<path id="XMLID_1194_" fill="none" stroke="#1A457F" stroke-width="2" stroke-miterlimit="10" d="M224.6,327.5
			c0.1,9.5,2.2,18.6,5.9,26.8c0.4,0.9,0.9,1.9,1.3,2.8c0.1,0.3,0.3,0.5,0.4,0.8c0.3,0.7,0.7,1.3,1.1,2c0.2,0.3,0.3,0.5,0.5,0.8
			c0.5,0.8,0.9,1.6,1.4,2.4c0,0.1,0.1,0.2,0.1,0.2c0.5,0.8,1.1,1.7,1.7,2.5c0.2,0.2,0.4,0.5,0.5,0.7c0.4,0.6,0.9,1.2,1.3,1.8
			c0.2,0.2,0.4,0.5,0.6,0.7c0.6,0.7,1.2,1.5,1.8,2.2c0,0.1,0.1,0.1,0.1,0.2c0.7,0.8,1.3,1.5,2,2.2c0.2,0.2,0.4,0.4,0.6,0.6
			c0.5,0.5,1.1,1.1,1.6,1.6c0.2,0.2,0.4,0.4,0.7,0.6c0.7,0.7,1.4,1.3,2.2,1.9c0,0,0.1,0.1,0.1,0.1c0.8,0.7,1.6,1.3,2.4,1.9
			c0.2,0.2,0.5,0.4,0.7,0.5c0.6,0.5,1.2,0.9,1.8,1.3c0.3,0.2,0.5,0.4,0.8,0.5c0.8,0.5,1.6,1.1,2.4,1.6c0.1,0,0.1,0.1,0.2,0.1
			c0.9,0.5,1.7,1.1,2.6,1.6c0.3,0.2,0.5,0.3,0.8,0.4c0.7,0.4,1.3,0.7,2,1.1c0.3,0.1,0.5,0.3,0.8,0.4c0.9,0.5,1.8,0.9,2.8,1.3
			c0,0,0,0,0,0c0.9,0.4,1.9,0.8,2.9,1.2c0.3,0.1,0.5,0.2,0.8,0.3c0.7,0.3,1.5,0.5,2.2,0.8c0.3,0.1,0.6,0.2,0.9,0.3
			c1,0.3,2,0.6,3,0.9c0,0,0,0,0.1,0c1,0.3,2,0.5,3,0.8c0.3,0.1,0.6,0.1,1,0.2c0.7,0.2,1.5,0.3,2.3,0.5c0.3,0.1,0.7,0.1,1,0.2
			c1,0.2,2,0.3,3,0.5c0.1,0,0.1,0,0.2,0c1,0.1,2.1,0.2,3.1,0.3c0.3,0,0.7,0,1,0.1c0.8,0.1,1.6,0.1,2.4,0.1c0.3,0,0.7,0,1,0
			c1.1,0,2.2,0,3.3,0c3.2-0.1,6.4-0.4,9.6-0.9c3.2-0.5,6.3-1.2,9.3-2.2c3.1-0.9,6-2,8.9-3.4c2.9-1.3,5.7-2.8,8.4-4.5
			c0.5-0.3,0.9-0.6,1.3-0.9c0.1-0.1,0.2-0.1,0.2-0.2c0,0,0,0,0.1,0c0.3-0.3,0.6-0.5,0.9-0.8c0.1,0,0.1-0.1,0.1-0.2
			c0,0,0.1-0.1,0.1-0.1c0.3-0.3,0.6-0.6,0.9-0.9c0,0,0,0,0-0.1c0,0,0.1-0.1,0.1-0.1c0.3-0.4,0.6-0.7,0.8-1.1
			c0.1-0.1,0.1-0.2,0.2-0.2c0.3-0.4,0.5-0.8,0.7-1.2c0,0,0-0.1,0.1-0.1c0.2-0.4,0.5-0.9,0.6-1.3c0,0,0,0,0,0c0.2-0.5,0.4-1,0.6-1.5
			c0,0,0,0,0,0l0,0c0,0,0,0,0,0c0.2-0.5,0.3-1,0.4-1.5c0.4-2.1,0.5-4.2,0.1-6.3c-0.4-2.1-1.2-4.2-2.4-6.1c-0.1-0.2-0.2-0.4-0.4-0.5
			c-0.1-0.2-0.3-0.3-0.4-0.5c-0.1-0.2-0.3-0.3-0.4-0.5c-0.1-0.2-0.3-0.3-0.4-0.5c-0.2-0.3-0.5-0.5-0.7-0.7c-0.6-0.6-1.3-1.2-2-1.7
			c-1-0.7-2-1.3-3.1-1.8c-1.1-0.5-2.3-0.8-3.5-1.1c-1.2-0.2-2.4-0.3-3.7-0.3c-0.7,0-1.5,0.1-2.2,0.2c-0.4,0.1-0.9,0.2-1.3,0.3
			c-0.3,0.1-0.6,0.1-0.9,0.2c-0.7,0.2-1.4,0.5-2.1,0.8c-0.7,0.3-1.3,0.7-2,1.1c-1.4,0.9-2.9,1.7-4.4,2.4c-1.5,0.7-3.1,1.3-4.7,1.8
			c-1.6,0.5-3.3,0.9-4.9,1.1c0,0-0.8,0.2-2.3,0.3c-0.9,0.1-1.8,0.1-2.7,0.2c-5.2,0.1-10.2-0.8-14.7-2.5c-0.2-0.1-0.3-0.1-0.5-0.2
			c-15.4-5.5-35.9-21.6-47.1-67c-1.5,2.5-2.8,5.1-3.9,7.8C226.4,309,224.5,318,224.6,327.5z"/>
		<path id="XMLID_1193_" fill="none" stroke="#1A457F" stroke-width="2" stroke-miterlimit="10" d="M297.2,403.8
			c-2.2,0-4.4,0-6.6-0.1c-2.2-0.1-4.3-0.2-6.5-0.4c-2.1-0.2-4.2-0.5-6.3-0.8c-2.1-0.3-4.1-0.7-6.1-1.2l25.5,12.5L297.2,403.8
			C297.2,403.8,297.2,403.8,297.2,403.8z"/>
	</g>
</g>
<circle id="XMLID_185_" fill="none" stroke="#1A457F" stroke-width="4" stroke-miterlimit="10" cx="379.8" cy="247" r="38.8"/>
<polyline id="XMLID_798_" fill="none" stroke="#1A457F" stroke-width="2.0089" stroke-linecap="round" stroke-linejoin="round" stroke-miterlimit="10" points="
	254.9,492.8 300,461.4 345.7,492.8 "/>
</svg>
