<?xml version="1.0" encoding="utf-8"?>
<!-- Generator: Adobe Illustrator 18.1.1, SVG Export Plug-In . SVG Version: 6.00 Build 0)  -->
<svg version="1.1" id="Layer_1" xmlns="http://www.w3.org/2000/svg" xmlns:xlink="http://www.w3.org/1999/xlink" x="0px" y="0px"
	 viewBox="0 0 592.3 1184.4" enable-background="new 0 0 592.3 1184.4" xml:space="preserve">
<g id="XMLID_3204_">
	<text transform="matrix(1 0 0 1 105.2531 611.9019)" fill="#1A457F" font-family="'HelveticaNeue-Thin'" font-size="59.5174">Farmacia Salud</text>
</g>
<g id="XMLID_2607_">
	<g id="XMLID_2624_">
		<linearGradient id="XMLID_3_" gradientUnits="userSpaceOnUse" x1="296.1477" y1="-36.0981" x2="296.1477" y2="777.9903">
			<stop  offset="0" style="stop-color:#1A457F"/>
			<stop  offset="1" style="stop-color:#025497;stop-opacity:0"/>
		</linearGradient>
		<path id="XMLID_2625_" fill="url(#XMLID_3_)" d="M506.4,1184.4H85.9c-47.4,0-85.9-38.6-85.9-85.9V85.9C0,38.6,38.6,0,85.9,0h420.4
			c47.4,0,85.9,38.6,85.9,85.9v1012.5C592.3,1145.8,553.7,1184.4,506.4,1184.4z M85.9,3.9C40.7,3.9,3.9,40.7,3.9,85.9v1012.5
			c0,45.3,36.8,82.1,82.1,82.1h420.4c45.3,0,82.1-36.8,82.1-82.1V85.9c0-45.3-36.8-82.1-82.1-82.1H85.9z"/>
	</g>
	<g id="XMLID_2620_">
		<linearGradient id="XMLID_4_" gradientUnits="userSpaceOnUse" x1="296.1477" y1="-36.0981" x2="296.1477" y2="777.9903">
			<stop  offset="0" style="stop-color:#1A457F"/>
			<stop  offset="1" style="stop-color:#025497;stop-opacity:0"/>
		</linearGradient>
		<path id="XMLID_2621_" fill="url(#XMLID_4_)" d="M503.6,1164.5H88.7c-45.7,0-83-37.2-83-83V89.9c0-45.7,37.2-83,83-83h414.9
			c45.7,0,83,37.2,83,83v991.6C586.6,1127.3,549.4,1164.5,503.6,1164.5z M88.7,10.9c-43.6,0-79.1,35.5-79.1,79.1v991.6
			c0,43.6,35.5,79.1,79.1,79.1h414.9c43.6,0,79.1-35.5,79.1-79.1V89.9c0-43.6-35.5-79.1-79.1-79.1H88.7z"/>
	</g>
	<g id="XMLID_2616_">
		<linearGradient id="XMLID_5_" gradientUnits="userSpaceOnUse" x1="296.1477" y1="-36.0981" x2="296.1477" y2="777.9903">
			<stop  offset="0" style="stop-color:#1A457F"/>
			<stop  offset="1" style="stop-color:#025497;stop-opacity:0"/>
		</linearGradient>
		<path id="XMLID_2617_" fill="url(#XMLID_5_)" d="M562,1056.2H30.3c-4.7,0-8.6-3.8-8.6-8.6v-917c0-4.7,3.8-8.6,8.6-8.6H562
			c4.7,0,8.6,3.8,8.6,8.6v917C570.6,1052.3,566.7,1056.2,562,1056.2z M30.3,125.5c-2.8,0-5.1,2.3-5.1,5.1v917c0,2.8,2.3,5.1,5.1,5.1
			H562c2.8,0,5.1-2.3,5.1-5.1v-917c0-2.8-2.3-5.1-5.1-5.1H30.3z"/>
	</g>
	<g id="XMLID_2612_">
		<linearGradient id="XMLID_6_" gradientUnits="userSpaceOnUse" x1="238.6086" y1="-36.0981" x2="238.6086" y2="777.9903">
			<stop  offset="0" style="stop-color:#1A457F"/>
			<stop  offset="1" style="stop-color:#025497;stop-opacity:0"/>
		</linearGradient>
		<path id="XMLID_2613_" fill="url(#XMLID_6_)" d="M238.6,71.2c-4.9,0-8.9-4-8.9-8.9c0-4.9,4-8.9,8.9-8.9c4.9,0,8.9,4,8.9,8.9
			C247.5,67.2,243.5,71.2,238.6,71.2z M238.6,56.4c-3.2,0-5.8,2.6-5.8,5.8c0,3.2,2.6,5.8,5.8,5.8c3.2,0,5.8-2.6,5.8-5.8
			C244.5,59.1,241.8,56.4,238.6,56.4z"/>
	</g>
	<g id="XMLID_2608_">
		<linearGradient id="XMLID_7_" gradientUnits="userSpaceOnUse" x1="298.4585" y1="-36.0981" x2="298.4585" y2="777.9903">
			<stop  offset="0" style="stop-color:#1A457F"/>
			<stop  offset="1" style="stop-color:#025497;stop-opacity:0"/>
		</linearGradient>
		<path id="XMLID_2609_" fill="url(#XMLID_7_)" d="M333.7,71.2h-70.5c-4.9,0-8.9-4-8.9-8.9c0-4.9,4-8.9,8.9-8.9h70.5
			c4.9,0,8.9,4,8.9,8.9C342.6,67.2,338.6,71.2,333.7,71.2z M263.2,56.4c-3.2,0-5.8,2.6-5.8,5.8c0,3.2,2.6,5.8,5.8,5.8h70.5
			c3.2,0,5.8-2.6,5.8-5.8c0-3.2-2.6-5.8-5.8-5.8H263.2z"/>
	</g>
</g>
<g id="XMLID_3313_">
	<g>
		<g id="XMLID_130_">
			<g id="XMLID_135_">
				<g id="XMLID_139_">
					<g id="XMLID_141_">
						
							<path id="XMLID_142_" fill="none" stroke="#1A457F" stroke-width="2" stroke-linecap="round" stroke-linejoin="round" stroke-miterlimit="10" d="
							M527.1,344v32.6c0,3.6-2.9,6.5-6.5,6.5h-58.7c-3.6,0-6.5-2.9-6.5-6.5V344"/>
					</g>
					
						<path id="XMLID_140_" fill="none" stroke="#1A457F" stroke-width="2" stroke-linecap="round" stroke-linejoin="round" stroke-miterlimit="10" d="
						M458.6,379.9l31.4-25.7c0.7-0.6,1.8-0.6,2.5,0l31.4,25.7"/>
				</g>
				
					<line id="XMLID_138_" fill="none" stroke="#1A457F" stroke-width="2" stroke-linecap="round" stroke-linejoin="round" stroke-miterlimit="10" x1="514" y1="332.1" x2="527.1" y2="344"/>
				
					<polyline id="XMLID_137_" fill="none" stroke="#1A457F" stroke-width="2" stroke-linecap="round" stroke-linejoin="round" stroke-miterlimit="10" points="
					480.9,320.7 491.2,311.3 500.8,320.1 				"/>
				
					<line id="XMLID_136_" fill="none" stroke="#1A457F" stroke-width="2" stroke-linecap="round" stroke-linejoin="round" stroke-miterlimit="10" x1="455.3" y1="344" x2="467.6" y2="332.8"/>
			</g>
			<g id="XMLID_133_">
				
					<line id="XMLID_134_" fill="none" stroke="#1A457F" stroke-width="2" stroke-linecap="round" stroke-linejoin="round" stroke-miterlimit="10" x1="455.3" y1="344" x2="478.6" y2="362.8"/>
			</g>
			<g id="XMLID_131_">
				
					<line id="XMLID_132_" fill="none" stroke="#1A457F" stroke-width="2" stroke-linecap="round" stroke-linejoin="round" stroke-miterlimit="10" x1="527.1" y1="344" x2="503.8" y2="362.8"/>
			</g>
		</g>
		<g id="XMLID_128_">
			
				<polyline id="XMLID_129_" fill="none" stroke="#1A457F" stroke-width="2" stroke-linecap="round" stroke-linejoin="round" stroke-miterlimit="10" points="
				514,353.8 514,321.1 468.4,321.1 468.4,353.8 			"/>
		</g>
	</g>
</g>
<g id="XMLID_3298_">
	<g>
		<g id="XMLID_83_">
			
				<path id="XMLID_84_" fill="none" stroke="#1A457F" stroke-width="2" stroke-linecap="round" stroke-linejoin="round" stroke-miterlimit="10" d="
				M84.5,355.1v39.5c0,2.2,1.8,3.9,3.9,3.9h7.9c2.2,0,3.9-1.8,3.9-3.9v-39.5"/>
		</g>
		<g id="XMLID_81_">
			
				<path id="XMLID_82_" fill="none" stroke="#1A457F" stroke-width="2" stroke-linecap="round" stroke-linejoin="round" stroke-miterlimit="10" d="
				M84.5,339.3c0,0-1.8,0-3.9,0c-2.2,0-3.9,1.8-3.9,3.9v7.9c0,2.2,1.8,3.9,3.9,3.9c2.2,0,3.9,0,3.9,0"/>
		</g>
		<g id="XMLID_79_">
			
				<path id="XMLID_80_" fill="none" stroke="#1A457F" stroke-width="2" stroke-linecap="round" stroke-linejoin="round" stroke-miterlimit="10" d="
				M100.3,355.1h7.9c2.2,0,4.4-1.7,4.9-3.8l2-8.1c0.5-2.1-0.8-3.8-3-3.8h-11.8"/>
		</g>
		
			<polyline id="XMLID_78_" fill="none" stroke="#1A457F" stroke-width="2" stroke-linecap="round" stroke-linejoin="round" stroke-miterlimit="10" points="
			100.3,311.7 112.1,311.7 112.1,327.5 100.3,327.5 100.3,339.3 		"/>
		
			<line id="XMLID_77_" fill="none" stroke="#1A457F" stroke-width="2" stroke-linecap="round" stroke-linejoin="round" stroke-miterlimit="10" x1="84.5" y1="339.3" x2="84.5" y2="327.5"/>
		
			<path id="XMLID_76_" fill="none" stroke="#1A457F" stroke-width="2" stroke-linecap="round" stroke-linejoin="round" stroke-miterlimit="10" d="
			M100.3,311.7c-11.8,0-15.8,7.8-15.8,15.8"/>
	</g>
</g>
<g id="XMLID_3290_">
	<g>
		<g id="XMLID_10_">
			<path fill="#1A457F" d="M226,217.4c4.6,0,8.8,1.9,11.8,5c3.7-0.7,7.1-2,10.3-3.9c-1.2,3.7-3.8,6.8-7.1,8.8
				c3.3-0.4,6.4-1.2,9.3-2.5c-2.2,3.2-4.9,6-8.1,8.2c0,0.7,0,1.4,0,2.1c0,21-13.4,45.4-43.1,45.4c-11.8,0-20.5-2.7-27.6-7.3
				c1.3,0.2,2.5,0.2,3.8,0.2c7.6,0,14.5-2.5,20.1-6.8c-7.1-0.1-13-4.7-15.1-11.1c1,0.2,2,0.3,3,0.3c1.5,0,2.9-0.2,4.3-0.6
				c-7.4-1.5-12.3-7.8-12.3-15.6c0-0.1,0-0.1,0-0.2c2.2,1.2,4.7,1.9,7.3,2c-4.3-2.9-7.2-7.7-7.2-13.3c0-2.9,0.8-5.7,2.2-8
				c8,9.6,19.2,15.9,32.6,16.6c-0.3-1.2-0.4-2.4-0.4-3.6C209.9,224.5,217.1,217.4,226,217.4 M250.3,224.8L250.3,224.8 M226,215.4
				c-10,0-18.2,8-18.2,17.9c0,0.5,0,1,0.1,1.4c-11.3-1.2-21.2-6.6-28.7-15.7c-0.4-0.5-0.9-0.7-1.5-0.7c-0.1,0-0.1,0-0.2,0
				c-0.6,0.1-1.2,0.4-1.6,1c-1.6,2.7-2.5,5.8-2.5,9c0,3.4,1,6.7,2.7,9.4c-0.3-0.1-0.6-0.2-0.9-0.2c-0.4,0-0.7,0.1-1,0.3
				c-0.6,0.4-1,1-1,1.7v0.2c0,5.7,2.4,10.7,6.3,13.9c-0.3,0.1-0.6,0.3-0.8,0.6c-0.5,0.5-0.6,1.3-0.4,1.9c1.8,5.6,6.2,9.8,11.6,11.6
				c-4.5,2.4-9.5,3.7-14.7,3.7c-1.3,0-2.5-0.1-3.6-0.2c-0.1,0-0.2,0-0.2,0c-0.8,0-1.6,0.5-1.9,1.3c-0.3,0.9,0,1.9,0.8,2.4
				c8.2,5.2,17.3,7.6,28.7,7.6c29.6,0,45.1-23.8,45.1-47.4c0-0.3,0-0.7,0-1.1c3-2.2,5.5-4.9,7.6-8c0.2-0.3,0.4-0.7,0.4-1.2
				c0-1.1-0.9-2-2-2c0,0,0,0,0,0c-0.1,0-0.1,0-0.2,0c-0.2,0-0.4,0.1-0.6,0.2c-0.5,0.2-1.1,0.5-1.7,0.7c0.9-1.4,1.7-2.9,2.2-4.5
				c0.3-0.8,0-1.7-0.6-2.2c-0.4-0.3-0.8-0.4-1.3-0.4c-0.3,0-0.7,0.1-1,0.3c-2.7,1.6-5.6,2.7-8.6,3.4
				C235.1,217.1,230.7,215.4,226,215.4L226,215.4z"/>
		</g>
	</g>
</g>
<g id="XMLID_3263_">
	<g>
		<g id="XMLID_57_">
			
				<path id="XMLID_59_" fill="none" stroke="#1A457F" stroke-width="2" stroke-linecap="round" stroke-linejoin="round" stroke-miterlimit="10" d="
				M350.3,269.7L350.3,269.7c0,0,4.3,0,6.7,0h0c18.5,0,33.6-12.4,33.6-27.6s-15-27.6-33.6-27.6c-18.5,0-33.6,12.4-33.6,27.6
				c0,9.2,5.7,16.9,14.1,21.9l0,0"/>
			
				<path id="XMLID_58_" fill="none" stroke="#1A457F" stroke-width="2" stroke-linecap="round" stroke-linejoin="round" stroke-miterlimit="10" d="
				M337.5,264c-0.6,9.6-6.2,13.6-6.2,13.6s11.8,1.5,19-7.9"/>
		</g>
		<g id="XMLID_53_">
			
				<path id="XMLID_56_" fill="none" stroke="#1A457F" stroke-width="2" stroke-linecap="round" stroke-linejoin="round" stroke-miterlimit="10" d="
				M402.4,242c4.9,3.4,7.9,10,7.9,15.8c0,9.2-5.7,16.9-14.1,21.9l0,0"/>
			
				<path id="XMLID_55_" fill="none" stroke="#1A457F" stroke-width="2" stroke-linecap="round" stroke-linejoin="round" stroke-miterlimit="10" d="
				M383.5,285.5L383.5,285.5c0,0-4.4,0-6.7,0h0c-6.5,0-12.7-1.3-17.8-3.9"/>
			
				<path id="XMLID_54_" fill="none" stroke="#1A457F" stroke-width="2" stroke-linecap="round" stroke-linejoin="round" stroke-miterlimit="10" d="
				M396.2,279.8c0.6,9.6,6.2,13.6,6.2,13.6s-11.8,1.5-19-7.9"/>
		</g>
	</g>
</g>
<g id="XMLID_851_">
	<g id="XMLID_2943_">
		<path id="XMLID_3111_" fill="none" stroke="#1A457F" stroke-width="2" stroke-linecap="round" stroke-linejoin="round" d="
			M267.4,538.9c0,0-2.8-146.4-129.6-148.2"/>
		<g id="XMLID_2969_">
			<path id="XMLID_2992_" fill="#1A457F" d="M151.6,381.4c0.3,0.5,0.1,1.1-0.3,1.4l-13.1,8l12.8,8.5c0.5,0.3,0.6,0.9,0.3,1.4
				c-0.3,0.5-0.9,0.6-1.4,0.3l-14.1-9.3c-0.3-0.2-0.5-0.5-0.4-0.9c0-0.3,0.2-0.7,0.5-0.8l14.4-8.8c0.2-0.1,0.4-0.1,0.5-0.1
				C151.1,380.9,151.4,381.1,151.6,381.4z"/>
		</g>
	</g>
</g>
<g id="XMLID_631_">
	<g id="XMLID_2536_">
		<path id="XMLID_2803_" fill="none" stroke="#1A457F" stroke-width="2" stroke-linecap="round" stroke-linejoin="round" d="
			M281,521.7c0,0,0-165.2-63.4-211.5"/>
		<g id="XMLID_2537_">
			<path id="XMLID_2538_" fill="#1A457F" d="M234.3,310.4c0,0.6-0.5,1-1.1,0.9l-15.3-0.8l5.7,14.2c0.2,0.5,0,1.1-0.6,1.3
				c-0.5,0.2-1.1,0-1.3-0.6l-6.3-15.7c-0.1-0.3-0.1-0.7,0.1-1s0.5-0.4,0.9-0.4l16.8,0.9c0.2,0,0.4,0.1,0.5,0.2
				C234.2,309.7,234.4,310,234.3,310.4z"/>
		</g>
	</g>
</g>
<g id="XMLID_2092_">
	<g id="XMLID_2481_">
		<path id="XMLID_2534_" fill="none" stroke="#1A457F" stroke-width="2" stroke-linecap="round" stroke-linejoin="round" d="
			M307.3,538.9c0,0,2.8-146.4,129.6-148.2"/>
		<g id="XMLID_2529_">
			<path id="XMLID_2533_" fill="#1A457F" d="M423.4,400.6c-0.3-0.5-0.2-1.1,0.3-1.4l12.8-8.5l-13.1-8c-0.5-0.3-0.6-0.9-0.3-1.4
				c0.3-0.5,0.9-0.6,1.4-0.3l14.4,8.8c0.3,0.2,0.5,0.5,0.5,0.8c0,0.3-0.2,0.7-0.4,0.9l-14.1,9.3c-0.2,0.1-0.3,0.2-0.5,0.2
				C423.9,401,423.6,400.9,423.4,400.6z"/>
		</g>
	</g>
</g>
<g id="XMLID_1009_">
	<g id="XMLID_2271_">
		<path id="XMLID_2418_" fill="none" stroke="#1A457F" stroke-width="2" stroke-linecap="round" stroke-linejoin="round" d="
			M293.6,521.7c0,0,0-165.2,63.4-211.5"/>
		<g id="XMLID_2276_">
			<path id="XMLID_2413_" fill="#1A457F" d="M351.5,326c-0.5-0.2-0.8-0.8-0.6-1.3l5.7-14.2l-15.3,0.8c-0.6,0-1-0.4-1.1-0.9
				c0-0.6,0.4-1,0.9-1.1l16.8-0.9c0.3,0,0.7,0.1,0.9,0.4s0.2,0.6,0.1,1l-6.3,15.7c-0.1,0.2-0.2,0.3-0.3,0.4
				C352.2,326,351.9,326.1,351.5,326z"/>
		</g>
	</g>
</g>
</svg>
