<?xml version="1.0" encoding="utf-8"?>
<!-- Generator: Adobe Illustrator 18.1.1, SVG Export Plug-In . SVG Version: 6.00 Build 0)  -->
<svg version="1.1" id="Layer_1" xmlns="http://www.w3.org/2000/svg" xmlns:xlink="http://www.w3.org/1999/xlink" x="0px" y="0px"
	 viewBox="0 0 592.3 1184.4" enable-background="new 0 0 592.3 1184.4" xml:space="preserve">
<g id="XMLID_3203_">
	<text transform="matrix(1 0 0 1 103.8354 253.937)" fill="#1A457F" font-family="'HelveticaNeue-Thin'" font-size="59.5174">Farmacia Salud</text>
</g>
<g id="XMLID_3202_">
	<text transform="matrix(1 0 0 1 196.6543 492.5095)" fill="#1A457F" font-family="'HelveticaNeue-Thin'" font-size="92.3086">-50%</text>
</g>
<g id="XMLID_2573_">
	<g id="XMLID_2590_">
		<linearGradient id="XMLID_4_" gradientUnits="userSpaceOnUse" x1="296.1477" y1="-36.0981" x2="296.1477" y2="777.9903">
			<stop  offset="0" style="stop-color:#1A457F"/>
			<stop  offset="1" style="stop-color:#025497;stop-opacity:0"/>
		</linearGradient>
		<path id="XMLID_2591_" fill="url(#XMLID_4_)" d="M506.4,1184.4H85.9c-47.4,0-85.9-38.6-85.9-85.9V85.9C0,38.6,38.6,0,85.9,0h420.4
			c47.4,0,85.9,38.6,85.9,85.9v1012.5C592.3,1145.8,553.7,1184.4,506.4,1184.4z M85.9,3.9C40.7,3.9,3.9,40.7,3.9,85.9v1012.5
			c0,45.3,36.8,82.1,82.1,82.1h420.4c45.3,0,82.1-36.8,82.1-82.1V85.9c0-45.3-36.8-82.1-82.1-82.1H85.9z"/>
	</g>
	<g id="XMLID_2586_">
		<linearGradient id="XMLID_5_" gradientUnits="userSpaceOnUse" x1="296.1477" y1="-36.0981" x2="296.1477" y2="777.9903">
			<stop  offset="0" style="stop-color:#1A457F"/>
			<stop  offset="1" style="stop-color:#025497;stop-opacity:0"/>
		</linearGradient>
		<path id="XMLID_2587_" fill="url(#XMLID_5_)" d="M503.6,1164.5H88.7c-45.7,0-83-37.2-83-83V89.9c0-45.7,37.2-83,83-83h414.9
			c45.7,0,83,37.2,83,83v991.6C586.6,1127.3,549.4,1164.5,503.6,1164.5z M88.7,10.9c-43.6,0-79.1,35.5-79.1,79.1v991.6
			c0,43.6,35.5,79.1,79.1,79.1h414.9c43.6,0,79.1-35.5,79.1-79.1V89.9c0-43.6-35.5-79.1-79.1-79.1H88.7z"/>
	</g>
	<g id="XMLID_2582_">
		<linearGradient id="XMLID_6_" gradientUnits="userSpaceOnUse" x1="296.1477" y1="-36.0981" x2="296.1477" y2="777.9903">
			<stop  offset="0" style="stop-color:#1A457F"/>
			<stop  offset="1" style="stop-color:#025497;stop-opacity:0"/>
		</linearGradient>
		<path id="XMLID_2583_" fill="url(#XMLID_6_)" d="M562,1056.2H30.3c-4.7,0-8.6-3.8-8.6-8.6v-917c0-4.7,3.8-8.6,8.6-8.6H562
			c4.7,0,8.6,3.8,8.6,8.6v917C570.6,1052.3,566.7,1056.2,562,1056.2z M30.3,125.5c-2.8,0-5.1,2.3-5.1,5.1v917c0,2.8,2.3,5.1,5.1,5.1
			H562c2.8,0,5.1-2.3,5.1-5.1v-917c0-2.8-2.3-5.1-5.1-5.1H30.3z"/>
	</g>
	<g id="XMLID_2578_">
		<linearGradient id="XMLID_7_" gradientUnits="userSpaceOnUse" x1="238.6086" y1="-36.0981" x2="238.6086" y2="777.9903">
			<stop  offset="0" style="stop-color:#1A457F"/>
			<stop  offset="1" style="stop-color:#025497;stop-opacity:0"/>
		</linearGradient>
		<path id="XMLID_2579_" fill="url(#XMLID_7_)" d="M238.6,71.2c-4.9,0-8.9-4-8.9-8.9c0-4.9,4-8.9,8.9-8.9c4.9,0,8.9,4,8.9,8.9
			C247.5,67.2,243.5,71.2,238.6,71.2z M238.6,56.4c-3.2,0-5.8,2.6-5.8,5.8c0,3.2,2.6,5.8,5.8,5.8c3.2,0,5.8-2.6,5.8-5.8
			C244.5,59.1,241.8,56.4,238.6,56.4z"/>
	</g>
	<g id="XMLID_2574_">
		<linearGradient id="XMLID_8_" gradientUnits="userSpaceOnUse" x1="298.4585" y1="-36.0981" x2="298.4585" y2="777.9903">
			<stop  offset="0" style="stop-color:#1A457F"/>
			<stop  offset="1" style="stop-color:#025497;stop-opacity:0"/>
		</linearGradient>
		<path id="XMLID_2575_" fill="url(#XMLID_8_)" d="M333.7,71.2h-70.5c-4.9,0-8.9-4-8.9-8.9c0-4.9,4-8.9,8.9-8.9h70.5
			c4.9,0,8.9,4,8.9,8.9C342.6,67.2,338.6,71.2,333.7,71.2z M263.2,56.4c-3.2,0-5.8,2.6-5.8,5.8c0,3.2,2.6,5.8,5.8,5.8h70.5
			c3.2,0,5.8-2.6,5.8-5.8c0-3.2-2.6-5.8-5.8-5.8H263.2z"/>
	</g>
</g>
<polygon id="XMLID_3181_" fill="none" stroke="#1A457F" stroke-width="2" stroke-miterlimit="10" points="298.5,311.9 319.4,329.9 
	344.8,319.2 359.2,342.8 386.6,340.5 393,367.4 419.8,373.7 417.6,401.2 441.1,415.5 430.5,441 448.5,461.9 430.5,482.8 
	441.1,508.3 417.6,522.6 419.8,550.1 393,556.4 386.6,583.3 359.2,581 344.8,604.6 319.4,593.9 298.5,611.9 277.5,593.9 
	252.1,604.6 237.8,581 210.3,583.3 203.9,556.4 177.1,550.1 179.3,522.6 155.8,508.3 166.4,482.8 148.5,461.9 166.4,441 
	155.8,415.5 179.3,401.2 177.1,373.7 203.9,367.4 210.3,340.5 237.8,342.8 252.1,319.2 277.5,329.9 "/>
</svg>
